<?xml version="1.0" encoding="UTF-8" standalone="no"?>
<!-- Created with Inkscape (http://www.inkscape.org/) -->

<svg
   xmlns:dc="http://purl.org/dc/elements/1.1/"
   xmlns:cc="http://creativecommons.org/ns#"
   xmlns:rdf="http://www.w3.org/1999/02/22-rdf-syntax-ns#"
   xmlns:svg="http://www.w3.org/2000/svg"
   xmlns="http://www.w3.org/2000/svg"
   xmlns:xlink="http://www.w3.org/1999/xlink"
   xmlns:sodipodi="http://sodipodi.sourceforge.net/DTD/sodipodi-0.dtd"
   xmlns:inkscape="http://www.inkscape.org/namespaces/inkscape"
   width="210mm"
   height="297mm"
   viewBox="0 0 744.09448819 1052.3622047"
   id="svg2"
   version="1.1"
   inkscape:version="0.91 r13725"
   sodipodi:docname="New York City silhouette.svg">
  <defs
     id="defs4">
    <clipPath
       id="SVGID_4_">
      <use
         height="100%"
         width="100%"
         y="0"
         x="0"
         style="overflow:visible"
         xlink:href="#SVGID_3_"
         overflow="visible"
         id="use147" />
    </clipPath>
    <clipPath
       id="clipPath3537">
      <use
         height="100%"
         width="100%"
         y="0"
         x="0"
         style="overflow:visible"
         xlink:href="#SVGID_3_"
         overflow="visible"
         id="use3539" />
    </clipPath>
    <clipPath
       id="clipPath3541">
      <use
         height="100%"
         width="100%"
         y="0"
         x="0"
         style="overflow:visible"
         xlink:href="#SVGID_3_"
         overflow="visible"
         id="use3543" />
    </clipPath>
    <clipPath
       id="clipPath3545">
      <use
         height="100%"
         width="100%"
         y="0"
         x="0"
         style="overflow:visible"
         xlink:href="#SVGID_3_"
         overflow="visible"
         id="use3547" />
    </clipPath>
    <clipPath
       id="clipPath3549">
      <use
         height="100%"
         width="100%"
         y="0"
         x="0"
         style="overflow:visible"
         xlink:href="#SVGID_3_"
         overflow="visible"
         id="use3551" />
    </clipPath>
    <clipPath
       id="clipPath3553">
      <use
         height="100%"
         width="100%"
         y="0"
         x="0"
         style="overflow:visible"
         xlink:href="#SVGID_3_"
         overflow="visible"
         id="use3555" />
    </clipPath>
    <clipPath
       id="clipPath3557">
      <use
         height="100%"
         width="100%"
         y="0"
         x="0"
         style="overflow:visible"
         xlink:href="#SVGID_3_"
         overflow="visible"
         id="use3559" />
    </clipPath>
    <clipPath
       id="clipPath3561">
      <use
         height="100%"
         width="100%"
         y="0"
         x="0"
         style="overflow:visible"
         xlink:href="#SVGID_3_"
         overflow="visible"
         id="use3563" />
    </clipPath>
    <clipPath
       id="clipPath3565">
      <use
         height="100%"
         width="100%"
         y="0"
         x="0"
         style="overflow:visible"
         xlink:href="#SVGID_3_"
         overflow="visible"
         id="use3567" />
    </clipPath>
    <clipPath
       id="clipPath3569">
      <use
         height="100%"
         width="100%"
         y="0"
         x="0"
         style="overflow:visible"
         xlink:href="#SVGID_3_"
         overflow="visible"
         id="use3571" />
    </clipPath>
    <clipPath
       id="clipPath3573">
      <use
         height="100%"
         width="100%"
         y="0"
         x="0"
         style="overflow:visible"
         xlink:href="#SVGID_3_"
         overflow="visible"
         id="use3575" />
    </clipPath>
    <clipPath
       id="clipPath3577">
      <use
         height="100%"
         width="100%"
         y="0"
         x="0"
         style="overflow:visible"
         xlink:href="#SVGID_3_"
         overflow="visible"
         id="use3579" />
    </clipPath>
    <clipPath
       id="clipPath3581">
      <use
         height="100%"
         width="100%"
         y="0"
         x="0"
         style="overflow:visible"
         xlink:href="#SVGID_3_"
         overflow="visible"
         id="use3583" />
    </clipPath>
    <clipPath
       id="clipPath3585">
      <use
         height="100%"
         width="100%"
         y="0"
         x="0"
         style="overflow:visible"
         xlink:href="#SVGID_3_"
         overflow="visible"
         id="use3587" />
    </clipPath>
    <clipPath
       id="clipPath3589">
      <use
         height="100%"
         width="100%"
         y="0"
         x="0"
         style="overflow:visible"
         xlink:href="#SVGID_3_"
         overflow="visible"
         id="use3591" />
    </clipPath>
    <clipPath
       id="clipPath3593">
      <use
         height="100%"
         width="100%"
         y="0"
         x="0"
         style="overflow:visible"
         xlink:href="#SVGID_3_"
         overflow="visible"
         id="use3595" />
    </clipPath>
    <clipPath
       id="clipPath3597">
      <use
         height="100%"
         width="100%"
         y="0"
         x="0"
         style="overflow:visible"
         xlink:href="#SVGID_3_"
         overflow="visible"
         id="use3599" />
    </clipPath>
    <clipPath
       id="clipPath3601">
      <use
         height="100%"
         width="100%"
         y="0"
         x="0"
         style="overflow:visible"
         xlink:href="#SVGID_3_"
         overflow="visible"
         id="use3603" />
    </clipPath>
    <clipPath
       id="clipPath3605">
      <use
         height="100%"
         width="100%"
         y="0"
         x="0"
         style="overflow:visible"
         xlink:href="#SVGID_3_"
         overflow="visible"
         id="use3607" />
    </clipPath>
    <clipPath
       id="clipPath3609">
      <use
         height="100%"
         width="100%"
         y="0"
         x="0"
         style="overflow:visible"
         xlink:href="#SVGID_3_"
         overflow="visible"
         id="use3611" />
    </clipPath>
  </defs>
  <sodipodi:namedview
     id="base"
     pagecolor="#ffffff"
     bordercolor="#666666"
     borderopacity="1.0"
     inkscape:pageopacity="0.0"
     inkscape:pageshadow="2"
     inkscape:zoom="0.7"
     inkscape:cx="378.34544"
     inkscape:cy="441.8075"
     inkscape:document-units="px"
     inkscape:current-layer="g141"
     showgrid="false"
     inkscape:window-width="1366"
     inkscape:window-height="715"
     inkscape:window-x="-8"
     inkscape:window-y="-8"
     inkscape:window-maximized="1" />
  <metadata
     id="metadata7">
    <rdf:RDF>
      <cc:Work
         rdf:about="">
        <dc:format>image/svg+xml</dc:format>
        <dc:type
           rdf:resource="http://purl.org/dc/dcmitype/StillImage" />
        <dc:title></dc:title>
      </cc:Work>
    </rdf:RDF>
  </metadata>
  <g
     inkscape:label="Layer 1"
     inkscape:groupmode="layer"
     id="layer1">
    <g
       transform="translate(-722.85886,-193.95744)"
       id="g141">
      <defs
         id="defs143">
        <rect
           y="0"
           x="0"
           id="SVGID_3_"
           width="800"
           height="800" />
      </defs>
      <clipPath
         id="clipPath3616">
        <use
           height="100%"
           width="100%"
           y="0"
           x="0"
           style="overflow:visible"
           xlink:href="#SVGID_3_"
           overflow="visible"
           id="use3618" />
      </clipPath>
      <rect
         style="opacity:1;fill:#f5f5f5;fill-opacity:1;fill-rule:nonzero;stroke:none;stroke-width:1;stroke-linecap:round;stroke-linejoin:round;stroke-miterlimit:4;stroke-dasharray:none;stroke-dashoffset:0;stroke-opacity:1"
         id="rect3470"
         width="745.49255"
         height="398.00009"
         x="723.45056"
         y="478.60373"
         inkscape:export-xdpi="300"
         inkscape:export-ydpi="300" />
      <path
         style="fill:#3c3c3b"
         inkscape:connector-curvature="0"
         clip-path="url(#SVGID_4_)"
         d="m 189.726,665.059 c -0.022,0.022 0.004,0.039 0.052,0.053 -0.014,-0.048 -0.031,-0.075 -0.052,-0.053"
         id="path149" />
      <path
         style="fill:#000000"
         inkscape:connector-curvature="0"
         clip-path="url(#SVGID_4_)"
         d="m 315.301,682.245 1.149,0.026 0,-1.417 -1.149,0.042 0.017,-1.131 -1.086,-0.021 0,-2.854 -0.682,-0.052 -0.054,-0.789 -1.814,-0.421 0.07,-0.782 1.008,0.021 0.026,-0.526 0.683,-0.236 0.158,-0.658 0.632,-0.183 -0.5,-4.838 c 0,0 2.314,-2.709 2.234,-2.709 -0.079,0 -1.394,-1.682 -1.394,-1.682 l -1.288,1.052 -1.419,-2.753 -1.262,0 -0.911,-1.218 0.738,-0.814 0.078,-1.236 1.341,-0.185 -1.235,-0.367 1.235,-0.736 -1.604,-0.053 0.921,-1.078 -1.499,0.763 -0.131,-1.367 -0.631,1.288 -0.421,-0.026 -0.894,-0.736 0.446,1.288 -0.947,-0.131 0,-0.958 -0.225,-0.121 -0.09,-3.496 -0.592,-0.825 0.014,-0.174 1.078,-0.025 0,-0.974 -0.263,-0.342 -0.79,-0.053 -0.077,-0.284 0.867,-0.109 0,-0.789 -0.289,-0.457 -0.027,-0.385 -0.315,-0.367 0.451,-0.946 0,-0.685 -1.819,2.383 0,0.982 0.316,0.373 0.079,0.232 -0.316,0 -0.316,0.421 0,1.051 0.474,0.263 0.004,1.216 0.603,0 0,1.225 -0.974,4.438 0,1.764 0.557,0.464 0,1.95 0.472,1.01 -0.472,2.609 0,1.021 0.536,0 0.091,0.489 -0.069,2.11 0.418,0 0.016,2.325 -0.434,1.666 0,4.871 -0.906,-0.019 0,1.291 -1.275,-0.015 0.283,1.558 1.076,-0.006 -1.216,2.274 c 0,0 -0.568,-4.11 -5.244,-6.66 -0.429,-0.234 -0.853,-0.429 -1.273,-0.604 -2.13,-2.621 -6.164,-2.135 -6.164,-2.135 l 0,-2.098 -0.845,0.259 c -0.251,-0.894 -0.709,-1.369 -1.115,-1.623 l 0,-14.682 -5.262,0 0,10.822 -0.361,0 0,4.541 -0.205,0.206 -1.42,0 0,-41.846 -6.672,-0.083 0,33.7 c -0.659,0.088 -1.247,0.312 -1.73,0.563 l 0,-30.638 -4.902,-4.901 -5.888,4.825 0.074,26.322 c -0.883,-0.108 -1.662,0.019 -2.324,0.26 l 0,-49.644 -3.292,-0.038 -0.058,-0.681 2.57,0.02 0.78,-0.361 0,-0.567 -0.625,-0.511 -2.781,-0.057 -0.454,-19.24 -0.481,19.245 -2.924,0 -0.625,0.449 0.057,0.681 0.681,0.342 2.811,0 0,0.545 -3.785,0 0,47.722 -1.397,-1.197 -2.267,2.551 0,3.117 -0.709,0 0,7.367 -0.709,0 0,3.305 -1.517,0 0,-17.19 -1.601,0 0,-5.269 -3.076,0 0,5.269 -0.401,0 0,4.738 -4.802,0 0,0.782 c -0.654,-0.008 -1.071,-0.015 -1.071,-0.015 l 0,0.265 -0.421,0 0,-3.484 -0.874,0 0,-1.642 -6.072,0 0,8.045 -2.217,0 0,6.473 -1.104,0 0,-1.173 -1.876,0 0,-0.773 -0.884,0 0,-1.104 -1.104,0 0,3.05 -0.751,0 0,-5.669 -1.559,-9.493 -1.56,9.493 0,5.386 -0.536,0.134 0,-17.049 -8.121,0 0,3.439 -1.163,0 0,6.89 -0.359,0 -0.589,-2.787 -0.757,2.787 -2.049,0 0,-6.338 -1.546,0 0,1.324 -4.416,0 0,-0.993 -2.097,0 0,1.436 -1.547,0 0,-1.104 -1.655,0 0,5.743 c -0.812,0.032 -1.719,0.051 -1.944,-0.015 0.125,0.439 -0.052,3.495 -0.052,3.495 l -1.224,0 0,3.746 -0.993,0 0,-5.951 -1.132,-2.126 -1.135,2.551 0,4.252 -0.839,0 0,-15.639 -5.835,0 0,2.508 -0.647,0 0,5.377 -2.098,0 0,-7.585 -3.721,0 0,-6.099 -4.732,0 0,3.009 -4.575,0 0,11.909 -0.436,0 0,4.89 -0.429,0.429 0,-37.383 -0.867,0 0,-6.15 -0.867,0 0,-2.602 -0.868,0 0,-1.025 -0.946,0 0,-1.42 -0.789,0.158 0,-0.709 -0.473,-0.079 c 0,0 -0.044,-5.994 0,-7.097 0.049,-1.236 -1.248,-1.354 -1.248,-1.354 l 0,-3.141 -0.394,0 0,3.114 c -1.518,0.057 -1.591,1.223 -1.591,1.223 l 0,7.885 -1.182,0 0,1.262 -0.946,0 0,1.262 -0.947,0.079 0,2.207 -0.71,0.079 0,6.229 -0.473,0 0,31.353 -0.729,0.581 0,0.638 c -0.043,-10e-4 -0.073,-0.002 -0.073,-0.002 l 0,1.796 -1.025,0 0,-17.664 -4.833,0 0,18.989 -0.207,0 -2.268,-2.268 0,-13.41 0,-1.987 -1.435,0 0,-1.324 -3.778,0 0,-8.92 -3.351,0 0,18.411 -3.129,0 0,-15.555 -4.063,0 0,23.728 -1.025,0 0,-1.436 -1.667,0.08 0,-1.999 -0.099,0 0,-1.282 -1.546,0 0,-1.104 -0.496,0 0,-10.519 -5.602,0 0,9.636 -1.098,0 0,-9.636 -5.027,0 0,7.979 -1.578,0 0,3.273 -0.566,-0.331 -0.709,0.829 0,1.295 -0.708,0.143 0,7.075 -1.112,0 0,-22.418 -0.478,-0.479 0,-2.464 -0.961,-0.96 0,-5.642 -1.348,-1.295 0,-1.762 -0.207,-0.259 0,-1.45 -0.362,-0.312 0,-1.864 -0.518,-0.104 0,-1.864 -0.207,-0.156 0,-1.19 -0.311,-0.26 0,-1.088 -0.414,-0.88 -0.013,-8.398 0,0.155 -0.195,8.243 -0.259,0 0,1.552 -0.751,1.607 0,1.373 -0.803,0.803 0,1.761 -0.531,0 0,1.903 -0.375,0.376 0,1.528 -0.285,0.285 0,1.604 -0.306,0 0,5.505 -0.768,0 0,1.408 -0.896,0 0,23.758 -1.086,0 0,-1.276 -0.625,0 0,-11.761 -10.139,0 0,14.9 c -0.792,0.049 -1.564,0.043 -1.564,-0.163 l 0,2.233 -0.442,0.441 0,-7.397 -2.87,0 0,7.697 -1.435,0 0,-9.573 -6.735,0 0,13.088 -1.711,0 0,-6.741 -6.645,0 0,4.768 0,12.795 258.882,-0.165 c 0.05,-5.104 -3.846,-6.404 -3.846,-6.404"
         id="path151"
         transform="matrix(2.7607641,0,0,2.7607641,573.24231,-1102.1406)" />
    </g>
  </g>
</svg>
