<svg width="1920" height="1360" viewBox="0 0 1920 1360" fill="none" xmlns="http://www.w3.org/2000/svg">
    <g clip-path="url(#clip0)">
        <rect width="1920" height="1360" fill="white" />
        <g clip-path="url(#clip1)">
            <path d="M1954.59 629H236.242V1546.43H1954.59V629Z" fill="#F5F5F5" />
            <path
                d="M2233.81 1313.71L2243.13 1313.92V1302.42L2233.81 1302.76L2233.95 1293.59L2225.15 1293.42V1270.27L2219.62 1269.84L2219.18 1263.44L2204.47 1260.03L2205.04 1253.68L2213.21 1253.85L2213.42 1249.59L2218.96 1247.67L2220.24 1242.34L2225.36 1240.85L2221.31 1201.6C2221.31 1201.6 2240.07 1179.63 2239.42 1179.63C2238.78 1179.63 2228.12 1165.98 2228.12 1165.98L2217.68 1174.51L2206.17 1152.18H2195.94L2188.55 1142.3L2194.54 1135.7L2195.17 1125.67L2206.04 1124.17L2196.03 1121.19L2206.04 1115.22L2193.04 1114.79L2200.51 1106.04L2188.35 1112.23L2187.29 1101.15L2182.17 1111.59L2178.76 1111.38L2171.51 1105.41L2175.13 1115.86L2167.45 1114.8V1107.03L2165.63 1106.04L2164.9 1077.68L2160.1 1070.99L2160.21 1069.58L2168.95 1069.38V1061.47L2166.82 1058.7L2160.41 1058.27L2159.79 1055.97L2166.82 1055.08V1048.68L2164.47 1044.97L2164.26 1041.85L2161.7 1038.87L2165.36 1031.2V1025.64L2150.61 1044.97V1052.94L2153.17 1055.97L2153.81 1057.85H2151.25L2148.69 1061.26V1069.79L2152.53 1071.92L2152.56 1081.79H2157.45V1091.73L2149.56 1127.73V1142.04L2154.07 1145.8V1161.62L2157.9 1169.82L2154.07 1190.98V1199.27H2158.42L2159.16 1203.23L2158.6 1220.35H2161.98L2162.11 1239.21L2158.6 1252.73V1292.24L2151.25 1292.09V1302.56L2140.91 1302.44L2143.21 1315.08L2151.93 1315.03L2142.07 1333.48C2142.07 1333.48 2137.47 1300.14 2099.55 1279.45C2096.08 1277.55 2092.64 1275.97 2089.23 1274.55C2071.96 1253.29 2039.26 1257.23 2039.26 1257.23V1240.21L2032.4 1242.31C2030.37 1235.06 2026.66 1231.2 2023.36 1229.14V1110.04H1980.7V1197.83H1977.77V1234.67L1976.11 1236.34H1964.6V896.864L1910.5 896.191V1169.58C1905.16 1170.3 1900.39 1172.11 1896.47 1174.15V925.599L1856.73 885.839L1808.99 924.982L1809.59 1138.52C1802.43 1137.64 1796.11 1138.67 1790.75 1140.63V737.891L1764.06 737.583L1763.59 732.059L1784.42 732.221L1790.75 729.292V724.692L1785.68 720.547L1763.13 720.084L1759.45 564L1755.55 720.125H1731.84L1726.78 723.768L1727.24 729.292L1732.76 732.067H1755.55V736.488H1724.86V1123.63L1713.54 1113.92L1695.15 1134.62V1159.9H1689.41V1219.67H1683.66V1246.48H1671.36V1107.03H1658.38V1064.28H1633.44V1107.03H1630.19V1145.46H1591.25V1151.81C1585.95 1151.74 1582.57 1151.69 1582.57 1151.69V1153.84H1579.15V1125.57H1572.07V1112.25H1522.84V1177.52H1504.86V1230.03H1495.91V1220.51H1480.7V1214.24H1473.53V1205.29H1464.58V1230.03H1458.49V1184.04L1445.85 1107.03L1433.2 1184.04V1227.73L1428.86 1228.82V1090.51H1363.01V1118.41H1353.58V1174.3H1350.67L1345.9 1151.69L1339.76 1174.3H1323.15V1122.89H1310.61V1133.63H1274.81V1125.57H1257.81V1137.22H1245.26V1128.26H1231.84V1174.86C1225.26 1175.12 1217.91 1175.27 1216.08 1174.73C1217.1 1178.29 1215.66 1203.09 1215.66 1203.09H1205.74V1233.48H1197.69V1185.2L1188.51 1167.95L1179.3 1188.65V1223.14H1172.5V1096.27H1125.19V1116.62H1119.95V1160.24H1102.94V1098.7H1072.77V1049.23H1034.4V1073.64H997.306V1170.25H993.771V1209.92L990.292 1213.4V910.128H983.263V860.236H976.233V839.127H969.196V830.812H961.525V819.292L955.128 820.574V814.823L951.293 814.181C951.293 814.181 950.936 765.555 951.293 756.607C951.69 746.58 941.174 745.623 941.174 745.623V720.141H937.98V745.404C925.672 745.866 925.08 755.325 925.08 755.325V819.292H915.497V829.53H907.827V839.768L900.148 840.409V858.313L894.392 858.955V909.487H890.557V1163.84L884.646 1168.55V1173.73C884.297 1173.72 884.054 1173.71 884.054 1173.71V1188.28H875.744V1044.98H836.558V1199.03H834.88L816.491 1180.63V1055.72H804.856V1044.98H774.224V972.619H747.055V1121.98H721.685V995.788H688.742V1188.28H680.432V1176.63L666.916 1177.28V1161.06H666.113V1150.66H653.578V1141.71H649.557V1056.37H604.136V1134.54H595.234V1056.37H554.475V1121.1H541.681V1147.65L537.092 1144.97L531.343 1151.69V1162.2L525.603 1163.36V1220.76H516.587V1038.89L512.711 1035V1015.01L504.919 1007.23V961.456L493.99 950.95V936.656L492.312 934.555V922.792L489.377 920.26V905.139L485.177 904.295V889.173L483.498 887.908V878.254L480.977 876.145V867.318L477.62 860.18L477.515 792.051V793.308L475.934 860.18H473.834V872.77L467.745 885.807V896.945L461.234 903.459V917.745H456.929V933.184L453.888 936.234V948.63L451.577 950.942V963.955H449.096V1008.61H442.869V1020.04H435.605V1212.77H426.8V1202.42H421.732V1107.01H339.526V1227.89C333.104 1228.28 326.845 1228.24 326.845 1226.56V1244.68L323.261 1248.26V1188.25H299.992V1250.69H288.357V1173.03H233.75V1279.21H219.877V1224.52H166V1367L2265 1365.66C2265.4 1324.25 2233.81 1313.71 2233.81 1313.71Z"
                fill="#F03151" />
        </g>
        <rect width="1920" height="629" fill="#F5F5F5" />
        <path
            d="M0 0H1920V345C1680 444 1867.5 553 1675.5 589C1483.5 625 1694 785.5 1408.5 805.5C1123 825.5 1297.79 1063.5 1120 1098C942.212 1132.5 914 1360 914 1360H0V0Z"
            fill="#16141A" />
    </g>
    <defs>
        <clipPath id="clip0">
            <rect width="1920" height="1360" fill="white" />
        </clipPath>
        <clipPath id="clip1">
            <rect width="1267" height="1792" fill="white" transform="translate(674 330)" />
        </clipPath>
    </defs>
</svg>