<svg width="1920" height="1360" viewBox="0 0 1920 1360" fill="none" xmlns="http://www.w3.org/2000/svg">
<g clip-path="url(#clip0)">
<rect width="1920" height="1360" fill="white"/>
<rect width="1920" height="629" fill="white"/>
<path d="M1997 554H-550.867V1638.9H1997V554Z" fill="white"/>
<path d="M1910.78 1379.32L1921.62 1379.52V1368.86L1910.78 1369.17L1910.94 1360.66L1900.7 1360.5V1339.03L1894.26 1338.63L1893.75 1332.7L1876.64 1329.53L1877.3 1323.64L1886.81 1323.8L1887.05 1319.84L1893.5 1318.07L1894.99 1313.12L1900.95 1311.74L1896.23 1275.33C1896.23 1275.33 1918.07 1254.94 1917.31 1254.94C1916.57 1254.94 1904.16 1242.28 1904.16 1242.28L1892.01 1250.2L1878.62 1229.48H1866.71L1858.11 1220.32L1865.08 1214.19L1865.81 1204.89L1878.47 1203.5L1866.81 1200.74L1878.47 1195.2L1863.33 1194.8L1872.02 1186.69L1857.88 1192.43L1856.64 1182.14L1850.69 1191.83L1846.72 1191.64L1838.28 1186.1L1842.49 1195.79L1833.55 1194.81V1187.6L1831.43 1186.69L1830.58 1160.38L1824.99 1154.17L1825.13 1152.86L1835.3 1152.67V1145.34L1832.82 1142.77L1825.36 1142.37L1824.64 1140.23L1832.82 1139.41V1133.47L1830.09 1130.03L1829.84 1127.14L1826.86 1124.38L1831.12 1117.26V1112.1L1813.96 1130.03V1137.42L1816.94 1140.23L1817.68 1141.98H1814.7L1811.72 1145.15V1153.05L1816.19 1155.03L1816.23 1164.19H1821.92V1173.4L1812.73 1206.8V1220.08L1817.98 1223.57V1238.24L1822.44 1245.84L1817.98 1265.48V1273.16H1823.04L1823.9 1276.84L1823.25 1292.72H1827.19L1827.34 1310.22L1823.25 1322.76V1359.41L1814.7 1359.27V1368.98L1802.67 1368.87L1805.34 1380.6L1815.49 1380.55L1804.02 1397.66C1804.02 1397.66 1798.66 1366.73 1754.54 1347.54C1750.49 1345.78 1746.49 1344.32 1742.53 1343C1722.43 1323.28 1684.37 1326.93 1684.37 1326.93V1311.14L1676.4 1313.09C1674.03 1306.36 1669.71 1302.79 1665.88 1300.88V1190.39H1616.23V1271.83H1612.82V1306L1610.89 1307.55H1597.49V992.641L1534.53 992.016V1245.63C1528.32 1246.29 1522.77 1247.97 1518.21 1249.86V1019.3L1471.96 982.414L1416.4 1018.72L1417.1 1216.81C1408.77 1216 1401.42 1216.95 1395.17 1218.77V845.171L1364.11 844.885L1363.56 839.76L1387.81 839.91L1395.17 837.194V832.926L1389.28 829.081L1363.04 828.652L1358.75 683.861L1354.21 828.69H1326.62L1320.73 832.069L1321.26 837.194L1327.69 839.767H1354.21V843.869H1318.5V1203L1305.32 1193.99L1283.93 1213.19V1236.65H1277.24V1292.09H1270.55V1316.96H1256.24V1187.6H1241.13V1147.95H1212.11V1187.6H1208.32V1223.25H1163.01V1229.14C1156.84 1229.08 1152.91 1229.03 1152.91 1229.03V1231.02H1148.94V1204.8H1140.69V1192.44H1083.4V1252.99H1062.48V1301.7H1052.06V1292.87H1034.36V1287.05H1026.02V1278.75H1015.6V1301.7H1008.52V1259.04L993.807 1187.6L979.088 1259.04V1299.57L974.03 1300.58V1172.28H897.405V1198.16H886.432V1250.01H883.044L877.487 1229.03L870.344 1250.01H851.011V1202.31H836.424V1212.27H794.757V1204.8H774.971V1215.61H760.374V1207.3H744.758V1250.52C737.097 1250.76 728.539 1250.9 726.416 1250.41C727.595 1253.71 725.925 1276.71 725.925 1276.71H714.376V1304.9H705.007V1260.11L694.326 1244.11L683.617 1263.31V1295.31H675.7V1177.62H620.644V1196.49H614.54V1236.96H594.744V1179.88H559.635V1133.98H514.986V1156.62H471.819V1246.24H467.705V1283.04L463.657 1286.27V1004.95H455.477V958.663H447.296V939.082H439.106V931.368H430.18V920.682L422.736 921.871V916.535L418.273 915.941C418.273 915.941 417.858 870.833 418.273 862.532C418.735 853.23 406.497 852.342 406.497 852.342V828.705H402.78V852.139C388.457 852.568 387.768 861.343 387.768 861.343V920.682H376.615V930.179H367.689V939.676L358.754 940.271V956.879L352.055 957.474V1004.35H347.592V1240.3L340.713 1244.67V1249.47C340.308 1249.46 340.025 1249.46 340.025 1249.46V1262.97H330.353V1130.04H284.752V1272.94H282.799L261.399 1255.88V1154.96V1140.01H247.859V1130.04H212.212V1062.91H180.594V1201.47H151.07V1084.41H112.734V1262.97H103.063V1252.17L87.3339 1252.77V1237.72H86.3998V1228.08H71.8126V1219.77H67.1326V1140.61H14.2752V1213.12H3.91512V1140.61H-43.5169V1200.65H-58.4061V1225.29L-63.7465 1222.79L-70.4363 1229.03V1238.78L-77.1166 1239.85V1293.1H-87.6088V1124.39L-92.1189 1120.79V1102.24L-101.186 1095.02V1052.56L-113.905 1042.81V1029.55L-115.858 1027.6V1016.69L-119.274 1014.34V1000.32L-124.162 999.534V985.507L-126.115 984.333V975.377L-129.049 973.421V965.233L-132.956 958.611L-133.078 895.411V896.577L-134.918 958.611H-137.362V970.29L-144.448 982.384V992.716L-152.025 998.759V1012.01H-157.035V1026.33L-160.573 1029.16V1040.66L-163.262 1042.81V1054.88H-166.149V1096.31H-173.396V1106.9H-181.85V1285.69H-192.097V1276.09H-197.994V1187.58H-293.66V1299.71C-301.133 1300.08 -308.417 1300.04 -308.417 1298.49V1315.29L-312.588 1318.61V1262.94H-339.667V1320.87H-353.207V1248.82H-416.755V1347.32H-432.899V1296.59H-495.598V1332.47V1428.76L1947.07 1427.52C1947.54 1389.11 1910.78 1379.32 1910.78 1379.32" fill="#F03151"/>
<path d="M0 0H1920V1184L1364 728L-14 1106.5L0 0Z" fill="#16141A"/>
</g>
<defs>
<clipPath id="clip0">
<rect width="1920" height="1360" fill="white"/>
</clipPath>
</defs>
</svg>
