<svg width="1920" height="1360" viewBox="0 0 1920 1360" fill="none" xmlns="http://www.w3.org/2000/svg">
    <g clip-path="url(#clip0)">
        <rect width="1920" height="1360" fill="white" />
        <rect width="1920" height="629" fill="white" />
        <path d="M3367.63 326H962.758V1609.9H3367.63V326Z" fill="white" />
        <path
            d="M3286.25 1302.71L3296.49 1302.94V1290.32L3286.25 1290.7L3286.4 1280.63L3276.73 1280.44V1255.02L3270.66 1254.56L3270.18 1247.53L3254.02 1243.78L3254.65 1236.82L3263.62 1237L3263.85 1232.32L3269.94 1230.22L3271.34 1224.36L3276.97 1222.73L3272.52 1179.64C3272.52 1179.64 3293.13 1155.51 3292.42 1155.51C3291.71 1155.51 3280 1140.53 3280 1140.53L3268.53 1149.9L3255.89 1125.39H3244.65L3236.54 1114.54L3243.11 1107.29L3243.81 1096.28L3255.75 1094.63L3244.75 1091.37L3255.75 1084.81L3241.47 1084.34L3249.67 1074.74L3236.32 1081.53L3235.15 1069.36L3229.53 1080.83L3225.78 1080.6L3217.82 1074.04L3221.79 1085.51L3213.36 1084.35V1075.82L3211.35 1074.74L3210.55 1043.6L3205.28 1036.26L3205.4 1034.71L3215.01 1034.48V1025.81L3212.66 1022.76L3205.63 1022.29L3204.94 1019.76L3212.66 1018.79V1011.76L3210.09 1007.69L3209.85 1004.27L3207.04 1001L3211.06 992.572V986.472L3194.86 1007.69V1016.44L3197.67 1019.76L3198.38 1021.83H3195.56L3192.75 1025.58V1034.94L3196.97 1037.28L3197.01 1048.11H3202.38V1059.02L3193.7 1098.54V1114.25L3198.66 1118.39V1135.75L3202.87 1144.75L3198.66 1167.98V1177.08H3203.44L3204.25 1181.43L3203.63 1200.22H3207.36L3207.5 1220.93L3203.63 1235.77V1279.15L3195.56 1278.98V1290.47L3184.21 1290.34L3186.73 1304.22L3196.31 1304.16L3185.48 1324.42C3185.48 1324.42 3180.42 1287.81 3138.78 1265.1C3134.96 1263.02 3131.18 1261.28 3127.44 1259.72C3108.47 1236.38 3072.55 1240.71 3072.55 1240.71V1222.02L3065.02 1224.33C3062.79 1216.37 3058.71 1212.14 3055.09 1209.88V1079.12H3008.23V1175.5H3005.01V1215.94L3003.19 1217.78H2990.54V845.099L2931.12 844.36V1144.49C2925.25 1145.27 2920.02 1147.27 2915.71 1149.5V876.644L2872.06 832.996L2819.62 875.967L2820.28 1110.39C2812.41 1109.43 2805.48 1110.56 2799.58 1112.7V670.579L2770.26 670.241L2769.75 664.176L2792.63 664.354L2799.58 661.139V656.089L2794.01 651.538L2769.25 651.03L2765.2 479.681L2760.92 651.075H2734.88L2729.31 655.074L2729.82 661.139L2735.89 664.184H2760.92V669.039H2727.21V1094.05L2714.77 1083.39L2694.58 1106.1V1133.86H2688.27V1199.47H2681.95V1228.91H2668.44V1075.82H2654.18V1028.89H2626.79V1075.82H2623.22V1118.01H2580.45V1124.98C2574.63 1124.91 2570.91 1124.84 2570.91 1124.84V1127.2H2567.16V1096.17H2559.38V1081.55H2505.3V1153.2H2485.56V1210.85H2475.73V1200.4H2459.02V1193.52H2451.15V1183.68H2441.31V1210.85H2434.63V1160.36L2420.74 1075.82L2406.85 1160.36V1208.33L2402.07 1209.52V1057.68H2329.75V1088.31H2319.39V1149.67H2316.19L2310.95 1124.85L2304.21 1149.67H2285.96V1093.23H2272.19V1105.02H2232.86V1096.17H2214.19V1108.96H2200.41V1099.13H2185.67V1150.28C2178.44 1150.56 2170.36 1150.73 2168.36 1150.14C2169.47 1154.05 2167.89 1181.27 2167.89 1181.27H2156.99V1214.63H2148.15V1161.63L2138.07 1142.7L2127.96 1165.42V1203.29H2120.49V1064.01H2068.52V1086.34H2062.76V1134.23H2044.07V1066.68H2010.94V1012.36H1968.79V1039.16H1928.05V1145.22H1924.17V1188.77L1920.34 1192.59V859.661H1912.62V804.889H1904.9V781.716H1897.17V772.587H1888.75V759.941L1881.72 761.348V755.034L1877.51 754.33C1877.51 754.33 1877.12 700.948 1877.51 691.125C1877.94 680.117 1866.39 679.066 1866.39 679.066V651.093H1862.88V678.826C1849.36 679.334 1848.71 689.718 1848.71 689.718V759.941H1838.19V771.18H1829.76V782.419L1821.33 783.123V802.778L1815.01 803.482V858.957H1810.79V1138.18L1804.3 1143.36V1149.04C1803.92 1149.03 1803.65 1149.02 1803.65 1149.02V1165.02H1794.52V1007.7H1751.48V1176.82H1749.64L1729.44 1156.62V1037.19V1019.49H1716.66V1007.7H1683.01V928.263H1653.17V1092.23H1625.3V953.698H1589.12V1165.02H1579.99V1152.23L1565.14 1152.94V1135.14H1564.26V1123.72H1550.49V1113.89H1546.07V1020.21H1496.18V1106.02H1486.4V1020.21H1441.63V1091.27H1427.58V1120.42L1422.54 1117.47L1416.23 1124.85V1136.38L1409.92 1137.66V1200.67H1400.02V1001.02L1395.76 996.749V974.805L1387.2 966.255V916.008L1375.2 904.475V888.783L1373.35 886.476V873.562L1370.13 870.784V854.183L1365.52 853.257V836.656L1363.67 835.267V824.669L1360.9 822.353V812.664L1357.22 804.827L1357.1 730.035V731.415L1355.36 804.827H1353.06V818.649L1346.37 832.961V845.188L1339.22 852.34V868.023H1334.49V884.971L1331.15 888.32V901.928L1328.61 904.466V918.751H1325.88V967.778H1319.04V980.318H1311.07V1191.9H1301.39V1180.54H1295.83V1075.8H1205.53V1208.5C1198.48 1208.93 1191.6 1208.88 1191.6 1207.04V1226.93L1187.66 1230.86V1164.98H1162.1V1233.53H1149.32V1148.27H1089.34V1264.83H1074.11V1204.8H1014.93V1247.26V1361.21L3320.51 1359.74C3320.95 1314.29 3286.25 1302.71 3286.25 1302.71"
            fill="#F03151" />
        <path d="M0 0H1920V508L1227 855.5L1289.5 1360H0V0Z" fill="#16141A" />
    </g>
    <defs>
        <clipPath id="clip0">
            <rect width="1920" height="1360" fill="white" />
        </clipPath>
    </defs>
</svg>