<svg width="1920" height="1360" viewBox="0 0 1920 1360" fill="none" xmlns="http://www.w3.org/2000/svg">
<g clip-path="url(#clip0)">
<rect width="1920" height="1360" fill="white"/>
<path d="M1920 0H0V1360H943H1920V508V0Z" fill="#16141A"/>
<path d="M2093 525H-45.1797V1415H2093V525Z" fill="#16141A"/>
<path d="M2020.65 1202.05L2029.75 1202.22V1193.47L2020.65 1193.73L2020.78 1186.74L2012.18 1186.61V1169L2006.78 1168.67L2006.35 1163.8L1991.99 1161.2L1992.55 1156.38L2000.53 1156.51L2000.73 1153.26L2006.14 1151.8L2007.39 1147.74L2012.4 1146.61L2008.44 1116.74C2008.44 1116.74 2026.76 1100.02 2026.13 1100.02C2025.5 1100.02 2015.09 1089.63 2015.09 1089.63L2004.89 1096.13L1993.65 1079.13H1983.66L1976.45 1071.61L1982.29 1066.59L1982.91 1058.96L1993.53 1057.82L1983.75 1055.55L1993.53 1051.01L1980.83 1050.68L1988.12 1044.02L1976.25 1048.73L1975.21 1040.3L1970.22 1048.25L1966.88 1048.09L1959.8 1043.54L1963.33 1051.49L1955.84 1050.69V1044.77L1954.05 1044.02L1953.34 1022.44L1948.65 1017.35L1948.76 1016.27L1957.3 1016.12V1010.11L1955.22 1007.99L1948.96 1007.67L1948.35 1005.91L1955.22 1005.24V1000.37L1952.93 997.549L1952.72 995.172L1950.22 992.907L1953.79 987.067V982.838L1939.39 997.549V1003.61L1941.89 1005.91L1942.52 1007.35H1940.02L1937.51 1009.95V1016.43L1941.27 1018.06L1941.3 1025.56H1946.07V1033.13L1938.36 1060.53V1071.42L1942.77 1074.28V1086.32L1946.51 1092.55L1942.77 1108.66V1114.96H1947.02L1947.74 1117.98L1947.19 1131.01H1950.5L1950.63 1145.36L1947.19 1155.65V1185.72L1940.02 1185.6V1193.57L1929.92 1193.48L1932.16 1203.1L1940.68 1203.06L1931.05 1217.1C1931.05 1217.1 1926.55 1191.73 1889.53 1175.98C1886.13 1174.54 1882.77 1173.34 1879.45 1172.25C1862.58 1156.07 1830.64 1159.07 1830.64 1159.07V1146.12L1823.95 1147.72C1821.96 1142.2 1818.34 1139.27 1815.12 1137.7V1047.06H1773.45V1113.87H1770.6V1141.91L1768.97 1143.18H1757.73V884.838L1704.9 884.326V1092.38C1699.68 1092.92 1695.02 1094.3 1691.2 1095.85V906.705L1652.38 876.449L1605.76 906.236L1606.35 1068.74C1599.36 1068.07 1593.19 1068.85 1587.95 1070.34V763.861L1561.88 763.627L1561.42 759.423L1581.77 759.546L1587.95 757.317V753.817L1583 750.662L1560.98 750.31L1557.38 631.531L1553.57 750.341H1530.42L1525.47 753.113L1525.92 757.317L1531.31 759.429H1553.57V762.793H1523.6V1057.41L1512.54 1050.02L1494.59 1065.77V1085.01H1488.97V1130.49H1483.36V1150.89H1471.35V1044.77H1458.67V1012.24H1434.32V1044.77H1431.14V1074.02H1393.12V1078.85C1387.94 1078.8 1384.64 1078.76 1384.64 1078.76V1080.39H1381.3V1058.88H1374.38V1048.75H1326.3V1098.41H1308.75V1138.37H1300.01V1131.13H1285.15V1126.36H1278.15V1119.54H1269.41V1138.37H1263.46V1103.38L1251.12 1044.77L1238.77 1103.38V1136.63L1234.52 1137.45V1032.2H1170.22V1053.43H1161.01V1095.97H1158.17L1153.5 1078.76L1147.51 1095.97H1131.28V1056.84H1119.04V1065.01H1084.07V1058.88H1067.47V1067.75H1055.22V1060.93H1042.12V1096.39C1035.69 1096.59 1028.5 1096.7 1026.72 1096.3C1027.71 1099.01 1026.31 1117.87 1026.31 1117.87H1016.62V1141H1008.76V1104.26L999.792 1091.13L990.805 1106.88V1133.13H984.161V1036.58H937.958V1052.07H932.835V1085.26H916.223V1038.44H886.759V1000.78H849.289V1019.36H813.063V1092.88H809.611V1123.07L806.214 1125.72V894.932H799.349V856.965H792.484V840.901H785.611V834.573H778.12V825.807L771.873 826.782V822.405L768.127 821.917C768.127 821.917 767.779 784.913 768.127 778.104C768.515 770.473 758.245 769.745 758.245 769.745V750.354H755.125V769.578C743.105 769.93 742.527 777.128 742.527 777.128V825.807H733.168V833.598H725.677V841.389L718.179 841.877V855.502L712.557 855.99V894.445H708.811V1088L703.039 1091.59V1095.53C702.698 1095.52 702.461 1095.52 702.461 1095.52V1106.61H694.345V997.555H656.076V1114.79H654.437L636.478 1100.78V1018V1005.73H625.115V997.555H595.2V942.487H568.666V1056.15H543.89V960.119H511.718V1106.61H503.602V1097.74L490.402 1098.23V1085.89H489.618V1077.98H477.376V1071.16H473.449V1006.22H429.091V1065.71H420.396V1006.22H380.591V1055.48H368.096V1075.69L363.614 1073.64L358 1078.76V1086.76L352.394 1087.64V1131.32H343.589V992.919L339.804 989.962V974.75L332.195 968.824V933.992L321.521 925.998V915.12L319.882 913.521V904.569L317.015 902.643V891.136L312.914 890.494V878.986L311.275 878.023V870.676L308.812 869.071V862.354L305.534 856.922L305.431 805.076V806.033L303.887 856.922H301.836V866.503L295.889 876.424V884.9L289.531 889.857V900.729H285.327V912.477L282.357 914.799V924.232L280.1 925.991V935.894H277.677V969.879H271.596V978.572H264.501V1125.24H255.902V1117.37H250.953V1044.76H170.67V1136.74C164.399 1137.05 158.286 1137.01 158.286 1135.74V1149.52L154.786 1152.25V1106.58H132.06V1154.1H120.698V1095H67.3682V1175.8H53.8201V1134.18H1.20312V1163.62V1242.61L2051.1 1241.59C2051.5 1210.08 2020.65 1202.05 2020.65 1202.05" fill="#F03151"/>
<rect x="1" y="1219" width="1919" height="141" fill="#F03151"/>
</g>
<defs>
<clipPath id="clip0">
<rect width="1920" height="1360" fill="white"/>
</clipPath>
</defs>
</svg>
