<svg width="270" height="139" viewBox="0 0 270 139" fill="none" xmlns="http://www.w3.org/2000/svg">
<rect x="1.5" y="72.3663" width="267" height="65.1337" stroke="#EC1C24" stroke-width="3"/>
<rect x="-1.5" y="1.5" width="50" height="7" transform="matrix(-1 0 0 1 158 53)" stroke="#EC1C24" stroke-width="3"/>
<path d="M111.071 55.4813L97.7212 30.4304L121.146 45.3191L135.252 11.524L149.106 45.3191L172.279 30.4304L159.433 55.4813" stroke="#EC1C24" stroke-width="3"/>
<path d="M95.634 23.762C95.634 25.4772 94.1261 27.0241 92.067 27.0241C90.0079 27.0241 88.5 25.4772 88.5 23.762C88.5 22.0468 90.0079 20.5 92.067 20.5C94.1261 20.5 95.634 22.0468 95.634 23.762Z" stroke="#EC1C24" stroke-width="3"/>
<path d="M138.634 4.76203C138.634 6.47724 137.126 8.02406 135.067 8.02406C133.008 8.02406 131.5 6.47724 131.5 4.76203C131.5 3.04682 133.008 1.5 135.067 1.5C137.126 1.5 138.634 3.04682 138.634 4.76203Z" stroke="#EC1C24" stroke-width="3"/>
<path d="M182.634 23.762C182.634 25.4772 181.126 27.0241 179.067 27.0241C177.008 27.0241 175.5 25.4772 175.5 23.762C175.5 22.0468 177.008 20.5 179.067 20.5C181.126 20.5 182.634 22.0468 182.634 23.762Z" stroke="#EC1C24" stroke-width="3"/>
<path d="M47.7714 113.047V114.647H35.3964V97.1471H47.3964V98.7471H37.2464V104.972H46.2964V106.547H37.2464V113.047H47.7714ZM71.188 114.922L68.763 112.422C67.2797 114.005 65.3297 114.797 62.913 114.797C61.7797 114.797 60.763 114.614 59.863 114.247C58.9797 113.864 58.288 113.339 57.788 112.672C57.288 111.989 57.038 111.214 57.038 110.347C57.038 109.297 57.3713 108.355 58.038 107.522C58.7047 106.689 59.838 105.814 61.438 104.897C60.6047 104.03 60.0297 103.297 59.713 102.697C59.3963 102.08 59.238 101.43 59.238 100.747C59.238 99.6304 59.638 98.7304 60.438 98.0471C61.238 97.3638 62.313 97.0221 63.663 97.0221C64.913 97.0221 65.9047 97.3304 66.638 97.9471C67.3713 98.5638 67.738 99.4138 67.738 100.497C67.738 101.364 67.4463 102.147 66.863 102.847C66.2797 103.53 65.2713 104.289 63.838 105.122L68.638 110.072C69.1713 109.122 69.563 107.997 69.813 106.697L71.263 107.147C70.9463 108.714 70.4297 110.055 69.713 111.172L72.213 113.747L71.188 114.922ZM63.663 98.3471C62.7963 98.3471 62.113 98.5638 61.613 98.9971C61.1297 99.4304 60.888 100.005 60.888 100.722C60.888 101.239 61.0213 101.73 61.288 102.197C61.5547 102.664 62.0797 103.297 62.863 104.097C64.1297 103.364 65.0047 102.739 65.488 102.222C65.9713 101.705 66.213 101.139 66.213 100.522C66.213 99.8554 65.988 99.3304 65.538 98.9471C65.088 98.5471 64.463 98.3471 63.663 98.3471ZM63.013 113.322C64.9463 113.322 66.513 112.664 67.713 111.347L62.438 105.922C61.0547 106.705 60.0963 107.414 59.563 108.047C59.0463 108.68 58.788 109.389 58.788 110.172C58.788 111.122 59.1713 111.889 59.938 112.472C60.7213 113.039 61.7463 113.322 63.013 113.322ZM86.7546 114.797C85.4546 114.797 84.2046 114.589 83.0046 114.172C81.8213 113.755 80.9046 113.205 80.2546 112.522L80.9796 111.097C81.6129 111.73 82.4546 112.247 83.5046 112.647C84.5546 113.03 85.6379 113.222 86.7546 113.222C88.3213 113.222 89.4963 112.939 90.2796 112.372C91.0629 111.789 91.4546 111.039 91.4546 110.122C91.4546 109.422 91.2379 108.864 90.8046 108.447C90.3879 108.03 89.8713 107.714 89.2546 107.497C88.6379 107.264 87.7796 107.014 86.6796 106.747C85.3629 106.414 84.3129 106.097 83.5296 105.797C82.7463 105.48 82.0713 105.005 81.5046 104.372C80.9546 103.739 80.6796 102.88 80.6796 101.797C80.6796 100.914 80.9129 100.114 81.3796 99.3971C81.8463 98.6638 82.5629 98.0804 83.5296 97.6471C84.4963 97.2138 85.6963 96.9971 87.1296 96.9971C88.1296 96.9971 89.1046 97.1388 90.0546 97.4221C91.0213 97.6888 91.8546 98.0638 92.5546 98.5471L91.9296 100.022C91.1963 99.5388 90.4129 99.1804 89.5796 98.9471C88.7463 98.6971 87.9296 98.5721 87.1296 98.5721C85.5963 98.5721 84.4379 98.8721 83.6546 99.4721C82.8879 100.055 82.5046 100.814 82.5046 101.747C82.5046 102.447 82.7129 103.014 83.1296 103.447C83.5629 103.864 84.0963 104.189 84.7296 104.422C85.3796 104.639 86.2463 104.88 87.3296 105.147C88.6129 105.464 89.6463 105.78 90.4296 106.097C91.2296 106.397 91.9046 106.864 92.4546 107.497C93.0046 108.114 93.2796 108.955 93.2796 110.022C93.2796 110.905 93.0379 111.714 92.5546 112.447C92.0879 113.164 91.3629 113.739 90.3796 114.172C89.3963 114.589 88.1879 114.797 86.7546 114.797ZM108.678 114.797C107.378 114.797 106.128 114.589 104.928 114.172C103.745 113.755 102.828 113.205 102.178 112.522L102.903 111.097C103.537 111.73 104.378 112.247 105.428 112.647C106.478 113.03 107.562 113.222 108.678 113.222C110.245 113.222 111.42 112.939 112.203 112.372C112.987 111.789 113.378 111.039 113.378 110.122C113.378 109.422 113.162 108.864 112.728 108.447C112.312 108.03 111.795 107.714 111.178 107.497C110.562 107.264 109.703 107.014 108.603 106.747C107.287 106.414 106.237 106.097 105.453 105.797C104.67 105.48 103.995 105.005 103.428 104.372C102.878 103.739 102.603 102.88 102.603 101.797C102.603 100.914 102.837 100.114 103.303 99.3971C103.77 98.6638 104.487 98.0804 105.453 97.6471C106.42 97.2138 107.62 96.9971 109.053 96.9971C110.053 96.9971 111.028 97.1388 111.978 97.4221C112.945 97.6888 113.778 98.0638 114.478 98.5471L113.853 100.022C113.12 99.5388 112.337 99.1804 111.503 98.9471C110.67 98.6971 109.853 98.5721 109.053 98.5721C107.52 98.5721 106.362 98.8721 105.578 99.4721C104.812 100.055 104.428 100.814 104.428 101.747C104.428 102.447 104.637 103.014 105.053 103.447C105.487 103.864 106.02 104.189 106.653 104.422C107.303 104.639 108.17 104.88 109.253 105.147C110.537 105.464 111.57 105.78 112.353 106.097C113.153 106.397 113.828 106.864 114.378 107.497C114.928 108.114 115.203 108.955 115.203 110.022C115.203 110.905 114.962 111.714 114.478 112.447C114.012 113.164 113.287 113.739 112.303 114.172C111.32 114.589 110.112 114.797 108.678 114.797ZM125.784 113.847C125.451 114.147 125.034 114.38 124.534 114.547C124.051 114.697 123.543 114.772 123.009 114.772C121.776 114.772 120.826 114.439 120.159 113.772C119.493 113.105 119.159 112.164 119.159 110.947V102.997H116.809V101.497H119.159V98.6221H120.934V101.497H124.934V102.997H120.934V110.847C120.934 111.63 121.126 112.23 121.509 112.647C121.909 113.047 122.476 113.247 123.209 113.247C123.576 113.247 123.926 113.189 124.259 113.072C124.609 112.955 124.909 112.789 125.159 112.572L125.784 113.847ZM130.716 104.072C131.132 103.189 131.749 102.522 132.566 102.072C133.399 101.622 134.424 101.397 135.641 101.397V103.122L135.216 103.097C133.832 103.097 132.749 103.522 131.966 104.372C131.182 105.222 130.791 106.414 130.791 107.947V114.647H129.016V101.497H130.716V104.072ZM150.182 108.622H139.182C139.282 109.989 139.807 111.097 140.757 111.947C141.707 112.78 142.907 113.197 144.357 113.197C145.174 113.197 145.924 113.055 146.607 112.772C147.291 112.472 147.882 112.039 148.382 111.472L149.382 112.622C148.799 113.322 148.066 113.855 147.182 114.222C146.316 114.589 145.357 114.772 144.307 114.772C142.957 114.772 141.757 114.489 140.707 113.922C139.674 113.339 138.866 112.539 138.282 111.522C137.699 110.505 137.407 109.355 137.407 108.072C137.407 106.789 137.682 105.639 138.232 104.622C138.799 103.605 139.566 102.814 140.532 102.247C141.516 101.68 142.616 101.397 143.832 101.397C145.049 101.397 146.141 101.68 147.107 102.247C148.074 102.814 148.832 103.605 149.382 104.622C149.932 105.622 150.207 106.772 150.207 108.072L150.182 108.622ZM143.832 102.922C142.566 102.922 141.499 103.33 140.632 104.147C139.782 104.947 139.299 105.997 139.182 107.297H148.507C148.391 105.997 147.899 104.947 147.032 104.147C146.182 103.33 145.116 102.922 143.832 102.922ZM165.27 108.622H154.27C154.37 109.989 154.895 111.097 155.845 111.947C156.795 112.78 157.995 113.197 159.445 113.197C160.262 113.197 161.012 113.055 161.695 112.772C162.379 112.472 162.97 112.039 163.47 111.472L164.47 112.622C163.887 113.322 163.154 113.855 162.27 114.222C161.404 114.589 160.445 114.772 159.395 114.772C158.045 114.772 156.845 114.489 155.795 113.922C154.762 113.339 153.954 112.539 153.37 111.522C152.787 110.505 152.495 109.355 152.495 108.072C152.495 106.789 152.77 105.639 153.32 104.622C153.887 103.605 154.654 102.814 155.62 102.247C156.604 101.68 157.704 101.397 158.92 101.397C160.137 101.397 161.229 101.68 162.195 102.247C163.162 102.814 163.92 103.605 164.47 104.622C165.02 105.622 165.295 106.772 165.295 108.072L165.27 108.622ZM158.92 102.922C157.654 102.922 156.587 103.33 155.72 104.147C154.87 104.947 154.387 105.997 154.27 107.297H163.595C163.479 105.997 162.987 104.947 162.12 104.147C161.27 103.33 160.204 102.922 158.92 102.922ZM175.833 113.847C175.5 114.147 175.083 114.38 174.583 114.547C174.1 114.697 173.591 114.772 173.058 114.772C171.825 114.772 170.875 114.439 170.208 113.772C169.541 113.105 169.208 112.164 169.208 110.947V102.997H166.858V101.497H169.208V98.6221H170.983V101.497H174.983V102.997H170.983V110.847C170.983 111.63 171.175 112.23 171.558 112.647C171.958 113.047 172.525 113.247 173.258 113.247C173.625 113.247 173.975 113.189 174.308 113.072C174.658 112.955 174.958 112.789 175.208 112.572L175.833 113.847ZM198.12 101.497L193.145 114.647H191.47L187.32 103.872L183.17 114.647H181.495L176.545 101.497H178.245L182.37 112.672L186.595 101.497H188.12L192.32 112.672L196.495 101.497H198.12ZM211.877 108.622H200.877C200.977 109.989 201.502 111.097 202.452 111.947C203.402 112.78 204.602 113.197 206.052 113.197C206.868 113.197 207.618 113.055 208.302 112.772C208.985 112.472 209.577 112.039 210.077 111.472L211.077 112.622C210.493 113.322 209.76 113.855 208.877 114.222C208.01 114.589 207.052 114.772 206.002 114.772C204.652 114.772 203.452 114.489 202.402 113.922C201.368 113.339 200.56 112.539 199.977 111.522C199.393 110.505 199.102 109.355 199.102 108.072C199.102 106.789 199.377 105.639 199.927 104.622C200.493 103.605 201.26 102.814 202.227 102.247C203.21 101.68 204.31 101.397 205.527 101.397C206.743 101.397 207.835 101.68 208.802 102.247C209.768 102.814 210.527 103.605 211.077 104.622C211.627 105.622 211.902 106.772 211.902 108.072L211.877 108.622ZM205.527 102.922C204.26 102.922 203.193 103.33 202.327 104.147C201.477 104.947 200.993 105.997 200.877 107.297H210.202C210.085 105.997 209.593 104.947 208.727 104.147C207.877 103.33 206.81 102.922 205.527 102.922ZM219.748 101.397C221.465 101.397 222.782 101.83 223.698 102.697C224.615 103.547 225.073 104.814 225.073 106.497V114.647H223.373V112.597C222.973 113.28 222.382 113.814 221.598 114.197C220.832 114.58 219.915 114.772 218.848 114.772C217.382 114.772 216.215 114.422 215.348 113.722C214.482 113.022 214.048 112.097 214.048 110.947C214.048 109.83 214.448 108.93 215.248 108.247C216.065 107.564 217.357 107.222 219.123 107.222H223.298V106.422C223.298 105.289 222.982 104.43 222.348 103.847C221.715 103.247 220.79 102.947 219.573 102.947C218.74 102.947 217.94 103.089 217.173 103.372C216.407 103.639 215.748 104.014 215.198 104.497L214.398 103.172C215.065 102.605 215.865 102.172 216.798 101.872C217.732 101.555 218.715 101.397 219.748 101.397ZM219.123 113.372C220.123 113.372 220.982 113.147 221.698 112.697C222.415 112.23 222.948 111.564 223.298 110.697V108.547H219.173C216.923 108.547 215.798 109.33 215.798 110.897C215.798 111.664 216.09 112.272 216.673 112.722C217.257 113.155 218.073 113.372 219.123 113.372ZM231.594 104.072C232.011 103.189 232.628 102.522 233.444 102.072C234.278 101.622 235.303 101.397 236.519 101.397V103.122L236.094 103.097C234.711 103.097 233.628 103.522 232.844 104.372C232.061 105.222 231.669 106.414 231.669 107.947V114.647H229.894V101.497H231.594V104.072Z" fill="#EC1C24"/>
<path d="M23.8875 59.877H91.9304" stroke="#EC1C24" stroke-width="3"/>
<path d="M178.793 59.877H246.836" stroke="#EC1C24" stroke-width="3"/>
</svg>
