<svg width="414" height="227" viewBox="0 0 414 227" fill="none" xmlns="http://www.w3.org/2000/svg">
<rect width="414" height="227" fill="#16141A"/>
<path d="M0 0H208V227H0V0Z" fill="#f03151"/>
<path d="M207.5 110.966H305V160.733H207.5" stroke="#f03151" stroke-width="3"/>
<path d="M207.5 106.534H227.443V100.994H207.5" stroke="#f03151" stroke-width="3"/>
<path d="M207.5 68.8636L218.58 91.0227L240.739 82.1591L226.335 102.102" stroke="#f03151" stroke-width="3"/>
<path d="M207.5 68.8636C209.948 68.8636 211.932 66.8794 211.932 64.4318C211.932 61.9842 209.948 60 207.5 60" stroke="#f03151" stroke-width="3"/>
<circle cx="245.17" cy="77.7273" r="2.93182" stroke="#f03151" stroke-width="3"/>
<path d="M207.5 110.966H110V160.733H207.5" stroke="#16141A" stroke-width="3"/>
<path d="M207.5 106.534H187.557V100.994H207.5" stroke="#16141A" stroke-width="3"/>
<path d="M207.5 68.8636L196.42 91.0227L174.261 82.1591L188.665 102.102" stroke="#16141A" stroke-width="3"/>
<path d="M207.5 68.8636C205.052 68.8636 203.068 66.8794 203.068 64.4318C203.068 61.9842 205.052 60 207.5 60" stroke="#16141A" stroke-width="3"/>
<circle r="2.93182" transform="matrix(-1 0 0 1 169.83 77.7273)" stroke="#16141A" stroke-width="3"/>
<path d="M236.307 106.534H285.057" stroke="#f03151" stroke-width="3"/>
<path d="M129.943 106.534H178.693" stroke="#16141A" stroke-width="3"/>
<path d="M153.925 142.79V144.198H143.035V128.798H153.595V130.206H144.663V135.684H152.627V137.07H144.663V142.79H153.925ZM166.625 144.363L165.17 142.863C164.28 143.813 163.11 144.288 161.66 144.288C160.98 144.288 160.37 144.178 159.83 143.958C159.3 143.728 158.885 143.413 158.585 143.013C158.285 142.603 158.135 142.138 158.135 141.618C158.135 140.988 158.335 140.423 158.735 139.923C159.135 139.423 159.815 138.898 160.775 138.348C160.275 137.828 159.93 137.388 159.74 137.028C159.55 136.658 159.455 136.268 159.455 135.858C159.455 135.188 159.695 134.648 160.175 134.238C160.655 133.828 161.3 133.623 162.11 133.623C162.86 133.623 163.455 133.808 163.895 134.178C164.335 134.548 164.555 135.058 164.555 135.708C164.555 136.228 164.38 136.698 164.03 137.118C163.68 137.528 163.075 137.983 162.215 138.483L165.095 141.453C165.415 140.883 165.65 140.208 165.8 139.428L166.67 139.698C166.48 140.638 166.17 141.443 165.74 142.113L167.24 143.658L166.625 144.363ZM162.11 134.418C161.59 134.418 161.18 134.548 160.88 134.808C160.59 135.068 160.445 135.413 160.445 135.843C160.445 136.153 160.525 136.448 160.685 136.728C160.845 137.008 161.16 137.388 161.63 137.868C162.39 137.428 162.915 137.053 163.205 136.743C163.495 136.433 163.64 136.093 163.64 135.723C163.64 135.323 163.505 135.008 163.235 134.778C162.965 134.538 162.59 134.418 162.11 134.418ZM161.72 143.403C162.88 143.403 163.82 143.008 164.54 142.218L161.375 138.963C160.545 139.433 159.97 139.858 159.65 140.238C159.34 140.618 159.185 141.043 159.185 141.513C159.185 142.083 159.415 142.543 159.875 142.893C160.345 143.233 160.96 143.403 161.72 143.403ZM176.345 144.33C175.201 144.33 174.101 144.146 173.045 143.78C172.004 143.413 171.197 142.929 170.625 142.328L171.263 141.074C171.82 141.631 172.561 142.086 173.485 142.438C174.409 142.775 175.362 142.944 176.345 142.944C177.724 142.944 178.758 142.694 179.447 142.196C180.136 141.682 180.481 141.022 180.481 140.216C180.481 139.6 180.29 139.108 179.909 138.742C179.542 138.375 179.088 138.096 178.545 137.906C178.002 137.7 177.247 137.48 176.279 137.246C175.12 136.952 174.196 136.674 173.507 136.41C172.818 136.131 172.224 135.713 171.725 135.156C171.241 134.598 170.999 133.843 170.999 132.89C170.999 132.112 171.204 131.408 171.615 130.778C172.026 130.132 172.656 129.619 173.507 129.238C174.358 128.856 175.414 128.666 176.675 128.666C177.555 128.666 178.413 128.79 179.249 129.04C180.1 129.274 180.833 129.604 181.449 130.03L180.899 131.328C180.254 130.902 179.564 130.587 178.831 130.382C178.098 130.162 177.379 130.052 176.675 130.052C175.326 130.052 174.306 130.316 173.617 130.844C172.942 131.357 172.605 132.024 172.605 132.846C172.605 133.462 172.788 133.96 173.155 134.342C173.536 134.708 174.006 134.994 174.563 135.2C175.135 135.39 175.898 135.603 176.851 135.838C177.98 136.116 178.89 136.395 179.579 136.674C180.283 136.938 180.877 137.348 181.361 137.906C181.845 138.448 182.087 139.189 182.087 140.128C182.087 140.905 181.874 141.616 181.449 142.262C181.038 142.892 180.4 143.398 179.535 143.78C178.67 144.146 177.606 144.33 176.345 144.33ZM189.581 144.282C188.853 144.282 188.153 144.165 187.481 143.932C186.818 143.698 186.305 143.39 185.941 143.008L186.347 142.21C186.702 142.564 187.173 142.854 187.761 143.078C188.349 143.292 188.956 143.4 189.581 143.4C190.458 143.4 191.116 143.241 191.555 142.924C191.994 142.597 192.213 142.177 192.213 141.664C192.213 141.272 192.092 140.959 191.849 140.726C191.616 140.492 191.326 140.315 190.981 140.194C190.636 140.063 190.155 139.923 189.539 139.774C188.802 139.587 188.214 139.41 187.775 139.242C187.336 139.064 186.958 138.798 186.641 138.444C186.333 138.089 186.179 137.608 186.179 137.002C186.179 136.507 186.31 136.059 186.571 135.658C186.832 135.247 187.234 134.92 187.775 134.678C188.316 134.435 188.988 134.314 189.791 134.314C190.351 134.314 190.897 134.393 191.429 134.552C191.97 134.701 192.437 134.911 192.829 135.182L192.479 136.008C192.068 135.737 191.63 135.536 191.163 135.406C190.696 135.266 190.239 135.196 189.791 135.196C188.932 135.196 188.284 135.364 187.845 135.7C187.416 136.026 187.201 136.451 187.201 136.974C187.201 137.366 187.318 137.683 187.551 137.926C187.794 138.159 188.092 138.341 188.447 138.472C188.811 138.593 189.296 138.728 189.903 138.878C190.622 139.055 191.2 139.232 191.639 139.41C192.087 139.578 192.465 139.839 192.773 140.194C193.081 140.539 193.235 141.01 193.235 141.608C193.235 142.102 193.1 142.555 192.829 142.966C192.568 143.367 192.162 143.689 191.611 143.932C191.06 144.165 190.384 144.282 189.581 144.282ZM200.56 143.75C200.374 143.918 200.14 144.048 199.86 144.142C199.59 144.226 199.305 144.268 199.006 144.268C198.316 144.268 197.784 144.081 197.41 143.708C197.037 143.334 196.85 142.807 196.85 142.126V137.674H195.534V136.834H196.85V135.224H197.844V136.834H200.084V137.674H197.844V142.07C197.844 142.508 197.952 142.844 198.166 143.078C198.39 143.302 198.708 143.414 199.118 143.414C199.324 143.414 199.52 143.381 199.706 143.316C199.902 143.25 200.07 143.157 200.21 143.036L200.56 143.75Z" fill="#16141A"/>
<path d="M204.722 138.276C204.955 137.781 205.3 137.408 205.758 137.156C206.224 136.904 206.798 136.778 207.48 136.778V137.744L207.242 137.73C206.467 137.73 205.86 137.968 205.422 138.444C204.983 138.92 204.764 139.587 204.764 140.446V144.198H203.77V136.834H204.722V138.276Z" fill="#1B1920"/>
<path d="M217.201 140.824H211.041C211.097 141.589 211.391 142.21 211.923 142.686C212.455 143.152 213.127 143.386 213.939 143.386C214.396 143.386 214.816 143.306 215.199 143.148C215.582 142.98 215.913 142.737 216.193 142.42L216.753 143.064C216.426 143.456 216.016 143.754 215.521 143.96C215.036 144.165 214.499 144.268 213.911 144.268C213.155 144.268 212.483 144.109 211.895 143.792C211.316 143.465 210.864 143.017 210.537 142.448C210.21 141.878 210.047 141.234 210.047 140.516C210.047 139.797 210.201 139.153 210.509 138.584C210.826 138.014 211.256 137.571 211.797 137.254C212.348 136.936 212.964 136.778 213.645 136.778C214.326 136.778 214.938 136.936 215.479 137.254C216.02 137.571 216.445 138.014 216.753 138.584C217.061 139.144 217.215 139.788 217.215 140.516L217.201 140.824ZM213.645 137.632C212.936 137.632 212.338 137.86 211.853 138.318C211.377 138.766 211.106 139.354 211.041 140.082H216.263C216.198 139.354 215.922 138.766 215.437 138.318C214.961 137.86 214.364 137.632 213.645 137.632ZM227.05 140.824H220.89C220.946 141.589 221.24 142.21 221.772 142.686C222.304 143.152 222.976 143.386 223.788 143.386C224.245 143.386 224.665 143.306 225.048 143.148C225.431 142.98 225.762 142.737 226.042 142.42L226.602 143.064C226.275 143.456 225.865 143.754 225.37 143.96C224.885 144.165 224.348 144.268 223.76 144.268C223.004 144.268 222.332 144.109 221.744 143.792C221.165 143.465 220.713 143.017 220.386 142.448C220.059 141.878 219.896 141.234 219.896 140.516C219.896 139.797 220.05 139.153 220.358 138.584C220.675 138.014 221.105 137.571 221.646 137.254C222.197 136.936 222.813 136.778 223.494 136.778C224.175 136.778 224.787 136.936 225.328 137.254C225.869 137.571 226.294 138.014 226.602 138.584C226.91 139.144 227.064 139.788 227.064 140.516L227.05 140.824ZM223.494 137.632C222.785 137.632 222.187 137.86 221.702 138.318C221.226 138.766 220.955 139.354 220.89 140.082H226.112C226.047 139.354 225.771 138.766 225.286 138.318C224.81 137.86 224.213 137.632 223.494 137.632ZM234.365 143.75C234.179 143.918 233.945 144.048 233.665 144.142C233.395 144.226 233.11 144.268 232.811 144.268C232.121 144.268 231.589 144.081 231.215 143.708C230.842 143.334 230.655 142.807 230.655 142.126V137.674H229.339V136.834H230.655V135.224H231.649V136.834H233.889V137.674H231.649V142.07C231.649 142.508 231.757 142.844 231.971 143.078C232.195 143.302 232.513 143.414 232.923 143.414C233.129 143.414 233.325 143.381 233.511 143.316C233.707 143.25 233.875 143.157 234.015 143.036L234.365 143.75ZM248.246 136.834L245.46 144.198H244.522L242.198 138.164L239.874 144.198H238.936L236.164 136.834H237.116L239.426 143.092L241.792 136.834H242.646L244.998 143.092L247.336 136.834H248.246ZM257.35 140.824H251.19C251.246 141.589 251.54 142.21 252.072 142.686C252.604 143.152 253.276 143.386 254.088 143.386C254.545 143.386 254.965 143.306 255.348 143.148C255.73 142.98 256.062 142.737 256.342 142.42L256.902 143.064C256.575 143.456 256.164 143.754 255.67 143.96C255.184 144.165 254.648 144.268 254.06 144.268C253.304 144.268 252.632 144.109 252.044 143.792C251.465 143.465 251.012 143.017 250.686 142.448C250.359 141.878 250.196 141.234 250.196 140.516C250.196 139.797 250.35 139.153 250.658 138.584C250.975 138.014 251.404 137.571 251.946 137.254C252.496 136.936 253.112 136.778 253.794 136.778C254.475 136.778 255.086 136.936 255.628 137.254C256.169 137.571 256.594 138.014 256.902 138.584C257.21 139.144 257.364 139.788 257.364 140.516L257.35 140.824ZM253.794 137.632C253.084 137.632 252.487 137.86 252.002 138.318C251.526 138.766 251.255 139.354 251.19 140.082H256.412C256.346 139.354 256.071 138.766 255.586 138.318C255.11 137.86 254.512 137.632 253.794 137.632ZM263.158 136.778C264.119 136.778 264.857 137.02 265.37 137.506C265.883 137.982 266.14 138.691 266.14 139.634V144.198H265.188V143.05C264.964 143.432 264.633 143.731 264.194 143.946C263.765 144.16 263.251 144.268 262.654 144.268C261.833 144.268 261.179 144.072 260.694 143.68C260.209 143.288 259.966 142.77 259.966 142.126C259.966 141.5 260.19 140.996 260.638 140.614C261.095 140.231 261.819 140.04 262.808 140.04H265.146V139.592C265.146 138.957 264.969 138.476 264.614 138.15C264.259 137.814 263.741 137.646 263.06 137.646C262.593 137.646 262.145 137.725 261.716 137.884C261.287 138.033 260.918 138.243 260.61 138.514L260.162 137.772C260.535 137.454 260.983 137.212 261.506 137.044C262.029 136.866 262.579 136.778 263.158 136.778ZM262.808 143.484C263.368 143.484 263.849 143.358 264.25 143.106C264.651 142.844 264.95 142.471 265.146 141.986V140.782H262.836C261.576 140.782 260.946 141.22 260.946 142.098C260.946 142.527 261.109 142.868 261.436 143.12C261.763 143.362 262.22 143.484 262.808 143.484ZM271.192 138.276C271.425 137.781 271.77 137.408 272.228 137.156C272.694 136.904 273.268 136.778 273.95 136.778V137.744L273.712 137.73C272.937 137.73 272.33 137.968 271.892 138.444C271.453 138.92 271.234 139.587 271.234 140.446V144.198H270.24V136.834H271.192V138.276Z" fill="#f03151"/>
</svg>
