<svg width="1152" height="349" viewBox="0 0 1152 349" fill="none" xmlns="http://www.w3.org/2000/svg">
<rect y="-1" width="1152" height="350" fill="#1B1920"/>
<rect x="442.5" y="176.366" width="267" height="65.1337" fill="#1B1920" stroke="#EC1C24" stroke-width="3"/>
<rect x="553.527" y="161.249" width="45.6702" height="5.25669" fill="#1B1920" stroke="#EC1C24" stroke-width="5"/>
<rect x="-1.5" y="1.5" width="47.6702" height="7.25669" transform="matrix(-1 0 0 1 598.697 158.749)" fill="#1B1920" stroke="#EC1C24" stroke-width="3"/>
<path d="M552.071 159.481L538.721 134.43L562.146 149.319L576.252 115.524L590.106 149.319L613.279 134.43L600.433 159.481" stroke="#EC1C24" stroke-width="3"/>
<path d="M536.634 127.762C536.634 129.477 535.126 131.024 533.067 131.024C531.008 131.024 529.5 129.477 529.5 127.762C529.5 126.047 531.008 124.5 533.067 124.5C535.126 124.5 536.634 126.047 536.634 127.762Z" fill="#1B1920" stroke="#EC1C24" stroke-width="3"/>
<path d="M579.929 110.762C579.929 112.477 578.421 114.024 576.362 114.024C574.303 114.024 572.795 112.477 572.795 110.762C572.795 109.047 574.303 107.5 576.362 107.5C578.421 107.5 579.929 109.047 579.929 110.762Z" fill="#1B1920" stroke="#EC1C24" stroke-width="3"/>
<path d="M623.634 127.762C623.634 129.477 622.126 131.024 620.067 131.024C618.008 131.024 616.5 129.477 616.5 127.762C616.5 126.047 618.008 124.5 620.067 124.5C622.126 124.5 623.634 126.047 623.634 127.762Z" fill="#1B1920" stroke="#EC1C24" stroke-width="3"/>
<path d="M488.771 217.047V218.647H476.396V201.147H488.396V202.747H478.246V208.972H487.296V210.547H478.246V217.047H488.771ZM512.188 218.922L509.763 216.422C508.28 218.005 506.33 218.797 503.913 218.797C502.78 218.797 501.763 218.614 500.863 218.247C499.98 217.864 499.288 217.339 498.788 216.672C498.288 215.989 498.038 215.214 498.038 214.347C498.038 213.297 498.371 212.355 499.038 211.522C499.705 210.689 500.838 209.814 502.438 208.897C501.605 208.03 501.03 207.297 500.713 206.697C500.396 206.08 500.238 205.43 500.238 204.747C500.238 203.63 500.638 202.73 501.438 202.047C502.238 201.364 503.313 201.022 504.663 201.022C505.913 201.022 506.905 201.33 507.638 201.947C508.371 202.564 508.738 203.414 508.738 204.497C508.738 205.364 508.446 206.147 507.863 206.847C507.28 207.53 506.271 208.289 504.838 209.122L509.638 214.072C510.171 213.122 510.563 211.997 510.813 210.697L512.263 211.147C511.946 212.714 511.43 214.055 510.713 215.172L513.213 217.747L512.188 218.922ZM504.663 202.347C503.796 202.347 503.113 202.564 502.613 202.997C502.13 203.43 501.888 204.005 501.888 204.722C501.888 205.239 502.021 205.73 502.288 206.197C502.555 206.664 503.08 207.297 503.863 208.097C505.13 207.364 506.005 206.739 506.488 206.222C506.971 205.705 507.213 205.139 507.213 204.522C507.213 203.855 506.988 203.33 506.538 202.947C506.088 202.547 505.463 202.347 504.663 202.347ZM504.013 217.322C505.946 217.322 507.513 216.664 508.713 215.347L503.438 209.922C502.055 210.705 501.096 211.414 500.563 212.047C500.046 212.68 499.788 213.389 499.788 214.172C499.788 215.122 500.171 215.889 500.938 216.472C501.721 217.039 502.746 217.322 504.013 217.322ZM527.755 218.797C526.455 218.797 525.205 218.589 524.005 218.172C522.821 217.755 521.905 217.205 521.255 216.522L521.98 215.097C522.613 215.73 523.455 216.247 524.505 216.647C525.555 217.03 526.638 217.222 527.755 217.222C529.321 217.222 530.496 216.939 531.28 216.372C532.063 215.789 532.455 215.039 532.455 214.122C532.455 213.422 532.238 212.864 531.805 212.447C531.388 212.03 530.871 211.714 530.255 211.497C529.638 211.264 528.78 211.014 527.68 210.747C526.363 210.414 525.313 210.097 524.53 209.797C523.746 209.48 523.071 209.005 522.505 208.372C521.955 207.739 521.68 206.88 521.68 205.797C521.68 204.914 521.913 204.114 522.38 203.397C522.846 202.664 523.563 202.08 524.53 201.647C525.496 201.214 526.696 200.997 528.13 200.997C529.13 200.997 530.105 201.139 531.055 201.422C532.021 201.689 532.855 202.064 533.555 202.547L532.93 204.022C532.196 203.539 531.413 203.18 530.58 202.947C529.746 202.697 528.93 202.572 528.13 202.572C526.596 202.572 525.438 202.872 524.655 203.472C523.888 204.055 523.505 204.814 523.505 205.747C523.505 206.447 523.713 207.014 524.13 207.447C524.563 207.864 525.096 208.189 525.73 208.422C526.38 208.639 527.246 208.88 528.33 209.147C529.613 209.464 530.646 209.78 531.43 210.097C532.23 210.397 532.905 210.864 533.455 211.497C534.005 212.114 534.28 212.955 534.28 214.022C534.28 214.905 534.038 215.714 533.555 216.447C533.088 217.164 532.363 217.739 531.38 218.172C530.396 218.589 529.188 218.797 527.755 218.797ZM549.678 218.797C548.378 218.797 547.128 218.589 545.928 218.172C544.745 217.755 543.828 217.205 543.178 216.522L543.903 215.097C544.537 215.73 545.378 216.247 546.428 216.647C547.478 217.03 548.562 217.222 549.678 217.222C551.245 217.222 552.42 216.939 553.203 216.372C553.987 215.789 554.378 215.039 554.378 214.122C554.378 213.422 554.162 212.864 553.728 212.447C553.312 212.03 552.795 211.714 552.178 211.497C551.562 211.264 550.703 211.014 549.603 210.747C548.287 210.414 547.237 210.097 546.453 209.797C545.67 209.48 544.995 209.005 544.428 208.372C543.878 207.739 543.603 206.88 543.603 205.797C543.603 204.914 543.837 204.114 544.303 203.397C544.77 202.664 545.487 202.08 546.453 201.647C547.42 201.214 548.62 200.997 550.053 200.997C551.053 200.997 552.028 201.139 552.978 201.422C553.945 201.689 554.778 202.064 555.478 202.547L554.853 204.022C554.12 203.539 553.337 203.18 552.503 202.947C551.67 202.697 550.853 202.572 550.053 202.572C548.52 202.572 547.362 202.872 546.578 203.472C545.812 204.055 545.428 204.814 545.428 205.747C545.428 206.447 545.637 207.014 546.053 207.447C546.487 207.864 547.02 208.189 547.653 208.422C548.303 208.639 549.17 208.88 550.253 209.147C551.537 209.464 552.57 209.78 553.353 210.097C554.153 210.397 554.828 210.864 555.378 211.497C555.928 212.114 556.203 212.955 556.203 214.022C556.203 214.905 555.962 215.714 555.478 216.447C555.012 217.164 554.287 217.739 553.303 218.172C552.32 218.589 551.112 218.797 549.678 218.797ZM566.784 217.847C566.451 218.147 566.034 218.38 565.534 218.547C565.051 218.697 564.543 218.772 564.009 218.772C562.776 218.772 561.826 218.439 561.159 217.772C560.493 217.105 560.159 216.164 560.159 214.947V206.997H557.809V205.497H560.159V202.622H561.934V205.497H565.934V206.997H561.934V214.847C561.934 215.63 562.126 216.23 562.509 216.647C562.909 217.047 563.476 217.247 564.209 217.247C564.576 217.247 564.926 217.189 565.259 217.072C565.609 216.955 565.909 216.789 566.159 216.572L566.784 217.847ZM571.716 208.072C572.132 207.189 572.749 206.522 573.566 206.072C574.399 205.622 575.424 205.397 576.641 205.397V207.122L576.216 207.097C574.832 207.097 573.749 207.522 572.966 208.372C572.182 209.222 571.791 210.414 571.791 211.947V218.647H570.016V205.497H571.716V208.072ZM591.182 212.622H580.182C580.282 213.989 580.807 215.097 581.757 215.947C582.707 216.78 583.907 217.197 585.357 217.197C586.174 217.197 586.924 217.055 587.607 216.772C588.291 216.472 588.882 216.039 589.382 215.472L590.382 216.622C589.799 217.322 589.066 217.855 588.182 218.222C587.316 218.589 586.357 218.772 585.307 218.772C583.957 218.772 582.757 218.489 581.707 217.922C580.674 217.339 579.866 216.539 579.282 215.522C578.699 214.505 578.407 213.355 578.407 212.072C578.407 210.789 578.682 209.639 579.232 208.622C579.799 207.605 580.566 206.814 581.532 206.247C582.516 205.68 583.616 205.397 584.832 205.397C586.049 205.397 587.141 205.68 588.107 206.247C589.074 206.814 589.832 207.605 590.382 208.622C590.932 209.622 591.207 210.772 591.207 212.072L591.182 212.622ZM584.832 206.922C583.566 206.922 582.499 207.33 581.632 208.147C580.782 208.947 580.299 209.997 580.182 211.297H589.507C589.391 209.997 588.899 208.947 588.032 208.147C587.182 207.33 586.116 206.922 584.832 206.922ZM606.27 212.622H595.27C595.37 213.989 595.895 215.097 596.845 215.947C597.795 216.78 598.995 217.197 600.445 217.197C601.262 217.197 602.012 217.055 602.695 216.772C603.379 216.472 603.97 216.039 604.47 215.472L605.47 216.622C604.887 217.322 604.154 217.855 603.27 218.222C602.404 218.589 601.445 218.772 600.395 218.772C599.045 218.772 597.845 218.489 596.795 217.922C595.762 217.339 594.954 216.539 594.37 215.522C593.787 214.505 593.495 213.355 593.495 212.072C593.495 210.789 593.77 209.639 594.32 208.622C594.887 207.605 595.654 206.814 596.62 206.247C597.604 205.68 598.704 205.397 599.92 205.397C601.137 205.397 602.229 205.68 603.195 206.247C604.162 206.814 604.92 207.605 605.47 208.622C606.02 209.622 606.295 210.772 606.295 212.072L606.27 212.622ZM599.92 206.922C598.654 206.922 597.587 207.33 596.72 208.147C595.87 208.947 595.387 209.997 595.27 211.297H604.595C604.479 209.997 603.987 208.947 603.12 208.147C602.27 207.33 601.204 206.922 599.92 206.922ZM616.833 217.847C616.5 218.147 616.083 218.38 615.583 218.547C615.1 218.697 614.591 218.772 614.058 218.772C612.825 218.772 611.875 218.439 611.208 217.772C610.541 217.105 610.208 216.164 610.208 214.947V206.997H607.858V205.497H610.208V202.622H611.983V205.497H615.983V206.997H611.983V214.847C611.983 215.63 612.175 216.23 612.558 216.647C612.958 217.047 613.525 217.247 614.258 217.247C614.625 217.247 614.975 217.189 615.308 217.072C615.658 216.955 615.958 216.789 616.208 216.572L616.833 217.847ZM639.12 205.497L634.145 218.647H632.47L628.32 207.872L624.17 218.647H622.495L617.545 205.497H619.245L623.37 216.672L627.595 205.497H629.12L633.32 216.672L637.495 205.497H639.12ZM652.877 212.622H641.877C641.977 213.989 642.502 215.097 643.452 215.947C644.402 216.78 645.602 217.197 647.052 217.197C647.868 217.197 648.618 217.055 649.302 216.772C649.985 216.472 650.577 216.039 651.077 215.472L652.077 216.622C651.493 217.322 650.76 217.855 649.877 218.222C649.01 218.589 648.052 218.772 647.002 218.772C645.652 218.772 644.452 218.489 643.402 217.922C642.368 217.339 641.56 216.539 640.977 215.522C640.393 214.505 640.102 213.355 640.102 212.072C640.102 210.789 640.377 209.639 640.927 208.622C641.493 207.605 642.26 206.814 643.227 206.247C644.21 205.68 645.31 205.397 646.527 205.397C647.743 205.397 648.835 205.68 649.802 206.247C650.768 206.814 651.527 207.605 652.077 208.622C652.627 209.622 652.902 210.772 652.902 212.072L652.877 212.622ZM646.527 206.922C645.26 206.922 644.193 207.33 643.327 208.147C642.477 208.947 641.993 209.997 641.877 211.297H651.202C651.085 209.997 650.593 208.947 649.727 208.147C648.877 207.33 647.81 206.922 646.527 206.922ZM660.748 205.397C662.465 205.397 663.782 205.83 664.698 206.697C665.615 207.547 666.073 208.814 666.073 210.497V218.647H664.373V216.597C663.973 217.28 663.382 217.814 662.598 218.197C661.832 218.58 660.915 218.772 659.848 218.772C658.382 218.772 657.215 218.422 656.348 217.722C655.482 217.022 655.048 216.097 655.048 214.947C655.048 213.83 655.448 212.93 656.248 212.247C657.065 211.564 658.357 211.222 660.123 211.222H664.298V210.422C664.298 209.289 663.982 208.43 663.348 207.847C662.715 207.247 661.79 206.947 660.573 206.947C659.74 206.947 658.94 207.089 658.173 207.372C657.407 207.639 656.748 208.014 656.198 208.497L655.398 207.172C656.065 206.605 656.865 206.172 657.798 205.872C658.732 205.555 659.715 205.397 660.748 205.397ZM660.123 217.372C661.123 217.372 661.982 217.147 662.698 216.697C663.415 216.23 663.948 215.564 664.298 214.697V212.547H660.173C657.923 212.547 656.798 213.33 656.798 214.897C656.798 215.664 657.09 216.272 657.673 216.722C658.257 217.155 659.073 217.372 660.123 217.372ZM672.594 208.072C673.011 207.189 673.628 206.522 674.444 206.072C675.278 205.622 676.303 205.397 677.519 205.397V207.122L677.094 207.097C675.711 207.097 674.628 207.522 673.844 208.372C673.061 209.222 672.669 210.414 672.669 211.947V218.647H670.894V205.497H672.594V208.072Z" fill="#EC1C24"/>
<path d="M464.887 163.877H532.93" stroke="#EC1C24" stroke-width="3"/>
<path d="M619.793 163.877H687.836" stroke="#EC1C24" stroke-width="3"/>
</svg>
