<svg width="414" height="227" viewBox="0 0 414 227" fill="none" xmlns="http://www.w3.org/2000/svg">
<rect width="414" height="227" fill="#1B1920"/>
<path d="M226.67 120.09C225.89 120.09 225.14 119.965 224.42 119.715C223.71 119.465 223.16 119.135 222.77 118.725L223.205 117.87C223.585 118.25 224.09 118.56 224.72 118.8C225.35 119.03 226 119.145 226.67 119.145C227.61 119.145 228.315 118.975 228.785 118.635C229.255 118.285 229.49 117.835 229.49 117.285C229.49 116.865 229.36 116.53 229.1 116.28C228.85 116.03 228.54 115.84 228.17 115.71C227.8 115.57 227.285 115.42 226.625 115.26C225.835 115.06 225.205 114.87 224.735 114.69C224.265 114.5 223.86 114.215 223.52 113.835C223.19 113.455 223.025 112.94 223.025 112.29C223.025 111.76 223.165 111.28 223.445 110.85C223.725 110.41 224.155 110.06 224.735 109.8C225.315 109.54 226.035 109.41 226.895 109.41C227.495 109.41 228.08 109.495 228.65 109.665C229.23 109.825 229.73 110.05 230.15 110.34L229.775 111.225C229.335 110.935 228.865 110.72 228.365 110.58C227.865 110.43 227.375 110.355 226.895 110.355C225.975 110.355 225.28 110.535 224.81 110.895C224.35 111.245 224.12 111.7 224.12 112.26C224.12 112.68 224.245 113.02 224.495 113.28C224.755 113.53 225.075 113.725 225.455 113.865C225.845 113.995 226.365 114.14 227.015 114.3C227.785 114.49 228.405 114.68 228.875 114.87C229.355 115.05 229.76 115.33 230.09 115.71C230.42 116.08 230.585 116.585 230.585 117.225C230.585 117.755 230.44 118.24 230.15 118.68C229.87 119.11 229.435 119.455 228.845 119.715C228.255 119.965 227.53 120.09 226.67 120.09ZM236.933 119.52C236.733 119.7 236.483 119.84 236.183 119.94C235.893 120.03 235.588 120.075 235.268 120.075C234.528 120.075 233.958 119.875 233.558 119.475C233.158 119.075 232.958 118.51 232.958 117.78V113.01H231.548V112.11H232.958V110.385H234.023V112.11H236.423V113.01H234.023V117.72C234.023 118.19 234.138 118.55 234.368 118.8C234.608 119.04 234.948 119.16 235.388 119.16C235.608 119.16 235.818 119.125 236.018 119.055C236.228 118.985 236.408 118.885 236.558 118.755L236.933 119.52ZM239.892 113.655C240.142 113.125 240.512 112.725 241.002 112.455C241.502 112.185 242.117 112.05 242.847 112.05V113.085L242.592 113.07C241.762 113.07 241.112 113.325 240.642 113.835C240.172 114.345 239.937 115.06 239.937 115.98V120H238.872V112.11H239.892V113.655ZM251.572 116.385H244.972C245.032 117.205 245.347 117.87 245.917 118.38C246.487 118.88 247.207 119.13 248.077 119.13C248.567 119.13 249.017 119.045 249.427 118.875C249.837 118.695 250.192 118.435 250.492 118.095L251.092 118.785C250.742 119.205 250.302 119.525 249.772 119.745C249.252 119.965 248.677 120.075 248.047 120.075C247.237 120.075 246.517 119.905 245.887 119.565C245.267 119.215 244.782 118.735 244.432 118.125C244.082 117.515 243.907 116.825 243.907 116.055C243.907 115.285 244.072 114.595 244.402 113.985C244.742 113.375 245.202 112.9 245.782 112.56C246.372 112.22 247.032 112.05 247.762 112.05C248.492 112.05 249.147 112.22 249.727 112.56C250.307 112.9 250.762 113.375 251.092 113.985C251.422 114.585 251.587 115.275 251.587 116.055L251.572 116.385ZM247.762 112.965C247.002 112.965 246.362 113.21 245.842 113.7C245.332 114.18 245.042 114.81 244.972 115.59H250.567C250.497 114.81 250.202 114.18 249.682 113.7C249.172 113.21 248.532 112.965 247.762 112.965ZM260.625 116.385H254.025C254.085 117.205 254.4 117.87 254.97 118.38C255.54 118.88 256.26 119.13 257.13 119.13C257.62 119.13 258.07 119.045 258.48 118.875C258.89 118.695 259.245 118.435 259.545 118.095L260.145 118.785C259.795 119.205 259.355 119.525 258.825 119.745C258.305 119.965 257.73 120.075 257.1 120.075C256.29 120.075 255.57 119.905 254.94 119.565C254.32 119.215 253.835 118.735 253.485 118.125C253.135 117.515 252.96 116.825 252.96 116.055C252.96 115.285 253.125 114.595 253.455 113.985C253.795 113.375 254.255 112.9 254.835 112.56C255.425 112.22 256.085 112.05 256.815 112.05C257.545 112.05 258.2 112.22 258.78 112.56C259.36 112.9 259.815 113.375 260.145 113.985C260.475 114.585 260.64 115.275 260.64 116.055L260.625 116.385ZM256.815 112.965C256.055 112.965 255.415 113.21 254.895 113.7C254.385 114.18 254.095 114.81 254.025 115.59H259.62C259.55 114.81 259.255 114.18 258.735 113.7C258.225 113.21 257.585 112.965 256.815 112.965ZM266.963 119.52C266.763 119.7 266.513 119.84 266.213 119.94C265.923 120.03 265.618 120.075 265.298 120.075C264.558 120.075 263.988 119.875 263.588 119.475C263.188 119.075 262.988 118.51 262.988 117.78V113.01H261.578V112.11H262.988V110.385H264.053V112.11H266.453V113.01H264.053V117.72C264.053 118.19 264.168 118.55 264.398 118.8C264.638 119.04 264.978 119.16 265.418 119.16C265.638 119.16 265.848 119.125 266.048 119.055C266.258 118.985 266.438 118.885 266.588 118.755L266.963 119.52ZM280.335 112.11L277.35 120H276.345L273.855 113.535L271.365 120H270.36L267.39 112.11H268.41L270.885 118.815L273.42 112.11H274.335L276.855 118.815L279.36 112.11H280.335ZM288.589 116.385H281.989C282.049 117.205 282.364 117.87 282.934 118.38C283.504 118.88 284.224 119.13 285.094 119.13C285.584 119.13 286.034 119.045 286.444 118.875C286.854 118.695 287.209 118.435 287.509 118.095L288.109 118.785C287.759 119.205 287.319 119.525 286.789 119.745C286.269 119.965 285.694 120.075 285.064 120.075C284.254 120.075 283.534 119.905 282.904 119.565C282.284 119.215 281.799 118.735 281.449 118.125C281.099 117.515 280.924 116.825 280.924 116.055C280.924 115.285 281.089 114.595 281.419 113.985C281.759 113.375 282.219 112.9 282.799 112.56C283.389 112.22 284.049 112.05 284.779 112.05C285.509 112.05 286.164 112.22 286.744 112.56C287.324 112.9 287.779 113.375 288.109 113.985C288.439 114.585 288.604 115.275 288.604 116.055L288.589 116.385ZM284.779 112.965C284.019 112.965 283.379 113.21 282.859 113.7C282.349 114.18 282.059 114.81 281.989 115.59H287.584C287.514 114.81 287.219 114.18 286.699 113.7C286.189 113.21 285.549 112.965 284.779 112.965ZM293.312 112.05C294.342 112.05 295.132 112.31 295.682 112.83C296.232 113.34 296.507 114.1 296.507 115.11V120H295.487V118.77C295.247 119.18 294.892 119.5 294.422 119.73C293.962 119.96 293.412 120.075 292.772 120.075C291.892 120.075 291.192 119.865 290.672 119.445C290.152 119.025 289.892 118.47 289.892 117.78C289.892 117.11 290.132 116.57 290.612 116.16C291.102 115.75 291.877 115.545 292.937 115.545H295.442V115.065C295.442 114.385 295.252 113.87 294.872 113.52C294.492 113.16 293.937 112.98 293.207 112.98C292.707 112.98 292.227 113.065 291.767 113.235C291.307 113.395 290.912 113.62 290.582 113.91L290.102 113.115C290.502 112.775 290.982 112.515 291.542 112.335C292.102 112.145 292.692 112.05 293.312 112.05ZM292.937 119.235C293.537 119.235 294.052 119.1 294.482 118.83C294.912 118.55 295.232 118.15 295.442 117.63V116.34H292.967C291.617 116.34 290.942 116.81 290.942 117.75C290.942 118.21 291.117 118.575 291.467 118.845C291.817 119.105 292.307 119.235 292.937 119.235ZM300.42 113.655C300.67 113.125 301.04 112.725 301.53 112.455C302.03 112.185 302.645 112.05 303.375 112.05V113.085L303.12 113.07C302.29 113.07 301.64 113.325 301.17 113.835C300.7 114.345 300.465 115.06 300.465 115.98V120H299.4V112.11H300.42V113.655Z" fill="white"/>
<path d="M204.985 124.15C203.685 124.15 202.435 123.942 201.235 123.525C200.051 123.108 199.135 122.558 198.485 121.875L199.21 120.45C199.843 121.083 200.685 121.6 201.735 122C202.785 122.383 203.868 122.575 204.985 122.575C206.551 122.575 207.726 122.292 208.51 121.725C209.293 121.142 209.685 120.392 209.685 119.475C209.685 118.775 209.468 118.217 209.035 117.8C208.618 117.383 208.101 117.067 207.485 116.85C206.868 116.617 206.01 116.367 204.91 116.1C203.593 115.767 202.543 115.45 201.76 115.15C200.976 114.833 200.301 114.358 199.735 113.725C199.185 113.092 198.91 112.233 198.91 111.15C198.91 110.267 199.143 109.467 199.61 108.75C200.076 108.017 200.793 107.433 201.76 107C202.726 106.567 203.926 106.35 205.36 106.35C206.36 106.35 207.335 106.492 208.285 106.775C209.251 107.042 210.085 107.417 210.785 107.9L210.16 109.375C209.426 108.892 208.643 108.533 207.81 108.3C206.976 108.05 206.16 107.925 205.36 107.925C203.826 107.925 202.668 108.225 201.885 108.825C201.118 109.408 200.735 110.167 200.735 111.1C200.735 111.8 200.943 112.367 201.36 112.8C201.793 113.217 202.326 113.542 202.96 113.775C203.61 113.992 204.476 114.233 205.56 114.5C206.843 114.817 207.876 115.133 208.66 115.45C209.46 115.75 210.135 116.217 210.685 116.85C211.235 117.467 211.51 118.308 211.51 119.375C211.51 120.258 211.268 121.067 210.785 121.8C210.318 122.517 209.593 123.092 208.61 123.525C207.626 123.942 206.418 124.15 204.985 124.15Z" fill="white"/>
<path d="M129.363 122.4V124H116.988V106.5H128.988V108.1H118.838V114.325H127.888V115.9H118.838V122.4H129.363Z" fill="white"/>
<path d="M153.867 64C162.247 71.4531 166.705 71.2505 174.311 64L182.844 68.0133C181.951 82.0734 181.976 89.187 188 93.0963V148.279H140" stroke="#EC1C24" stroke-width="2.7907"/>
<path d="M174.133 64C165.753 71.4531 161.295 71.2505 153.689 64L145.156 68.0133C146.049 82.0734 146.024 89.187 140 93.0963V148.279H188" stroke="#EC1C24" stroke-width="2.7907"/>
<path d="M167.708 120.165L166.253 118.665C165.363 119.615 164.193 120.09 162.743 120.09C162.063 120.09 161.453 119.98 160.913 119.76C160.383 119.53 159.968 119.215 159.668 118.815C159.368 118.405 159.218 117.94 159.218 117.42C159.218 116.79 159.418 116.225 159.818 115.725C160.218 115.225 160.898 114.7 161.858 114.15C161.358 113.63 161.013 113.19 160.823 112.83C160.633 112.46 160.538 112.07 160.538 111.66C160.538 110.99 160.778 110.45 161.258 110.04C161.738 109.63 162.383 109.425 163.193 109.425C163.943 109.425 164.538 109.61 164.978 109.98C165.418 110.35 165.638 110.86 165.638 111.51C165.638 112.03 165.463 112.5 165.113 112.92C164.763 113.33 164.158 113.785 163.298 114.285L166.178 117.255C166.498 116.685 166.733 116.01 166.883 115.23L167.753 115.5C167.563 116.44 167.253 117.245 166.823 117.915L168.323 119.46L167.708 120.165ZM163.193 110.22C162.673 110.22 162.263 110.35 161.963 110.61C161.673 110.87 161.528 111.215 161.528 111.645C161.528 111.955 161.608 112.25 161.768 112.53C161.928 112.81 162.243 113.19 162.713 113.67C163.473 113.23 163.998 112.855 164.288 112.545C164.578 112.235 164.723 111.895 164.723 111.525C164.723 111.125 164.588 110.81 164.318 110.58C164.048 110.34 163.673 110.22 163.193 110.22ZM162.803 119.205C163.963 119.205 164.903 118.81 165.623 118.02L162.458 114.765C161.628 115.235 161.053 115.66 160.733 116.04C160.423 116.42 160.268 116.845 160.268 117.315C160.268 117.885 160.498 118.345 160.958 118.695C161.428 119.035 162.043 119.205 162.803 119.205Z" fill="#EC1C24"/>
</svg>
