<svg width="190" height="88" viewBox="0 0 190 88" fill="none" xmlns="http://www.w3.org/2000/svg">
<path d="M112.67 58.09C111.89 58.09 111.14 57.965 110.42 57.715C109.71 57.465 109.16 57.135 108.77 56.725L109.205 55.87C109.585 56.25 110.09 56.56 110.72 56.8C111.35 57.03 112 57.145 112.67 57.145C113.61 57.145 114.315 56.975 114.785 56.635C115.255 56.285 115.49 55.835 115.49 55.285C115.49 54.865 115.36 54.53 115.1 54.28C114.85 54.03 114.54 53.84 114.17 53.71C113.8 53.57 113.285 53.42 112.625 53.26C111.835 53.06 111.205 52.87 110.735 52.69C110.265 52.5 109.86 52.215 109.52 51.835C109.19 51.455 109.025 50.94 109.025 50.29C109.025 49.76 109.165 49.28 109.445 48.85C109.725 48.41 110.155 48.06 110.735 47.8C111.315 47.54 112.035 47.41 112.895 47.41C113.495 47.41 114.08 47.495 114.65 47.665C115.23 47.825 115.73 48.05 116.15 48.34L115.775 49.225C115.335 48.935 114.865 48.72 114.365 48.58C113.865 48.43 113.375 48.355 112.895 48.355C111.975 48.355 111.28 48.535 110.81 48.895C110.35 49.245 110.12 49.7 110.12 50.26C110.12 50.68 110.245 51.02 110.495 51.28C110.755 51.53 111.075 51.725 111.455 51.865C111.845 51.995 112.365 52.14 113.015 52.3C113.785 52.49 114.405 52.68 114.875 52.87C115.355 53.05 115.76 53.33 116.09 53.71C116.42 54.08 116.585 54.585 116.585 55.225C116.585 55.755 116.44 56.24 116.15 56.68C115.87 57.11 115.435 57.455 114.845 57.715C114.255 57.965 113.53 58.09 112.67 58.09ZM122.933 57.52C122.733 57.7 122.483 57.84 122.183 57.94C121.893 58.03 121.588 58.075 121.268 58.075C120.528 58.075 119.958 57.875 119.558 57.475C119.158 57.075 118.958 56.51 118.958 55.78V51.01H117.548V50.11H118.958V48.385H120.023V50.11H122.423V51.01H120.023V55.72C120.023 56.19 120.138 56.55 120.368 56.8C120.608 57.04 120.948 57.16 121.388 57.16C121.608 57.16 121.818 57.125 122.018 57.055C122.228 56.985 122.408 56.885 122.558 56.755L122.933 57.52ZM125.892 51.655C126.142 51.125 126.512 50.725 127.002 50.455C127.502 50.185 128.117 50.05 128.847 50.05V51.085L128.592 51.07C127.762 51.07 127.112 51.325 126.642 51.835C126.172 52.345 125.937 53.06 125.937 53.98V58H124.872V50.11H125.892V51.655ZM137.572 54.385H130.972C131.032 55.205 131.347 55.87 131.917 56.38C132.487 56.88 133.207 57.13 134.077 57.13C134.567 57.13 135.017 57.045 135.427 56.875C135.837 56.695 136.192 56.435 136.492 56.095L137.092 56.785C136.742 57.205 136.302 57.525 135.772 57.745C135.252 57.965 134.677 58.075 134.047 58.075C133.237 58.075 132.517 57.905 131.887 57.565C131.267 57.215 130.782 56.735 130.432 56.125C130.082 55.515 129.907 54.825 129.907 54.055C129.907 53.285 130.072 52.595 130.402 51.985C130.742 51.375 131.202 50.9 131.782 50.56C132.372 50.22 133.032 50.05 133.762 50.05C134.492 50.05 135.147 50.22 135.727 50.56C136.307 50.9 136.762 51.375 137.092 51.985C137.422 52.585 137.587 53.275 137.587 54.055L137.572 54.385ZM133.762 50.965C133.002 50.965 132.362 51.21 131.842 51.7C131.332 52.18 131.042 52.81 130.972 53.59H136.567C136.497 52.81 136.202 52.18 135.682 51.7C135.172 51.21 134.532 50.965 133.762 50.965ZM146.625 54.385H140.025C140.085 55.205 140.4 55.87 140.97 56.38C141.54 56.88 142.26 57.13 143.13 57.13C143.62 57.13 144.07 57.045 144.48 56.875C144.89 56.695 145.245 56.435 145.545 56.095L146.145 56.785C145.795 57.205 145.355 57.525 144.825 57.745C144.305 57.965 143.73 58.075 143.1 58.075C142.29 58.075 141.57 57.905 140.94 57.565C140.32 57.215 139.835 56.735 139.485 56.125C139.135 55.515 138.96 54.825 138.96 54.055C138.96 53.285 139.125 52.595 139.455 51.985C139.795 51.375 140.255 50.9 140.835 50.56C141.425 50.22 142.085 50.05 142.815 50.05C143.545 50.05 144.2 50.22 144.78 50.56C145.36 50.9 145.815 51.375 146.145 51.985C146.475 52.585 146.64 53.275 146.64 54.055L146.625 54.385ZM142.815 50.965C142.055 50.965 141.415 51.21 140.895 51.7C140.385 52.18 140.095 52.81 140.025 53.59H145.62C145.55 52.81 145.255 52.18 144.735 51.7C144.225 51.21 143.585 50.965 142.815 50.965ZM152.963 57.52C152.763 57.7 152.513 57.84 152.213 57.94C151.923 58.03 151.618 58.075 151.298 58.075C150.558 58.075 149.988 57.875 149.588 57.475C149.188 57.075 148.988 56.51 148.988 55.78V51.01H147.578V50.11H148.988V48.385H150.053V50.11H152.453V51.01H150.053V55.72C150.053 56.19 150.168 56.55 150.398 56.8C150.638 57.04 150.978 57.16 151.418 57.16C151.638 57.16 151.848 57.125 152.048 57.055C152.258 56.985 152.438 56.885 152.588 56.755L152.963 57.52ZM166.335 50.11L163.35 58H162.345L159.855 51.535L157.365 58H156.36L153.39 50.11H154.41L156.885 56.815L159.42 50.11H160.335L162.855 56.815L165.36 50.11H166.335ZM174.589 54.385H167.989C168.049 55.205 168.364 55.87 168.934 56.38C169.504 56.88 170.224 57.13 171.094 57.13C171.584 57.13 172.034 57.045 172.444 56.875C172.854 56.695 173.209 56.435 173.509 56.095L174.109 56.785C173.759 57.205 173.319 57.525 172.789 57.745C172.269 57.965 171.694 58.075 171.064 58.075C170.254 58.075 169.534 57.905 168.904 57.565C168.284 57.215 167.799 56.735 167.449 56.125C167.099 55.515 166.924 54.825 166.924 54.055C166.924 53.285 167.089 52.595 167.419 51.985C167.759 51.375 168.219 50.9 168.799 50.56C169.389 50.22 170.049 50.05 170.779 50.05C171.509 50.05 172.164 50.22 172.744 50.56C173.324 50.9 173.779 51.375 174.109 51.985C174.439 52.585 174.604 53.275 174.604 54.055L174.589 54.385ZM170.779 50.965C170.019 50.965 169.379 51.21 168.859 51.7C168.349 52.18 168.059 52.81 167.989 53.59H173.584C173.514 52.81 173.219 52.18 172.699 51.7C172.189 51.21 171.549 50.965 170.779 50.965ZM179.312 50.05C180.342 50.05 181.132 50.31 181.682 50.83C182.232 51.34 182.507 52.1 182.507 53.11V58H181.487V56.77C181.247 57.18 180.892 57.5 180.422 57.73C179.962 57.96 179.412 58.075 178.772 58.075C177.892 58.075 177.192 57.865 176.672 57.445C176.152 57.025 175.892 56.47 175.892 55.78C175.892 55.11 176.132 54.57 176.612 54.16C177.102 53.75 177.877 53.545 178.937 53.545H181.442V53.065C181.442 52.385 181.252 51.87 180.872 51.52C180.492 51.16 179.937 50.98 179.207 50.98C178.707 50.98 178.227 51.065 177.767 51.235C177.307 51.395 176.912 51.62 176.582 51.91L176.102 51.115C176.502 50.775 176.982 50.515 177.542 50.335C178.102 50.145 178.692 50.05 179.312 50.05ZM178.937 57.235C179.537 57.235 180.052 57.1 180.482 56.83C180.912 56.55 181.232 56.15 181.442 55.63V54.34H178.967C177.617 54.34 176.942 54.81 176.942 55.75C176.942 56.21 177.117 56.575 177.467 56.845C177.817 57.105 178.307 57.235 178.937 57.235ZM186.42 51.655C186.67 51.125 187.04 50.725 187.53 50.455C188.03 50.185 188.645 50.05 189.375 50.05V51.085L189.12 51.07C188.29 51.07 187.64 51.325 187.17 51.835C186.7 52.345 186.465 53.06 186.465 53.98V58H185.4V50.11H186.42V51.655Z" fill="white"/>
<path d="M90.9846 62.15C89.6846 62.15 88.4346 61.9417 87.2346 61.525C86.0512 61.1083 85.1346 60.5583 84.4846 59.875L85.2096 58.45C85.8429 59.0833 86.6846 59.6 87.7346 60C88.7846 60.3833 89.8679 60.575 90.9846 60.575C92.5512 60.575 93.7262 60.2917 94.5096 59.725C95.2929 59.1417 95.6846 58.3917 95.6846 57.475C95.6846 56.775 95.4679 56.2167 95.0346 55.8C94.6179 55.3833 94.1012 55.0667 93.4846 54.85C92.8679 54.6167 92.0096 54.3667 90.9096 54.1C89.5929 53.7667 88.5429 53.45 87.7596 53.15C86.9762 52.8333 86.3012 52.3583 85.7346 51.725C85.1846 51.0917 84.9096 50.2333 84.9096 49.15C84.9096 48.2667 85.1429 47.4667 85.6096 46.75C86.0762 46.0167 86.7929 45.4333 87.7596 45C88.7262 44.5667 89.9262 44.35 91.3596 44.35C92.3596 44.35 93.3346 44.4917 94.2846 44.775C95.2512 45.0417 96.0846 45.4167 96.7846 45.9L96.1596 47.375C95.4262 46.8917 94.6429 46.5333 93.8096 46.3C92.9762 46.05 92.1596 45.925 91.3596 45.925C89.8262 45.925 88.6679 46.225 87.8846 46.825C87.1179 47.4083 86.7346 48.1667 86.7346 49.1C86.7346 49.8 86.9429 50.3667 87.3596 50.8C87.7929 51.2167 88.3262 51.5417 88.9596 51.775C89.6096 51.9917 90.4762 52.2333 91.5596 52.5C92.8429 52.8167 93.8762 53.1333 94.6596 53.45C95.4596 53.75 96.1346 54.2167 96.6846 54.85C97.2346 55.4667 97.5096 56.3083 97.5096 57.375C97.5096 58.2583 97.2679 59.0667 96.7846 59.8C96.3179 60.5167 95.5929 61.0917 94.6096 61.525C93.6262 61.9417 92.4179 62.15 90.9846 62.15Z" fill="white"/>
<path d="M15.3632 60.4V62H2.98818V44.5H14.9882V46.1H4.83818V52.325H13.8882V53.9H4.83818V60.4H15.3632Z" fill="white"/>
<path d="M39.8667 2C48.2469 9.45309 52.7049 9.25047 60.3111 2L68.8444 6.01329C67.9514 20.0734 67.9759 27.187 74 31.0963V86.2791H26" stroke="#EC1C24" stroke-width="2.7907"/>
<path d="M60.1333 2C51.7531 9.45309 47.2951 9.25047 39.6889 2L31.1556 6.01329C32.0486 20.0734 32.0241 27.187 26 31.0963V86.2791H74" stroke="#EC1C24" stroke-width="2.7907"/>
<path d="M53.7079 58.165L52.2529 56.665C51.3629 57.615 50.1929 58.09 48.7429 58.09C48.0629 58.09 47.4529 57.98 46.9129 57.76C46.3829 57.53 45.9679 57.215 45.6679 56.815C45.3679 56.405 45.2179 55.94 45.2179 55.42C45.2179 54.79 45.4179 54.225 45.8179 53.725C46.2179 53.225 46.8979 52.7 47.8579 52.15C47.3579 51.63 47.0129 51.19 46.8229 50.83C46.6329 50.46 46.5379 50.07 46.5379 49.66C46.5379 48.99 46.7779 48.45 47.2579 48.04C47.7379 47.63 48.3829 47.425 49.1929 47.425C49.9429 47.425 50.5379 47.61 50.9779 47.98C51.4179 48.35 51.6379 48.86 51.6379 49.51C51.6379 50.03 51.4629 50.5 51.1129 50.92C50.7629 51.33 50.1579 51.785 49.2979 52.285L52.1779 55.255C52.4979 54.685 52.7329 54.01 52.8829 53.23L53.7529 53.5C53.5629 54.44 53.2529 55.245 52.8229 55.915L54.3229 57.46L53.7079 58.165ZM49.1929 48.22C48.6729 48.22 48.2629 48.35 47.9629 48.61C47.6729 48.87 47.5279 49.215 47.5279 49.645C47.5279 49.955 47.6079 50.25 47.7679 50.53C47.9279 50.81 48.2429 51.19 48.7129 51.67C49.4729 51.23 49.9979 50.855 50.2879 50.545C50.5779 50.235 50.7229 49.895 50.7229 49.525C50.7229 49.125 50.5879 48.81 50.3179 48.58C50.0479 48.34 49.6729 48.22 49.1929 48.22ZM48.8029 57.205C49.9629 57.205 50.9029 56.81 51.6229 56.02L48.4579 52.765C47.6279 53.235 47.0529 53.66 46.7329 54.04C46.4229 54.42 46.2679 54.845 46.2679 55.315C46.2679 55.885 46.4979 56.345 46.9579 56.695C47.4279 57.035 48.0429 57.205 48.8029 57.205Z" fill="#EC1C24"/>
</svg>
