<svg width="414" height="227" viewBox="0 0 414 227" fill="none" xmlns="http://www.w3.org/2000/svg">
<rect width="414" height="227" fill="#1B1920"/>
<path d="M230 68.8333L221.833 63H210.833H199.833L191.167 68.8333L210.833 89.3333L230 68.8333Z" stroke="#EC1C24" stroke-width="1.66667"/>
<path d="M223.833 68.8333L215.667 63H204.667H193.667L185 68.8333L204.667 89.3333L223.833 68.8333Z" stroke="#EC1C24" stroke-width="1.66667"/>
<path d="M209.083 63L217.25 68.8333L207.667 79.0833" stroke="#EC1C24" stroke-width="1.66667"/>
<path d="M173.252 107.04V108H165.827V97.5H173.027V98.46H166.937V102.195H172.367V103.14H166.937V107.04H173.252ZM180.301 108.11L179.331 107.11C178.738 107.743 177.958 108.06 176.991 108.06C176.538 108.06 176.131 107.987 175.771 107.84C175.418 107.687 175.141 107.477 174.941 107.21C174.741 106.937 174.641 106.627 174.641 106.28C174.641 105.86 174.774 105.483 175.041 105.15C175.308 104.817 175.761 104.467 176.401 104.1C176.068 103.753 175.838 103.46 175.711 103.22C175.584 102.973 175.521 102.713 175.521 102.44C175.521 101.993 175.681 101.633 176.001 101.36C176.321 101.087 176.751 100.95 177.291 100.95C177.791 100.95 178.188 101.073 178.481 101.32C178.774 101.567 178.921 101.907 178.921 102.34C178.921 102.687 178.804 103 178.571 103.28C178.338 103.553 177.934 103.857 177.361 104.19L179.281 106.17C179.494 105.79 179.651 105.34 179.751 104.82L180.331 105C180.204 105.627 179.998 106.163 179.711 106.61L180.711 107.64L180.301 108.11ZM177.291 101.48C176.944 101.48 176.671 101.567 176.471 101.74C176.278 101.913 176.181 102.143 176.181 102.43C176.181 102.637 176.234 102.833 176.341 103.02C176.448 103.207 176.658 103.46 176.971 103.78C177.478 103.487 177.828 103.237 178.021 103.03C178.214 102.823 178.311 102.597 178.311 102.35C178.311 102.083 178.221 101.873 178.041 101.72C177.861 101.56 177.611 101.48 177.291 101.48ZM177.031 107.47C177.804 107.47 178.431 107.207 178.911 106.68L176.801 104.51C176.248 104.823 175.864 105.107 175.651 105.36C175.444 105.613 175.341 105.897 175.341 106.21C175.341 106.59 175.494 106.897 175.801 107.13C176.114 107.357 176.524 107.47 177.031 107.47ZM185.445 108.09C184.665 108.09 183.915 107.965 183.195 107.715C182.485 107.465 181.935 107.135 181.545 106.725L181.98 105.87C182.36 106.25 182.865 106.56 183.495 106.8C184.125 107.03 184.775 107.145 185.445 107.145C186.385 107.145 187.09 106.975 187.56 106.635C188.03 106.285 188.265 105.835 188.265 105.285C188.265 104.865 188.135 104.53 187.875 104.28C187.625 104.03 187.315 103.84 186.945 103.71C186.575 103.57 186.06 103.42 185.4 103.26C184.61 103.06 183.98 102.87 183.51 102.69C183.04 102.5 182.635 102.215 182.295 101.835C181.965 101.455 181.8 100.94 181.8 100.29C181.8 99.76 181.94 99.28 182.22 98.85C182.5 98.41 182.93 98.06 183.51 97.8C184.09 97.54 184.81 97.41 185.67 97.41C186.27 97.41 186.855 97.495 187.425 97.665C188.005 97.825 188.505 98.05 188.925 98.34L188.55 99.225C188.11 98.935 187.64 98.72 187.14 98.58C186.64 98.43 186.15 98.355 185.67 98.355C184.75 98.355 184.055 98.535 183.585 98.895C183.125 99.245 182.895 99.7 182.895 100.26C182.895 100.68 183.02 101.02 183.27 101.28C183.53 101.53 183.85 101.725 184.23 101.865C184.62 101.995 185.14 102.14 185.79 102.3C186.56 102.49 187.18 102.68 187.65 102.87C188.13 103.05 188.535 103.33 188.865 103.71C189.195 104.08 189.36 104.585 189.36 105.225C189.36 105.755 189.215 106.24 188.925 106.68C188.645 107.11 188.21 107.455 187.62 107.715C187.03 107.965 186.305 108.09 185.445 108.09ZM198.373 108.06C197.853 108.06 197.353 107.977 196.873 107.81C196.4 107.643 196.033 107.423 195.773 107.15L196.063 106.58C196.317 106.833 196.653 107.04 197.073 107.2C197.493 107.353 197.927 107.43 198.373 107.43C199 107.43 199.47 107.317 199.783 107.09C200.097 106.857 200.253 106.557 200.253 106.19C200.253 105.91 200.167 105.687 199.993 105.52C199.827 105.353 199.62 105.227 199.373 105.14C199.127 105.047 198.783 104.947 198.343 104.84C197.817 104.707 197.397 104.58 197.083 104.46C196.77 104.333 196.5 104.143 196.273 103.89C196.053 103.637 195.943 103.293 195.943 102.86C195.943 102.507 196.037 102.187 196.223 101.9C196.41 101.607 196.697 101.373 197.083 101.2C197.47 101.027 197.95 100.94 198.523 100.94C198.923 100.94 199.313 100.997 199.693 101.11C200.08 101.217 200.413 101.367 200.693 101.56L200.443 102.15C200.15 101.957 199.837 101.813 199.503 101.72C199.17 101.62 198.843 101.57 198.523 101.57C197.91 101.57 197.447 101.69 197.133 101.93C196.827 102.163 196.673 102.467 196.673 102.84C196.673 103.12 196.757 103.347 196.923 103.52C197.097 103.687 197.31 103.817 197.563 103.91C197.823 103.997 198.17 104.093 198.603 104.2C199.117 104.327 199.53 104.453 199.843 104.58C200.163 104.7 200.433 104.887 200.653 105.14C200.873 105.387 200.983 105.723 200.983 106.15C200.983 106.503 200.887 106.827 200.693 107.12C200.507 107.407 200.217 107.637 199.823 107.81C199.43 107.977 198.947 108.06 198.373 108.06ZM205.216 107.68C205.082 107.8 204.916 107.893 204.716 107.96C204.522 108.02 204.319 108.05 204.106 108.05C203.612 108.05 203.232 107.917 202.966 107.65C202.699 107.383 202.566 107.007 202.566 106.52V103.34H201.626V102.74H202.566V101.59H203.276V102.74H204.876V103.34H203.276V106.48C203.276 106.793 203.352 107.033 203.506 107.2C203.666 107.36 203.892 107.44 204.186 107.44C204.332 107.44 204.472 107.417 204.606 107.37C204.746 107.323 204.866 107.257 204.966 107.17L205.216 107.68ZM207.188 103.77C207.355 103.417 207.601 103.15 207.928 102.97C208.261 102.79 208.671 102.7 209.158 102.7V103.39L208.988 103.38C208.435 103.38 208.001 103.55 207.688 103.89C207.375 104.23 207.218 104.707 207.218 105.32V108H206.508V102.74H207.188V103.77ZM214.975 105.59H210.575C210.615 106.137 210.825 106.58 211.205 106.92C211.585 107.253 212.065 107.42 212.645 107.42C212.971 107.42 213.271 107.363 213.545 107.25C213.818 107.13 214.055 106.957 214.255 106.73L214.655 107.19C214.421 107.47 214.128 107.683 213.775 107.83C213.428 107.977 213.045 108.05 212.625 108.05C212.085 108.05 211.605 107.937 211.185 107.71C210.771 107.477 210.448 107.157 210.215 106.75C209.981 106.343 209.865 105.883 209.865 105.37C209.865 104.857 209.975 104.397 210.195 103.99C210.421 103.583 210.728 103.267 211.115 103.04C211.508 102.813 211.948 102.7 212.435 102.7C212.921 102.7 213.358 102.813 213.745 103.04C214.131 103.267 214.435 103.583 214.655 103.99C214.875 104.39 214.985 104.85 214.985 105.37L214.975 105.59ZM212.435 103.31C211.928 103.31 211.501 103.473 211.155 103.8C210.815 104.12 210.621 104.54 210.575 105.06H214.305C214.258 104.54 214.061 104.12 213.715 103.8C213.375 103.473 212.948 103.31 212.435 103.31ZM221.01 105.59H216.61C216.65 106.137 216.86 106.58 217.24 106.92C217.62 107.253 218.1 107.42 218.68 107.42C219.007 107.42 219.307 107.363 219.58 107.25C219.853 107.13 220.09 106.957 220.29 106.73L220.69 107.19C220.457 107.47 220.163 107.683 219.81 107.83C219.463 107.977 219.08 108.05 218.66 108.05C218.12 108.05 217.64 107.937 217.22 107.71C216.807 107.477 216.483 107.157 216.25 106.75C216.017 106.343 215.9 105.883 215.9 105.37C215.9 104.857 216.01 104.397 216.23 103.99C216.457 103.583 216.763 103.267 217.15 103.04C217.543 102.813 217.983 102.7 218.47 102.7C218.957 102.7 219.393 102.813 219.78 103.04C220.167 103.267 220.47 103.583 220.69 103.99C220.91 104.39 221.02 104.85 221.02 105.37L221.01 105.59ZM218.47 103.31C217.963 103.31 217.537 103.473 217.19 103.8C216.85 104.12 216.657 104.54 216.61 105.06H220.34C220.293 104.54 220.097 104.12 219.75 103.8C219.41 103.473 218.983 103.31 218.47 103.31ZM225.235 107.68C225.102 107.8 224.935 107.893 224.735 107.96C224.542 108.02 224.338 108.05 224.125 108.05C223.632 108.05 223.252 107.917 222.985 107.65C222.718 107.383 222.585 107.007 222.585 106.52V103.34H221.645V102.74H222.585V101.59H223.295V102.74H224.895V103.34H223.295V106.48C223.295 106.793 223.372 107.033 223.525 107.2C223.685 107.36 223.912 107.44 224.205 107.44C224.352 107.44 224.492 107.417 224.625 107.37C224.765 107.323 224.885 107.257 224.985 107.17L225.235 107.68ZM234.15 102.74L232.16 108H231.49L229.83 103.69L228.17 108H227.5L225.52 102.74H226.2L227.85 107.21L229.54 102.74H230.15L231.83 107.21L233.5 102.74H234.15ZM239.653 105.59H235.253C235.293 106.137 235.503 106.58 235.883 106.92C236.263 107.253 236.743 107.42 237.323 107.42C237.649 107.42 237.949 107.363 238.223 107.25C238.496 107.13 238.733 106.957 238.933 106.73L239.333 107.19C239.099 107.47 238.806 107.683 238.453 107.83C238.106 107.977 237.723 108.05 237.303 108.05C236.763 108.05 236.283 107.937 235.863 107.71C235.449 107.477 235.126 107.157 234.893 106.75C234.659 106.343 234.543 105.883 234.543 105.37C234.543 104.857 234.653 104.397 234.873 103.99C235.099 103.583 235.406 103.267 235.793 103.04C236.186 102.813 236.626 102.7 237.113 102.7C237.599 102.7 238.036 102.813 238.423 103.04C238.809 103.267 239.113 103.583 239.333 103.99C239.553 104.39 239.663 104.85 239.663 105.37L239.653 105.59ZM237.113 103.31C236.606 103.31 236.179 103.473 235.833 103.8C235.493 104.12 235.299 104.54 235.253 105.06H238.983C238.936 104.54 238.739 104.12 238.393 103.8C238.053 103.473 237.626 103.31 237.113 103.31ZM242.801 102.7C243.488 102.7 244.015 102.873 244.381 103.22C244.748 103.56 244.931 104.067 244.931 104.74V108H244.251V107.18C244.091 107.453 243.855 107.667 243.541 107.82C243.235 107.973 242.868 108.05 242.441 108.05C241.855 108.05 241.388 107.91 241.041 107.63C240.695 107.35 240.521 106.98 240.521 106.52C240.521 106.073 240.681 105.713 241.001 105.44C241.328 105.167 241.845 105.03 242.551 105.03H244.221V104.71C244.221 104.257 244.095 103.913 243.841 103.68C243.588 103.44 243.218 103.32 242.731 103.32C242.398 103.32 242.078 103.377 241.771 103.49C241.465 103.597 241.201 103.747 240.981 103.94L240.661 103.41C240.928 103.183 241.248 103.01 241.621 102.89C241.995 102.763 242.388 102.7 242.801 102.7ZM242.551 107.49C242.951 107.49 243.295 107.4 243.581 107.22C243.868 107.033 244.081 106.767 244.221 106.42V105.56H242.571C241.671 105.56 241.221 105.873 241.221 106.5C241.221 106.807 241.338 107.05 241.571 107.23C241.805 107.403 242.131 107.49 242.551 107.49ZM247.54 103.77C247.706 103.417 247.953 103.15 248.28 102.97C248.613 102.79 249.023 102.7 249.51 102.7V103.39L249.34 103.38C248.786 103.38 248.353 103.55 248.04 103.89C247.726 104.23 247.57 104.707 247.57 105.32V108H246.86V102.74H247.54V103.77Z" fill="white"/>
</svg>
