<svg width="414" height="227" viewBox="0 0 414 227" fill="none" xmlns="http://www.w3.org/2000/svg">
<rect width="414" height="227" fill="#1B1920"/>
<path d="M230 93.8333L221.833 88H210.833H199.833L191.167 93.8333L210.833 114.333L230 93.8333Z" stroke="#EC1C24" stroke-width="1.66667"/>
<path d="M223.833 93.8333L215.667 88H204.667H193.667L185 93.8333L204.667 114.333L223.833 93.8333Z" stroke="#EC1C24" stroke-width="1.66667"/>
<path d="M209.083 88L217.25 93.8333L207.667 104.083" stroke="#EC1C24" stroke-width="1.66667"/>
<path d="M173.252 132.04V133H165.827V122.5H173.027V123.46H166.937V127.195H172.367V128.14H166.937V132.04H173.252ZM180.301 133.11L179.331 132.11C178.738 132.743 177.958 133.06 176.991 133.06C176.538 133.06 176.131 132.987 175.771 132.84C175.418 132.687 175.141 132.477 174.941 132.21C174.741 131.937 174.641 131.627 174.641 131.28C174.641 130.86 174.774 130.483 175.041 130.15C175.308 129.817 175.761 129.467 176.401 129.1C176.068 128.753 175.838 128.46 175.711 128.22C175.584 127.973 175.521 127.713 175.521 127.44C175.521 126.993 175.681 126.633 176.001 126.36C176.321 126.087 176.751 125.95 177.291 125.95C177.791 125.95 178.188 126.073 178.481 126.32C178.774 126.567 178.921 126.907 178.921 127.34C178.921 127.687 178.804 128 178.571 128.28C178.338 128.553 177.934 128.857 177.361 129.19L179.281 131.17C179.494 130.79 179.651 130.34 179.751 129.82L180.331 130C180.204 130.627 179.998 131.163 179.711 131.61L180.711 132.64L180.301 133.11ZM177.291 126.48C176.944 126.48 176.671 126.567 176.471 126.74C176.278 126.913 176.181 127.143 176.181 127.43C176.181 127.637 176.234 127.833 176.341 128.02C176.448 128.207 176.658 128.46 176.971 128.78C177.478 128.487 177.828 128.237 178.021 128.03C178.214 127.823 178.311 127.597 178.311 127.35C178.311 127.083 178.221 126.873 178.041 126.72C177.861 126.56 177.611 126.48 177.291 126.48ZM177.031 132.47C177.804 132.47 178.431 132.207 178.911 131.68L176.801 129.51C176.248 129.823 175.864 130.107 175.651 130.36C175.444 130.613 175.341 130.897 175.341 131.21C175.341 131.59 175.494 131.897 175.801 132.13C176.114 132.357 176.524 132.47 177.031 132.47ZM185.445 133.09C184.665 133.09 183.915 132.965 183.195 132.715C182.485 132.465 181.935 132.135 181.545 131.725L181.98 130.87C182.36 131.25 182.865 131.56 183.495 131.8C184.125 132.03 184.775 132.145 185.445 132.145C186.385 132.145 187.09 131.975 187.56 131.635C188.03 131.285 188.265 130.835 188.265 130.285C188.265 129.865 188.135 129.53 187.875 129.28C187.625 129.03 187.315 128.84 186.945 128.71C186.575 128.57 186.06 128.42 185.4 128.26C184.61 128.06 183.98 127.87 183.51 127.69C183.04 127.5 182.635 127.215 182.295 126.835C181.965 126.455 181.8 125.94 181.8 125.29C181.8 124.76 181.94 124.28 182.22 123.85C182.5 123.41 182.93 123.06 183.51 122.8C184.09 122.54 184.81 122.41 185.67 122.41C186.27 122.41 186.855 122.495 187.425 122.665C188.005 122.825 188.505 123.05 188.925 123.34L188.55 124.225C188.11 123.935 187.64 123.72 187.14 123.58C186.64 123.43 186.15 123.355 185.67 123.355C184.75 123.355 184.055 123.535 183.585 123.895C183.125 124.245 182.895 124.7 182.895 125.26C182.895 125.68 183.02 126.02 183.27 126.28C183.53 126.53 183.85 126.725 184.23 126.865C184.62 126.995 185.14 127.14 185.79 127.3C186.56 127.49 187.18 127.68 187.65 127.87C188.13 128.05 188.535 128.33 188.865 128.71C189.195 129.08 189.36 129.585 189.36 130.225C189.36 130.755 189.215 131.24 188.925 131.68C188.645 132.11 188.21 132.455 187.62 132.715C187.03 132.965 186.305 133.09 185.445 133.09ZM198.373 133.06C197.853 133.06 197.353 132.977 196.873 132.81C196.4 132.643 196.033 132.423 195.773 132.15L196.063 131.58C196.317 131.833 196.653 132.04 197.073 132.2C197.493 132.353 197.927 132.43 198.373 132.43C199 132.43 199.47 132.317 199.783 132.09C200.097 131.857 200.253 131.557 200.253 131.19C200.253 130.91 200.167 130.687 199.993 130.52C199.827 130.353 199.62 130.227 199.373 130.14C199.127 130.047 198.783 129.947 198.343 129.84C197.817 129.707 197.397 129.58 197.083 129.46C196.77 129.333 196.5 129.143 196.273 128.89C196.053 128.637 195.943 128.293 195.943 127.86C195.943 127.507 196.037 127.187 196.223 126.9C196.41 126.607 196.697 126.373 197.083 126.2C197.47 126.027 197.95 125.94 198.523 125.94C198.923 125.94 199.313 125.997 199.693 126.11C200.08 126.217 200.413 126.367 200.693 126.56L200.443 127.15C200.15 126.957 199.837 126.813 199.503 126.72C199.17 126.62 198.843 126.57 198.523 126.57C197.91 126.57 197.447 126.69 197.133 126.93C196.827 127.163 196.673 127.467 196.673 127.84C196.673 128.12 196.757 128.347 196.923 128.52C197.097 128.687 197.31 128.817 197.563 128.91C197.823 128.997 198.17 129.093 198.603 129.2C199.117 129.327 199.53 129.453 199.843 129.58C200.163 129.7 200.433 129.887 200.653 130.14C200.873 130.387 200.983 130.723 200.983 131.15C200.983 131.503 200.887 131.827 200.693 132.12C200.507 132.407 200.217 132.637 199.823 132.81C199.43 132.977 198.947 133.06 198.373 133.06ZM205.216 132.68C205.082 132.8 204.916 132.893 204.716 132.96C204.522 133.02 204.319 133.05 204.106 133.05C203.612 133.05 203.232 132.917 202.966 132.65C202.699 132.383 202.566 132.007 202.566 131.52V128.34H201.626V127.74H202.566V126.59H203.276V127.74H204.876V128.34H203.276V131.48C203.276 131.793 203.352 132.033 203.506 132.2C203.666 132.36 203.892 132.44 204.186 132.44C204.332 132.44 204.472 132.417 204.606 132.37C204.746 132.323 204.866 132.257 204.966 132.17L205.216 132.68ZM207.188 128.77C207.355 128.417 207.601 128.15 207.928 127.97C208.261 127.79 208.671 127.7 209.158 127.7V128.39L208.988 128.38C208.435 128.38 208.001 128.55 207.688 128.89C207.375 129.23 207.218 129.707 207.218 130.32V133H206.508V127.74H207.188V128.77ZM214.975 130.59H210.575C210.615 131.137 210.825 131.58 211.205 131.92C211.585 132.253 212.065 132.42 212.645 132.42C212.971 132.42 213.271 132.363 213.545 132.25C213.818 132.13 214.055 131.957 214.255 131.73L214.655 132.19C214.421 132.47 214.128 132.683 213.775 132.83C213.428 132.977 213.045 133.05 212.625 133.05C212.085 133.05 211.605 132.937 211.185 132.71C210.771 132.477 210.448 132.157 210.215 131.75C209.981 131.343 209.865 130.883 209.865 130.37C209.865 129.857 209.975 129.397 210.195 128.99C210.421 128.583 210.728 128.267 211.115 128.04C211.508 127.813 211.948 127.7 212.435 127.7C212.921 127.7 213.358 127.813 213.745 128.04C214.131 128.267 214.435 128.583 214.655 128.99C214.875 129.39 214.985 129.85 214.985 130.37L214.975 130.59ZM212.435 128.31C211.928 128.31 211.501 128.473 211.155 128.8C210.815 129.12 210.621 129.54 210.575 130.06H214.305C214.258 129.54 214.061 129.12 213.715 128.8C213.375 128.473 212.948 128.31 212.435 128.31ZM221.01 130.59H216.61C216.65 131.137 216.86 131.58 217.24 131.92C217.62 132.253 218.1 132.42 218.68 132.42C219.007 132.42 219.307 132.363 219.58 132.25C219.853 132.13 220.09 131.957 220.29 131.73L220.69 132.19C220.457 132.47 220.163 132.683 219.81 132.83C219.463 132.977 219.08 133.05 218.66 133.05C218.12 133.05 217.64 132.937 217.22 132.71C216.807 132.477 216.483 132.157 216.25 131.75C216.017 131.343 215.9 130.883 215.9 130.37C215.9 129.857 216.01 129.397 216.23 128.99C216.457 128.583 216.763 128.267 217.15 128.04C217.543 127.813 217.983 127.7 218.47 127.7C218.957 127.7 219.393 127.813 219.78 128.04C220.167 128.267 220.47 128.583 220.69 128.99C220.91 129.39 221.02 129.85 221.02 130.37L221.01 130.59ZM218.47 128.31C217.963 128.31 217.537 128.473 217.19 128.8C216.85 129.12 216.657 129.54 216.61 130.06H220.34C220.293 129.54 220.097 129.12 219.75 128.8C219.41 128.473 218.983 128.31 218.47 128.31ZM225.235 132.68C225.102 132.8 224.935 132.893 224.735 132.96C224.542 133.02 224.338 133.05 224.125 133.05C223.632 133.05 223.252 132.917 222.985 132.65C222.718 132.383 222.585 132.007 222.585 131.52V128.34H221.645V127.74H222.585V126.59H223.295V127.74H224.895V128.34H223.295V131.48C223.295 131.793 223.372 132.033 223.525 132.2C223.685 132.36 223.912 132.44 224.205 132.44C224.352 132.44 224.492 132.417 224.625 132.37C224.765 132.323 224.885 132.257 224.985 132.17L225.235 132.68ZM234.15 127.74L232.16 133H231.49L229.83 128.69L228.17 133H227.5L225.52 127.74H226.2L227.85 132.21L229.54 127.74H230.15L231.83 132.21L233.5 127.74H234.15ZM239.653 130.59H235.253C235.293 131.137 235.503 131.58 235.883 131.92C236.263 132.253 236.743 132.42 237.323 132.42C237.649 132.42 237.949 132.363 238.223 132.25C238.496 132.13 238.733 131.957 238.933 131.73L239.333 132.19C239.099 132.47 238.806 132.683 238.453 132.83C238.106 132.977 237.723 133.05 237.303 133.05C236.763 133.05 236.283 132.937 235.863 132.71C235.449 132.477 235.126 132.157 234.893 131.75C234.659 131.343 234.543 130.883 234.543 130.37C234.543 129.857 234.653 129.397 234.873 128.99C235.099 128.583 235.406 128.267 235.793 128.04C236.186 127.813 236.626 127.7 237.113 127.7C237.599 127.7 238.036 127.813 238.423 128.04C238.809 128.267 239.113 128.583 239.333 128.99C239.553 129.39 239.663 129.85 239.663 130.37L239.653 130.59ZM237.113 128.31C236.606 128.31 236.179 128.473 235.833 128.8C235.493 129.12 235.299 129.54 235.253 130.06H238.983C238.936 129.54 238.739 129.12 238.393 128.8C238.053 128.473 237.626 128.31 237.113 128.31ZM242.801 127.7C243.488 127.7 244.015 127.873 244.381 128.22C244.748 128.56 244.931 129.067 244.931 129.74V133H244.251V132.18C244.091 132.453 243.855 132.667 243.541 132.82C243.235 132.973 242.868 133.05 242.441 133.05C241.855 133.05 241.388 132.91 241.041 132.63C240.695 132.35 240.521 131.98 240.521 131.52C240.521 131.073 240.681 130.713 241.001 130.44C241.328 130.167 241.845 130.03 242.551 130.03H244.221V129.71C244.221 129.257 244.095 128.913 243.841 128.68C243.588 128.44 243.218 128.32 242.731 128.32C242.398 128.32 242.078 128.377 241.771 128.49C241.465 128.597 241.201 128.747 240.981 128.94L240.661 128.41C240.928 128.183 241.248 128.01 241.621 127.89C241.995 127.763 242.388 127.7 242.801 127.7ZM242.551 132.49C242.951 132.49 243.295 132.4 243.581 132.22C243.868 132.033 244.081 131.767 244.221 131.42V130.56H242.571C241.671 130.56 241.221 130.873 241.221 131.5C241.221 131.807 241.338 132.05 241.571 132.23C241.805 132.403 242.131 132.49 242.551 132.49ZM247.54 128.77C247.706 128.417 247.953 128.15 248.28 127.97C248.613 127.79 249.023 127.7 249.51 127.7V128.39L249.34 128.38C248.786 128.38 248.353 128.55 248.04 128.89C247.726 129.23 247.57 129.707 247.57 130.32V133H246.86V127.74H247.54V128.77Z" fill="white"/>
</svg>
