<svg width="413" height="227" viewBox="0 0 413 227" fill="none" xmlns="http://www.w3.org/2000/svg">
<rect x="-1" width="414" height="227" fill="#1B1920"/>
<path d="M0 0H207V227H0V0Z" fill="#EC1C24"/>
<path d="M207 99H251V121.459H207" stroke="#EC1C24"/>
<path d="M207 97H216V94.5H207" stroke="#EC1C24"/>
<path d="M207 80L212 90L222 86L215.5 95" stroke="#EC1C24"/>
<path d="M207 80C208.105 80 209 79.1046 209 78C209 76.8954 208.105 76 207 76" stroke="#EC1C24"/>
<circle cx="224" cy="84" r="1.5" stroke="#EC1C24"/>
<path d="M207 99H163V121.459H207" stroke="#1B1920"/>
<path d="M207 97H198V94.5H207" stroke="#1B1920"/>
<path d="M207 80L202 90L192 86L198.5 95" stroke="#1B1920"/>
<path d="M207 80C205.895 80 205 79.1046 205 78C205 76.8954 205.895 76 207 76" stroke="#1B1920"/>
<circle r="1.5" transform="matrix(-1 0 0 1 190 84)" stroke="#1B1920"/>
<path d="M220 97H242" stroke="#EC1C24"/>
<path d="M172 97H194" stroke="#1B1920"/>
<path d="M185.111 112.473V113H181.032V107.231H184.988V107.759H181.642V109.811H184.625V110.33H181.642V112.473H185.111ZM191.452 113.066L190.87 112.466C190.514 112.846 190.046 113.036 189.466 113.036C189.194 113.036 188.95 112.992 188.734 112.904C188.522 112.812 188.356 112.686 188.236 112.526C188.116 112.362 188.056 112.176 188.056 111.968C188.056 111.716 188.136 111.49 188.296 111.29C188.456 111.09 188.728 110.88 189.112 110.66C188.912 110.452 188.774 110.276 188.698 110.132C188.622 109.984 188.584 109.828 188.584 109.664C188.584 109.396 188.68 109.18 188.872 109.016C189.064 108.852 189.322 108.77 189.646 108.77C189.946 108.77 190.184 108.844 190.36 108.992C190.536 109.14 190.624 109.344 190.624 109.604C190.624 109.812 190.554 110 190.414 110.168C190.274 110.332 190.032 110.514 189.688 110.714L190.84 111.902C190.968 111.674 191.062 111.404 191.122 111.092L191.47 111.2C191.394 111.576 191.27 111.898 191.098 112.166L191.698 112.784L191.452 113.066ZM189.646 109.088C189.438 109.088 189.274 109.14 189.154 109.244C189.038 109.348 188.98 109.486 188.98 109.658C188.98 109.782 189.012 109.9 189.076 110.012C189.14 110.124 189.266 110.276 189.454 110.468C189.758 110.292 189.968 110.142 190.084 110.018C190.2 109.894 190.258 109.758 190.258 109.61C190.258 109.45 190.204 109.324 190.096 109.232C189.988 109.136 189.838 109.088 189.646 109.088ZM189.49 112.682C189.954 112.682 190.33 112.524 190.618 112.208L189.352 110.906C189.02 111.094 188.79 111.264 188.662 111.416C188.538 111.568 188.476 111.738 188.476 111.926C188.476 112.154 188.568 112.338 188.752 112.478C188.94 112.614 189.186 112.682 189.49 112.682ZM196.462 113.049C196.034 113.049 195.622 112.981 195.226 112.843C194.836 112.706 194.534 112.525 194.32 112.3L194.559 111.83C194.768 112.039 195.045 112.209 195.391 112.341C195.737 112.467 196.094 112.53 196.462 112.53C196.979 112.53 197.366 112.437 197.624 112.25C197.883 112.058 198.012 111.811 198.012 111.508C198.012 111.278 197.94 111.094 197.797 110.956C197.66 110.819 197.49 110.715 197.286 110.643C197.083 110.566 196.8 110.484 196.438 110.396C196.004 110.286 195.658 110.182 195.399 110.083C195.141 109.978 194.919 109.822 194.732 109.613C194.551 109.404 194.46 109.121 194.46 108.764C194.46 108.473 194.537 108.209 194.691 107.973C194.844 107.731 195.081 107.539 195.399 107.396C195.718 107.253 196.114 107.182 196.586 107.182C196.916 107.182 197.237 107.229 197.55 107.322C197.869 107.41 198.144 107.534 198.374 107.693L198.168 108.179C197.927 108.02 197.668 107.902 197.394 107.825C197.119 107.742 196.85 107.701 196.586 107.701C196.081 107.701 195.699 107.8 195.441 107.998C195.188 108.19 195.061 108.44 195.061 108.748C195.061 108.979 195.13 109.165 195.267 109.308C195.41 109.445 195.586 109.553 195.795 109.63C196.009 109.701 196.295 109.781 196.652 109.869C197.075 109.973 197.416 110.077 197.674 110.182C197.938 110.281 198.16 110.434 198.341 110.643C198.523 110.846 198.613 111.124 198.613 111.475C198.613 111.767 198.534 112.033 198.374 112.275C198.22 112.511 197.981 112.701 197.657 112.843C197.333 112.981 196.935 113.049 196.462 113.049ZM203.001 113.036C202.689 113.036 202.389 112.986 202.101 112.886C201.817 112.786 201.597 112.654 201.441 112.49L201.615 112.148C201.767 112.3 201.969 112.424 202.221 112.52C202.473 112.612 202.733 112.658 203.001 112.658C203.377 112.658 203.659 112.59 203.847 112.454C204.035 112.314 204.129 112.134 204.129 111.914C204.129 111.746 204.077 111.612 203.973 111.512C203.873 111.412 203.749 111.336 203.601 111.284C203.453 111.228 203.247 111.168 202.983 111.104C202.667 111.024 202.415 110.948 202.227 110.876C202.039 110.8 201.877 110.686 201.741 110.534C201.609 110.382 201.543 110.176 201.543 109.916C201.543 109.704 201.599 109.512 201.711 109.34C201.823 109.164 201.995 109.024 202.227 108.92C202.459 108.816 202.747 108.764 203.091 108.764C203.331 108.764 203.565 108.798 203.793 108.866C204.025 108.93 204.225 109.02 204.393 109.136L204.243 109.49C204.067 109.374 203.879 109.288 203.679 109.232C203.479 109.172 203.283 109.142 203.091 109.142C202.723 109.142 202.445 109.214 202.257 109.358C202.073 109.498 201.981 109.68 201.981 109.904C201.981 110.072 202.031 110.208 202.131 110.312C202.235 110.412 202.363 110.49 202.515 110.546C202.671 110.598 202.879 110.656 203.139 110.72C203.447 110.796 203.695 110.872 203.883 110.948C204.075 111.02 204.237 111.132 204.369 111.284C204.501 111.432 204.567 111.634 204.567 111.89C204.567 112.102 204.509 112.296 204.393 112.472C204.281 112.644 204.107 112.782 203.871 112.886C203.635 112.986 203.345 113.036 203.001 113.036ZM207.107 112.808C207.027 112.88 206.927 112.936 206.807 112.976C206.691 113.012 206.569 113.03 206.441 113.03C206.145 113.03 205.917 112.95 205.757 112.79C205.597 112.63 205.517 112.404 205.517 112.112V110.204H204.953V109.844H205.517V109.154H205.943V109.844H206.903V110.204H205.943V112.088C205.943 112.276 205.989 112.42 206.081 112.52C206.177 112.616 206.313 112.664 206.489 112.664C206.577 112.664 206.661 112.65 206.741 112.622C206.825 112.594 206.897 112.554 206.957 112.502L207.107 112.808Z" fill="#1B1920"/>
<path d="M208.29 110.462C208.39 110.25 208.538 110.09 208.734 109.982C208.934 109.874 209.18 109.82 209.472 109.82V110.234L209.37 110.228C209.038 110.228 208.778 110.33 208.59 110.534C208.402 110.738 208.308 111.024 208.308 111.392V113H207.882V109.844H208.29V110.462ZM212.962 111.554H210.322C210.346 111.882 210.472 112.148 210.7 112.352C210.928 112.552 211.216 112.652 211.564 112.652C211.76 112.652 211.94 112.618 212.104 112.55C212.268 112.478 212.41 112.374 212.53 112.238L212.77 112.514C212.63 112.682 212.454 112.81 212.242 112.898C212.034 112.986 211.804 113.03 211.552 113.03C211.228 113.03 210.94 112.962 210.688 112.826C210.44 112.686 210.246 112.494 210.106 112.25C209.966 112.006 209.896 111.73 209.896 111.422C209.896 111.114 209.962 110.838 210.094 110.594C210.23 110.35 210.414 110.16 210.646 110.024C210.882 109.888 211.146 109.82 211.438 109.82C211.73 109.82 211.992 109.888 212.224 110.024C212.456 110.16 212.638 110.35 212.77 110.594C212.902 110.834 212.968 111.11 212.968 111.422L212.962 111.554ZM211.438 110.186C211.134 110.186 210.878 110.284 210.67 110.48C210.466 110.672 210.35 110.924 210.322 111.236H212.56C212.532 110.924 212.414 110.672 212.206 110.48C212.002 110.284 211.746 110.186 211.438 110.186ZM216.583 111.554H213.943C213.967 111.882 214.093 112.148 214.321 112.352C214.549 112.552 214.837 112.652 215.185 112.652C215.381 112.652 215.561 112.618 215.725 112.55C215.889 112.478 216.031 112.374 216.151 112.238L216.391 112.514C216.251 112.682 216.075 112.81 215.863 112.898C215.655 112.986 215.425 113.03 215.173 113.03C214.849 113.03 214.561 112.962 214.309 112.826C214.061 112.686 213.867 112.494 213.727 112.25C213.587 112.006 213.517 111.73 213.517 111.422C213.517 111.114 213.583 110.838 213.715 110.594C213.851 110.35 214.035 110.16 214.267 110.024C214.503 109.888 214.767 109.82 215.059 109.82C215.351 109.82 215.613 109.888 215.845 110.024C216.077 110.16 216.259 110.35 216.391 110.594C216.523 110.834 216.589 111.11 216.589 111.422L216.583 111.554ZM215.059 110.186C214.755 110.186 214.499 110.284 214.291 110.48C214.087 110.672 213.971 110.924 213.943 111.236H216.181C216.153 110.924 216.035 110.672 215.827 110.48C215.623 110.284 215.367 110.186 215.059 110.186ZM219.118 112.808C219.038 112.88 218.938 112.936 218.818 112.976C218.702 113.012 218.58 113.03 218.452 113.03C218.156 113.03 217.928 112.95 217.768 112.79C217.608 112.63 217.528 112.404 217.528 112.112V110.204H216.964V109.844H217.528V109.154H217.954V109.844H218.914V110.204H217.954V112.088C217.954 112.276 218 112.42 218.092 112.52C218.188 112.616 218.324 112.664 218.5 112.664C218.588 112.664 218.672 112.65 218.752 112.622C218.836 112.594 218.908 112.554 218.968 112.502L219.118 112.808ZM224.467 109.844L223.273 113H222.871L221.875 110.414L220.879 113H220.477L219.289 109.844H219.697L220.687 112.526L221.701 109.844H222.067L223.075 112.526L224.077 109.844H224.467ZM227.769 111.554H225.129C225.153 111.882 225.279 112.148 225.507 112.352C225.735 112.552 226.023 112.652 226.371 112.652C226.567 112.652 226.747 112.618 226.911 112.55C227.075 112.478 227.217 112.374 227.337 112.238L227.577 112.514C227.437 112.682 227.261 112.81 227.049 112.898C226.841 112.986 226.611 113.03 226.359 113.03C226.035 113.03 225.747 112.962 225.495 112.826C225.247 112.686 225.053 112.494 224.913 112.25C224.773 112.006 224.703 111.73 224.703 111.422C224.703 111.114 224.769 110.838 224.901 110.594C225.037 110.35 225.221 110.16 225.453 110.024C225.689 109.888 225.953 109.82 226.245 109.82C226.537 109.82 226.799 109.888 227.031 110.024C227.263 110.16 227.445 110.35 227.577 110.594C227.709 110.834 227.775 111.11 227.775 111.422L227.769 111.554ZM226.245 110.186C225.941 110.186 225.685 110.284 225.477 110.48C225.273 110.672 225.157 110.924 225.129 111.236H227.367C227.339 110.924 227.221 110.672 227.013 110.48C226.809 110.284 226.553 110.186 226.245 110.186ZM229.658 109.82C230.07 109.82 230.386 109.924 230.606 110.132C230.826 110.336 230.936 110.64 230.936 111.044V113H230.528V112.508C230.432 112.672 230.29 112.8 230.102 112.892C229.918 112.984 229.698 113.03 229.442 113.03C229.09 113.03 228.81 112.946 228.602 112.778C228.394 112.61 228.29 112.388 228.29 112.112C228.29 111.844 228.386 111.628 228.578 111.464C228.774 111.3 229.084 111.218 229.508 111.218H230.51V111.026C230.51 110.754 230.434 110.548 230.282 110.408C230.13 110.264 229.908 110.192 229.616 110.192C229.416 110.192 229.224 110.226 229.04 110.294C228.856 110.358 228.698 110.448 228.566 110.564L228.374 110.246C228.534 110.11 228.726 110.006 228.95 109.934C229.174 109.858 229.41 109.82 229.658 109.82ZM229.508 112.694C229.748 112.694 229.954 112.64 230.126 112.532C230.298 112.42 230.426 112.26 230.51 112.052V111.536H229.52C228.98 111.536 228.71 111.724 228.71 112.1C228.71 112.284 228.78 112.43 228.92 112.538C229.06 112.642 229.256 112.694 229.508 112.694ZM232.501 110.462C232.601 110.25 232.749 110.09 232.945 109.982C233.145 109.874 233.391 109.82 233.683 109.82V110.234L233.581 110.228C233.249 110.228 232.989 110.33 232.801 110.534C232.613 110.738 232.519 111.024 232.519 111.392V113H232.093V109.844H232.501V110.462Z" fill="#EC1C24"/>
</svg>
