<svg width="414" height="227" viewBox="0 0 414 227" fill="none" xmlns="http://www.w3.org/2000/svg">
<rect width="414" height="227" fill="#1B1920"/>
<path d="M210.28 117.06C209.76 117.06 209.26 116.977 208.78 116.81C208.307 116.643 207.94 116.423 207.68 116.15L207.97 115.58C208.223 115.833 208.56 116.04 208.98 116.2C209.4 116.353 209.833 116.43 210.28 116.43C210.907 116.43 211.377 116.317 211.69 116.09C212.003 115.857 212.16 115.557 212.16 115.19C212.16 114.91 212.073 114.687 211.9 114.52C211.733 114.353 211.527 114.227 211.28 114.14C211.033 114.047 210.69 113.947 210.25 113.84C209.723 113.707 209.303 113.58 208.99 113.46C208.677 113.333 208.407 113.143 208.18 112.89C207.96 112.637 207.85 112.293 207.85 111.86C207.85 111.507 207.943 111.187 208.13 110.9C208.317 110.607 208.603 110.373 208.99 110.2C209.377 110.027 209.857 109.94 210.43 109.94C210.83 109.94 211.22 109.997 211.6 110.11C211.987 110.217 212.32 110.367 212.6 110.56L212.35 111.15C212.057 110.957 211.743 110.813 211.41 110.72C211.077 110.62 210.75 110.57 210.43 110.57C209.817 110.57 209.353 110.69 209.04 110.93C208.733 111.163 208.58 111.467 208.58 111.84C208.58 112.12 208.663 112.347 208.83 112.52C209.003 112.687 209.217 112.817 209.47 112.91C209.73 112.997 210.077 113.093 210.51 113.2C211.023 113.327 211.437 113.453 211.75 113.58C212.07 113.7 212.34 113.887 212.56 114.14C212.78 114.387 212.89 114.723 212.89 115.15C212.89 115.503 212.793 115.827 212.6 116.12C212.413 116.407 212.123 116.637 211.73 116.81C211.337 116.977 210.853 117.06 210.28 117.06ZM217.122 116.68C216.989 116.8 216.822 116.893 216.622 116.96C216.429 117.02 216.226 117.05 216.012 117.05C215.519 117.05 215.139 116.917 214.872 116.65C214.606 116.383 214.472 116.007 214.472 115.52V112.34H213.532V111.74H214.472V110.59H215.182V111.74H216.782V112.34H215.182V115.48C215.182 115.793 215.259 116.033 215.412 116.2C215.572 116.36 215.799 116.44 216.092 116.44C216.239 116.44 216.379 116.417 216.512 116.37C216.652 116.323 216.772 116.257 216.872 116.17L217.122 116.68ZM219.095 112.77C219.261 112.417 219.508 112.15 219.835 111.97C220.168 111.79 220.578 111.7 221.065 111.7V112.39L220.895 112.38C220.341 112.38 219.908 112.55 219.595 112.89C219.281 113.23 219.125 113.707 219.125 114.32V117H218.415V111.74H219.095V112.77ZM226.882 114.59H222.482C222.522 115.137 222.732 115.58 223.112 115.92C223.492 116.253 223.972 116.42 224.552 116.42C224.878 116.42 225.178 116.363 225.452 116.25C225.725 116.13 225.962 115.957 226.162 115.73L226.562 116.19C226.328 116.47 226.035 116.683 225.682 116.83C225.335 116.977 224.952 117.05 224.532 117.05C223.992 117.05 223.512 116.937 223.092 116.71C222.678 116.477 222.355 116.157 222.122 115.75C221.888 115.343 221.772 114.883 221.772 114.37C221.772 113.857 221.882 113.397 222.102 112.99C222.328 112.583 222.635 112.267 223.022 112.04C223.415 111.813 223.855 111.7 224.342 111.7C224.828 111.7 225.265 111.813 225.652 112.04C226.038 112.267 226.342 112.583 226.562 112.99C226.782 113.39 226.892 113.85 226.892 114.37L226.882 114.59ZM224.342 112.31C223.835 112.31 223.408 112.473 223.062 112.8C222.722 113.12 222.528 113.54 222.482 114.06H226.212C226.165 113.54 225.968 113.12 225.622 112.8C225.282 112.473 224.855 112.31 224.342 112.31ZM232.917 114.59H228.517C228.557 115.137 228.767 115.58 229.147 115.92C229.527 116.253 230.007 116.42 230.587 116.42C230.913 116.42 231.213 116.363 231.487 116.25C231.76 116.13 231.997 115.957 232.197 115.73L232.597 116.19C232.363 116.47 232.07 116.683 231.717 116.83C231.37 116.977 230.987 117.05 230.567 117.05C230.027 117.05 229.547 116.937 229.127 116.71C228.713 116.477 228.39 116.157 228.157 115.75C227.923 115.343 227.807 114.883 227.807 114.37C227.807 113.857 227.917 113.397 228.137 112.99C228.363 112.583 228.67 112.267 229.057 112.04C229.45 111.813 229.89 111.7 230.377 111.7C230.863 111.7 231.3 111.813 231.687 112.04C232.073 112.267 232.377 112.583 232.597 112.99C232.817 113.39 232.927 113.85 232.927 114.37L232.917 114.59ZM230.377 112.31C229.87 112.31 229.443 112.473 229.097 112.8C228.757 113.12 228.563 113.54 228.517 114.06H232.247C232.2 113.54 232.003 113.12 231.657 112.8C231.317 112.473 230.89 112.31 230.377 112.31ZM237.142 116.68C237.009 116.8 236.842 116.893 236.642 116.96C236.449 117.02 236.245 117.05 236.032 117.05C235.539 117.05 235.159 116.917 234.892 116.65C234.625 116.383 234.492 116.007 234.492 115.52V112.34H233.552V111.74H234.492V110.59H235.202V111.74H236.802V112.34H235.202V115.48C235.202 115.793 235.279 116.033 235.432 116.2C235.592 116.36 235.819 116.44 236.112 116.44C236.259 116.44 236.399 116.417 236.532 116.37C236.672 116.323 236.792 116.257 236.892 116.17L237.142 116.68ZM246.057 111.74L244.067 117H243.397L241.737 112.69L240.077 117H239.407L237.427 111.74H238.107L239.757 116.21L241.447 111.74H242.057L243.737 116.21L245.407 111.74H246.057ZM251.559 114.59H247.159C247.199 115.137 247.409 115.58 247.789 115.92C248.169 116.253 248.649 116.42 249.229 116.42C249.556 116.42 249.856 116.363 250.129 116.25C250.403 116.13 250.639 115.957 250.839 115.73L251.239 116.19C251.006 116.47 250.713 116.683 250.359 116.83C250.013 116.977 249.629 117.05 249.209 117.05C248.669 117.05 248.189 116.937 247.769 116.71C247.356 116.477 247.033 116.157 246.799 115.75C246.566 115.343 246.449 114.883 246.449 114.37C246.449 113.857 246.559 113.397 246.779 112.99C247.006 112.583 247.313 112.267 247.699 112.04C248.093 111.813 248.533 111.7 249.019 111.7C249.506 111.7 249.943 111.813 250.329 112.04C250.716 112.267 251.019 112.583 251.239 112.99C251.459 113.39 251.569 113.85 251.569 114.37L251.559 114.59ZM249.019 112.31C248.513 112.31 248.086 112.473 247.739 112.8C247.399 113.12 247.206 113.54 247.159 114.06H250.889C250.843 113.54 250.646 113.12 250.299 112.8C249.959 112.473 249.533 112.31 249.019 112.31ZM254.708 111.7C255.395 111.7 255.921 111.873 256.288 112.22C256.655 112.56 256.838 113.067 256.838 113.74V117H256.158V116.18C255.998 116.453 255.761 116.667 255.448 116.82C255.141 116.973 254.775 117.05 254.348 117.05C253.761 117.05 253.295 116.91 252.948 116.63C252.601 116.35 252.428 115.98 252.428 115.52C252.428 115.073 252.588 114.713 252.908 114.44C253.235 114.167 253.751 114.03 254.458 114.03H256.128V113.71C256.128 113.257 256.001 112.913 255.748 112.68C255.495 112.44 255.125 112.32 254.638 112.32C254.305 112.32 253.985 112.377 253.678 112.49C253.371 112.597 253.108 112.747 252.888 112.94L252.568 112.41C252.835 112.183 253.155 112.01 253.528 111.89C253.901 111.763 254.295 111.7 254.708 111.7ZM254.458 116.49C254.858 116.49 255.201 116.4 255.488 116.22C255.775 116.033 255.988 115.767 256.128 115.42V114.56H254.478C253.578 114.56 253.128 114.873 253.128 115.5C253.128 115.807 253.245 116.05 253.478 116.23C253.711 116.403 254.038 116.49 254.458 116.49ZM259.446 112.77C259.613 112.417 259.86 112.15 260.186 111.97C260.52 111.79 260.93 111.7 261.416 111.7V112.39L261.246 112.38C260.693 112.38 260.26 112.55 259.946 112.89C259.633 113.23 259.476 113.707 259.476 114.32V117H258.766V111.74H259.446V112.77Z" fill="white"/>
<path d="M195.991 118.09C195.211 118.09 194.461 117.965 193.741 117.715C193.031 117.465 192.481 117.135 192.091 116.725L192.526 115.87C192.906 116.25 193.411 116.56 194.041 116.8C194.671 117.03 195.321 117.145 195.991 117.145C196.931 117.145 197.636 116.975 198.106 116.635C198.576 116.285 198.811 115.835 198.811 115.285C198.811 114.865 198.681 114.53 198.421 114.28C198.171 114.03 197.861 113.84 197.491 113.71C197.121 113.57 196.606 113.42 195.946 113.26C195.156 113.06 194.526 112.87 194.056 112.69C193.586 112.5 193.181 112.215 192.841 111.835C192.511 111.455 192.346 110.94 192.346 110.29C192.346 109.76 192.486 109.28 192.766 108.85C193.046 108.41 193.476 108.06 194.056 107.8C194.636 107.54 195.356 107.41 196.216 107.41C196.816 107.41 197.401 107.495 197.971 107.665C198.551 107.825 199.051 108.05 199.471 108.34L199.096 109.225C198.656 108.935 198.186 108.72 197.686 108.58C197.186 108.43 196.696 108.355 196.216 108.355C195.296 108.355 194.601 108.535 194.131 108.895C193.671 109.245 193.441 109.7 193.441 110.26C193.441 110.68 193.566 111.02 193.816 111.28C194.076 111.53 194.396 111.725 194.776 111.865C195.166 111.995 195.686 112.14 196.336 112.3C197.106 112.49 197.726 112.68 198.196 112.87C198.676 113.05 199.081 113.33 199.411 113.71C199.741 114.08 199.906 114.585 199.906 115.225C199.906 115.755 199.761 116.24 199.471 116.68C199.191 117.11 198.756 117.455 198.166 117.715C197.576 117.965 196.851 118.09 195.991 118.09Z" fill="white"/>
<path d="M158.618 117.04V118H151.193V107.5H158.393V108.46H152.303V112.195H157.733V113.14H152.303V117.04H158.618Z" fill="white"/>
<path d="M171.594 96C174.975 99.0067 176.773 98.925 179.842 96L183.284 97.619C182.924 103.291 182.934 106.161 185.364 107.738V130H166" stroke="#EC1C24" stroke-width="1.12583"/>
<path d="M179.77 96C176.389 99.0067 174.591 98.925 171.522 96L168.08 97.619C168.44 103.291 168.43 106.161 166 107.738V130H185.364" stroke="#EC1C24" stroke-width="1.12583"/>
<path d="M178.305 117.11L177.335 116.11C176.742 116.743 175.962 117.06 174.995 117.06C174.542 117.06 174.135 116.987 173.775 116.84C173.422 116.687 173.145 116.477 172.945 116.21C172.745 115.937 172.645 115.627 172.645 115.28C172.645 114.86 172.779 114.483 173.045 114.15C173.312 113.817 173.765 113.467 174.405 113.1C174.072 112.753 173.842 112.46 173.715 112.22C173.589 111.973 173.525 111.713 173.525 111.44C173.525 110.993 173.685 110.633 174.005 110.36C174.325 110.087 174.755 109.95 175.295 109.95C175.795 109.95 176.192 110.073 176.485 110.32C176.779 110.567 176.925 110.907 176.925 111.34C176.925 111.687 176.809 112 176.575 112.28C176.342 112.553 175.939 112.857 175.365 113.19L177.285 115.17C177.499 114.79 177.655 114.34 177.755 113.82L178.335 114C178.209 114.627 178.002 115.163 177.715 115.61L178.715 116.64L178.305 117.11ZM175.295 110.48C174.949 110.48 174.675 110.567 174.475 110.74C174.282 110.913 174.185 111.143 174.185 111.43C174.185 111.637 174.239 111.833 174.345 112.02C174.452 112.207 174.662 112.46 174.975 112.78C175.482 112.487 175.832 112.237 176.025 112.03C176.219 111.823 176.315 111.597 176.315 111.35C176.315 111.083 176.225 110.873 176.045 110.72C175.865 110.56 175.615 110.48 175.295 110.48ZM175.035 116.47C175.809 116.47 176.435 116.207 176.915 115.68L174.805 113.51C174.252 113.823 173.869 114.107 173.655 114.36C173.449 114.613 173.345 114.897 173.345 115.21C173.345 115.59 173.499 115.897 173.805 116.13C174.119 116.357 174.529 116.47 175.035 116.47Z" fill="#EC1C24"/>
</svg>
