<svg width="414" height="227" viewBox="0 0 414 227" fill="none" xmlns="http://www.w3.org/2000/svg">
<rect width="414" height="227" fill="#1B1920"/>
<rect x="162.494" y="91.1949" width="88.0111" height="21.47" stroke="#EC1C24" stroke-width="0.988889"/>
<rect x="-0.494444" y="0.494444" width="16.4815" height="2.30741" transform="matrix(-1 0 0 1 214.081 84.8112)" stroke="#EC1C24" stroke-width="0.988889"/>
<path d="M198.612 85.629L194.212 77.3715L201.934 82.2793L206.583 71.1394L211.15 82.2793L218.788 77.3715L214.554 85.629" stroke="#EC1C24" stroke-width="0.988889"/>
<path d="M193.524 75.1735C193.524 75.7388 193.027 76.2487 192.348 76.2487C191.669 76.2487 191.172 75.7388 191.172 75.1735C191.172 74.6081 191.669 74.0982 192.348 74.0982C193.027 74.0982 193.524 74.6081 193.524 75.1735Z" stroke="#EC1C24" stroke-width="0.988889"/>
<path d="M207.698 68.9104C207.698 69.4758 207.201 69.9857 206.522 69.9857C205.843 69.9857 205.346 69.4758 205.346 68.9104C205.346 68.345 205.843 67.8351 206.522 67.8351C207.201 67.8351 207.698 68.345 207.698 68.9104Z" stroke="#EC1C24" stroke-width="0.988889"/>
<path d="M222.202 75.1735C222.202 75.7388 221.704 76.2487 221.026 76.2487C220.347 76.2487 219.85 75.7388 219.85 75.1735C219.85 74.6081 220.347 74.0982 221.026 74.0982C221.704 74.0982 222.202 74.6081 222.202 75.1735Z" stroke="#EC1C24" stroke-width="0.988889"/>
<path d="M177.747 104.693V105.221H173.668V99.4522H177.623V99.9796H174.277V102.032H177.261V102.551H174.277V104.693H177.747ZM185.466 105.311L184.666 104.487C184.177 105.009 183.535 105.27 182.738 105.27C182.364 105.27 182.029 105.21 181.733 105.089C181.441 104.962 181.213 104.789 181.049 104.57C180.884 104.344 180.801 104.089 180.801 103.803C180.801 103.457 180.911 103.147 181.131 102.872C181.351 102.597 181.724 102.309 182.252 102.007C181.977 101.721 181.787 101.479 181.683 101.282C181.579 101.078 181.527 100.864 181.527 100.639C181.527 100.271 181.658 99.9741 181.922 99.7489C182.186 99.5236 182.54 99.411 182.985 99.411C183.397 99.411 183.724 99.5126 183.966 99.7159C184.208 99.9192 184.328 100.199 184.328 100.556C184.328 100.842 184.232 101.1 184.04 101.331C183.848 101.556 183.515 101.806 183.043 102.081L184.625 103.713C184.801 103.399 184.93 103.029 185.012 102.6L185.49 102.748C185.386 103.265 185.216 103.707 184.979 104.075L185.803 104.924L185.466 105.311ZM182.985 99.8477C182.699 99.8477 182.474 99.9192 182.309 100.062C182.15 100.205 182.07 100.394 182.07 100.631C182.07 100.801 182.114 100.963 182.202 101.117C182.29 101.271 182.463 101.479 182.721 101.743C183.139 101.501 183.427 101.295 183.587 101.125C183.746 100.955 183.826 100.768 183.826 100.565C183.826 100.345 183.752 100.172 183.603 100.046C183.455 99.9137 183.249 99.8477 182.985 99.8477ZM182.771 104.784C183.408 104.784 183.925 104.567 184.32 104.133L182.581 102.345C182.125 102.603 181.809 102.836 181.634 103.045C181.463 103.254 181.378 103.487 181.378 103.746C181.378 104.059 181.505 104.311 181.757 104.504C182.015 104.691 182.353 104.784 182.771 104.784ZM190.597 105.27C190.168 105.27 189.756 105.201 189.361 105.064C188.971 104.927 188.668 104.745 188.454 104.52L188.693 104.051C188.902 104.259 189.179 104.43 189.526 104.561C189.872 104.688 190.229 104.751 190.597 104.751C191.113 104.751 191.501 104.658 191.759 104.471C192.017 104.279 192.146 104.031 192.146 103.729C192.146 103.498 192.075 103.314 191.932 103.177C191.794 103.04 191.624 102.935 191.421 102.864C191.218 102.787 190.935 102.705 190.572 102.617C190.138 102.507 189.792 102.402 189.534 102.303C189.276 102.199 189.053 102.043 188.866 101.834C188.685 101.625 188.594 101.342 188.594 100.985C188.594 100.694 188.671 100.43 188.825 100.194C188.979 99.9521 189.215 99.7598 189.534 99.617C189.852 99.4742 190.248 99.4027 190.72 99.4027C191.05 99.4027 191.371 99.4494 191.685 99.5428C192.003 99.6307 192.278 99.7543 192.509 99.9137L192.303 100.4C192.061 100.241 191.803 100.122 191.528 100.046C191.253 99.9631 190.984 99.9219 190.72 99.9219C190.215 99.9219 189.833 100.021 189.575 100.219C189.322 100.411 189.196 100.661 189.196 100.968C189.196 101.199 189.265 101.386 189.402 101.529C189.545 101.666 189.721 101.773 189.929 101.85C190.144 101.922 190.429 102.001 190.786 102.089C191.209 102.194 191.55 102.298 191.808 102.402C192.072 102.501 192.294 102.655 192.476 102.864C192.657 103.067 192.748 103.345 192.748 103.696C192.748 103.987 192.668 104.254 192.509 104.496C192.355 104.732 192.116 104.921 191.792 105.064C191.468 105.201 191.069 105.27 190.597 105.27ZM197.824 105.27C197.395 105.27 196.983 105.201 196.587 105.064C196.197 104.927 195.895 104.745 195.681 104.52L195.92 104.051C196.129 104.259 196.406 104.43 196.752 104.561C197.098 104.688 197.455 104.751 197.824 104.751C198.34 104.751 198.727 104.658 198.986 104.471C199.244 104.279 199.373 104.031 199.373 103.729C199.373 103.498 199.301 103.314 199.159 103.177C199.021 103.04 198.851 102.935 198.648 102.864C198.444 102.787 198.161 102.705 197.799 102.617C197.365 102.507 197.019 102.402 196.761 102.303C196.502 102.199 196.28 102.043 196.093 101.834C195.912 101.625 195.821 101.342 195.821 100.985C195.821 100.694 195.898 100.43 196.052 100.194C196.206 99.9521 196.442 99.7598 196.761 99.617C197.079 99.4742 197.475 99.4027 197.947 99.4027C198.277 99.4027 198.598 99.4494 198.911 99.5428C199.23 99.6307 199.505 99.7543 199.735 99.9137L199.529 100.4C199.288 100.241 199.029 100.122 198.755 100.046C198.48 99.9631 198.211 99.9219 197.947 99.9219C197.442 99.9219 197.06 100.021 196.802 100.219C196.549 100.411 196.423 100.661 196.423 100.968C196.423 101.199 196.491 101.386 196.629 101.529C196.772 101.666 196.947 101.773 197.156 101.85C197.37 101.922 197.656 102.001 198.013 102.089C198.436 102.194 198.777 102.298 199.035 102.402C199.299 102.501 199.521 102.655 199.702 102.864C199.884 103.067 199.974 103.345 199.974 103.696C199.974 103.987 199.895 104.254 199.735 104.496C199.582 104.732 199.343 104.921 199.018 105.064C198.694 105.201 198.296 105.27 197.824 105.27ZM203.462 104.957C203.352 105.056 203.215 105.133 203.05 105.188C202.891 105.237 202.723 105.262 202.547 105.262C202.141 105.262 201.828 105.152 201.608 104.932C201.388 104.713 201.278 104.402 201.278 104.001V101.381H200.504V100.886H201.278V99.9384H201.863V100.886H203.182V101.381H201.863V103.968C201.863 104.226 201.927 104.424 202.053 104.561C202.185 104.693 202.372 104.759 202.613 104.759C202.734 104.759 202.85 104.74 202.959 104.702C203.075 104.663 203.174 104.608 203.256 104.537L203.462 104.957ZM205.088 101.735C205.225 101.444 205.428 101.224 205.697 101.076C205.972 100.927 206.31 100.853 206.711 100.853V101.422L206.571 101.413C206.115 101.413 205.758 101.554 205.5 101.834C205.241 102.114 205.112 102.507 205.112 103.012V105.221H204.527V100.886H205.088V101.735ZM211.504 103.235H207.879C207.912 103.685 208.085 104.051 208.398 104.331C208.711 104.605 209.106 104.743 209.584 104.743C209.854 104.743 210.101 104.696 210.326 104.603C210.551 104.504 210.746 104.361 210.911 104.174L211.241 104.553C211.048 104.784 210.807 104.96 210.516 105.081C210.23 105.201 209.914 105.262 209.568 105.262C209.123 105.262 208.727 105.169 208.381 104.982C208.041 104.789 207.774 104.526 207.582 104.191C207.39 103.855 207.293 103.476 207.293 103.053C207.293 102.63 207.384 102.251 207.565 101.916C207.752 101.581 208.005 101.32 208.324 101.133C208.648 100.947 209.01 100.853 209.411 100.853C209.812 100.853 210.172 100.947 210.491 101.133C210.81 101.32 211.059 101.581 211.241 101.916C211.422 102.246 211.513 102.625 211.513 103.053L211.504 103.235ZM209.411 101.356C208.994 101.356 208.642 101.49 208.357 101.76C208.076 102.023 207.917 102.369 207.879 102.798H210.952C210.914 102.369 210.752 102.023 210.466 101.76C210.186 101.49 209.834 101.356 209.411 101.356ZM216.478 103.235H212.852C212.885 103.685 213.058 104.051 213.371 104.331C213.684 104.605 214.08 104.743 214.558 104.743C214.827 104.743 215.074 104.696 215.299 104.603C215.525 104.504 215.72 104.361 215.885 104.174L216.214 104.553C216.022 104.784 215.78 104.96 215.489 105.081C215.203 105.201 214.887 105.262 214.541 105.262C214.096 105.262 213.701 105.169 213.355 104.982C213.014 104.789 212.748 104.526 212.555 104.191C212.363 103.855 212.267 103.476 212.267 103.053C212.267 102.63 212.358 102.251 212.539 101.916C212.726 101.581 212.978 101.32 213.297 101.133C213.621 100.947 213.984 100.853 214.385 100.853C214.786 100.853 215.146 100.947 215.464 101.133C215.783 101.32 216.033 101.581 216.214 101.916C216.395 102.246 216.486 102.625 216.486 103.053L216.478 103.235ZM214.385 101.356C213.967 101.356 213.616 101.49 213.33 101.76C213.05 102.023 212.89 102.369 212.852 102.798H215.926C215.887 102.369 215.725 102.023 215.44 101.76C215.159 101.49 214.808 101.356 214.385 101.356ZM219.96 104.957C219.85 105.056 219.713 105.133 219.548 105.188C219.388 105.237 219.221 105.262 219.045 105.262C218.638 105.262 218.325 105.152 218.106 104.932C217.886 104.713 217.776 104.402 217.776 104.001V101.381H217.001V100.886H217.776V99.9384H218.361V100.886H219.68V101.381H218.361V103.968C218.361 104.226 218.424 104.424 218.551 104.561C218.682 104.693 218.869 104.759 219.111 104.759C219.232 104.759 219.347 104.74 219.457 104.702C219.572 104.663 219.671 104.608 219.754 104.537L219.96 104.957ZM227.306 100.886L225.666 105.221H225.114L223.746 101.669L222.378 105.221H221.826L220.194 100.886H220.755L222.115 104.57L223.507 100.886H224.01L225.394 104.57L226.771 100.886H227.306ZM231.841 103.235H228.215C228.248 103.685 228.421 104.051 228.734 104.331C229.047 104.605 229.443 104.743 229.921 104.743C230.19 104.743 230.437 104.696 230.662 104.603C230.888 104.504 231.083 104.361 231.247 104.174L231.577 104.553C231.385 104.784 231.143 104.96 230.852 105.081C230.566 105.201 230.25 105.262 229.904 105.262C229.459 105.262 229.064 105.169 228.718 104.982C228.377 104.789 228.11 104.526 227.918 104.191C227.726 103.855 227.63 103.476 227.63 103.053C227.63 102.63 227.72 102.251 227.902 101.916C228.088 101.581 228.341 101.32 228.66 101.133C228.984 100.947 229.347 100.853 229.748 100.853C230.149 100.853 230.509 100.947 230.827 101.133C231.146 101.32 231.396 101.581 231.577 101.916C231.758 102.246 231.849 102.625 231.849 103.053L231.841 103.235ZM229.748 101.356C229.33 101.356 228.978 101.49 228.693 101.76C228.413 102.023 228.253 102.369 228.215 102.798H231.289C231.25 102.369 231.088 102.023 230.802 101.76C230.522 101.49 230.171 101.356 229.748 101.356ZM234.436 100.853C235.001 100.853 235.435 100.996 235.738 101.282C236.04 101.562 236.191 101.979 236.191 102.534V105.221H235.63V104.545C235.499 104.77 235.304 104.946 235.045 105.072C234.793 105.199 234.49 105.262 234.139 105.262C233.655 105.262 233.271 105.147 232.985 104.916C232.699 104.685 232.557 104.38 232.557 104.001C232.557 103.633 232.688 103.336 232.952 103.111C233.221 102.886 233.647 102.773 234.229 102.773H235.606V102.509C235.606 102.136 235.501 101.853 235.293 101.661C235.084 101.463 234.779 101.364 234.378 101.364C234.103 101.364 233.839 101.411 233.587 101.504C233.334 101.592 233.117 101.716 232.936 101.875L232.672 101.438C232.892 101.251 233.155 101.109 233.463 101.01C233.771 100.905 234.095 100.853 234.436 100.853ZM234.229 104.8C234.559 104.8 234.842 104.726 235.078 104.578C235.315 104.424 235.49 104.204 235.606 103.919V103.21H234.246C233.504 103.21 233.133 103.468 233.133 103.985C233.133 104.237 233.23 104.438 233.422 104.586C233.614 104.729 233.883 104.8 234.229 104.8ZM238.34 101.735C238.478 101.444 238.681 101.224 238.95 101.076C239.225 100.927 239.563 100.853 239.964 100.853V101.422L239.824 101.413C239.368 101.413 239.011 101.554 238.752 101.834C238.494 102.114 238.365 102.507 238.365 103.012V105.221H237.78V100.886H238.34V101.735Z" fill="#EC1C24"/>
<path d="M169.874 87.078H192.303" stroke="#EC1C24" stroke-width="0.988889"/>
<path d="M220.936 87.078H243.365" stroke="#EC1C24" stroke-width="0.988889"/>
</svg>
