<svg width="414" height="227" viewBox="0 0 414 227" fill="none" xmlns="http://www.w3.org/2000/svg">
<rect width="414" height="227" fill="#1B1920"/>
<path d="M211.28 100.06C210.76 100.06 210.26 99.9767 209.78 99.81C209.307 99.6433 208.94 99.4233 208.68 99.15L208.97 98.58C209.223 98.8333 209.56 99.04 209.98 99.2C210.4 99.3533 210.833 99.43 211.28 99.43C211.907 99.43 212.377 99.3167 212.69 99.09C213.003 98.8567 213.16 98.5567 213.16 98.19C213.16 97.91 213.073 97.6867 212.9 97.52C212.733 97.3533 212.527 97.2267 212.28 97.14C212.033 97.0467 211.69 96.9467 211.25 96.84C210.723 96.7067 210.303 96.58 209.99 96.46C209.677 96.3333 209.407 96.1433 209.18 95.89C208.96 95.6367 208.85 95.2933 208.85 94.86C208.85 94.5067 208.943 94.1867 209.13 93.9C209.317 93.6067 209.603 93.3733 209.99 93.2C210.377 93.0267 210.857 92.94 211.43 92.94C211.83 92.94 212.22 92.9967 212.6 93.11C212.987 93.2167 213.32 93.3667 213.6 93.56L213.35 94.15C213.057 93.9567 212.743 93.8133 212.41 93.72C212.077 93.62 211.75 93.57 211.43 93.57C210.817 93.57 210.353 93.69 210.04 93.93C209.733 94.1633 209.58 94.4667 209.58 94.84C209.58 95.12 209.663 95.3467 209.83 95.52C210.003 95.6867 210.217 95.8167 210.47 95.91C210.73 95.9967 211.077 96.0933 211.51 96.2C212.023 96.3267 212.437 96.4533 212.75 96.58C213.07 96.7 213.34 96.8867 213.56 97.14C213.78 97.3867 213.89 97.7233 213.89 98.15C213.89 98.5033 213.793 98.8267 213.6 99.12C213.413 99.4067 213.123 99.6367 212.73 99.81C212.337 99.9767 211.853 100.06 211.28 100.06ZM218.122 99.68C217.989 99.8 217.822 99.8933 217.622 99.96C217.429 100.02 217.226 100.05 217.012 100.05C216.519 100.05 216.139 99.9167 215.872 99.65C215.606 99.3833 215.472 99.0067 215.472 98.52V95.34H214.532V94.74H215.472V93.59H216.182V94.74H217.782V95.34H216.182V98.48C216.182 98.7933 216.259 99.0333 216.412 99.2C216.572 99.36 216.799 99.44 217.092 99.44C217.239 99.44 217.379 99.4167 217.512 99.37C217.652 99.3233 217.772 99.2567 217.872 99.17L218.122 99.68ZM220.095 95.77C220.261 95.4167 220.508 95.15 220.835 94.97C221.168 94.79 221.578 94.7 222.065 94.7V95.39L221.895 95.38C221.341 95.38 220.908 95.55 220.595 95.89C220.281 96.23 220.125 96.7067 220.125 97.32V100H219.415V94.74H220.095V95.77ZM227.882 97.59H223.482C223.522 98.1367 223.732 98.58 224.112 98.92C224.492 99.2533 224.972 99.42 225.552 99.42C225.878 99.42 226.178 99.3633 226.452 99.25C226.725 99.13 226.962 98.9567 227.162 98.73L227.562 99.19C227.328 99.47 227.035 99.6833 226.682 99.83C226.335 99.9767 225.952 100.05 225.532 100.05C224.992 100.05 224.512 99.9367 224.092 99.71C223.678 99.4767 223.355 99.1567 223.122 98.75C222.888 98.3433 222.772 97.8833 222.772 97.37C222.772 96.8567 222.882 96.3967 223.102 95.99C223.328 95.5833 223.635 95.2667 224.022 95.04C224.415 94.8133 224.855 94.7 225.342 94.7C225.828 94.7 226.265 94.8133 226.652 95.04C227.038 95.2667 227.342 95.5833 227.562 95.99C227.782 96.39 227.892 96.85 227.892 97.37L227.882 97.59ZM225.342 95.31C224.835 95.31 224.408 95.4733 224.062 95.8C223.722 96.12 223.528 96.54 223.482 97.06H227.212C227.165 96.54 226.968 96.12 226.622 95.8C226.282 95.4733 225.855 95.31 225.342 95.31ZM233.917 97.59H229.517C229.557 98.1367 229.767 98.58 230.147 98.92C230.527 99.2533 231.007 99.42 231.587 99.42C231.913 99.42 232.213 99.3633 232.487 99.25C232.76 99.13 232.997 98.9567 233.197 98.73L233.597 99.19C233.363 99.47 233.07 99.6833 232.717 99.83C232.37 99.9767 231.987 100.05 231.567 100.05C231.027 100.05 230.547 99.9367 230.127 99.71C229.713 99.4767 229.39 99.1567 229.157 98.75C228.923 98.3433 228.807 97.8833 228.807 97.37C228.807 96.8567 228.917 96.3967 229.137 95.99C229.363 95.5833 229.67 95.2667 230.057 95.04C230.45 94.8133 230.89 94.7 231.377 94.7C231.863 94.7 232.3 94.8133 232.687 95.04C233.073 95.2667 233.377 95.5833 233.597 95.99C233.817 96.39 233.927 96.85 233.927 97.37L233.917 97.59ZM231.377 95.31C230.87 95.31 230.443 95.4733 230.097 95.8C229.757 96.12 229.563 96.54 229.517 97.06H233.247C233.2 96.54 233.003 96.12 232.657 95.8C232.317 95.4733 231.89 95.31 231.377 95.31ZM238.142 99.68C238.009 99.8 237.842 99.8933 237.642 99.96C237.449 100.02 237.245 100.05 237.032 100.05C236.539 100.05 236.159 99.9167 235.892 99.65C235.625 99.3833 235.492 99.0067 235.492 98.52V95.34H234.552V94.74H235.492V93.59H236.202V94.74H237.802V95.34H236.202V98.48C236.202 98.7933 236.279 99.0333 236.432 99.2C236.592 99.36 236.819 99.44 237.112 99.44C237.259 99.44 237.399 99.4167 237.532 99.37C237.672 99.3233 237.792 99.2567 237.892 99.17L238.142 99.68ZM247.057 94.74L245.067 100H244.397L242.737 95.69L241.077 100H240.407L238.427 94.74H239.107L240.757 99.21L242.447 94.74H243.057L244.737 99.21L246.407 94.74H247.057ZM252.559 97.59H248.159C248.199 98.1367 248.409 98.58 248.789 98.92C249.169 99.2533 249.649 99.42 250.229 99.42C250.556 99.42 250.856 99.3633 251.129 99.25C251.403 99.13 251.639 98.9567 251.839 98.73L252.239 99.19C252.006 99.47 251.713 99.6833 251.359 99.83C251.013 99.9767 250.629 100.05 250.209 100.05C249.669 100.05 249.189 99.9367 248.769 99.71C248.356 99.4767 248.033 99.1567 247.799 98.75C247.566 98.3433 247.449 97.8833 247.449 97.37C247.449 96.8567 247.559 96.3967 247.779 95.99C248.006 95.5833 248.313 95.2667 248.699 95.04C249.093 94.8133 249.533 94.7 250.019 94.7C250.506 94.7 250.943 94.8133 251.329 95.04C251.716 95.2667 252.019 95.5833 252.239 95.99C252.459 96.39 252.569 96.85 252.569 97.37L252.559 97.59ZM250.019 95.31C249.513 95.31 249.086 95.4733 248.739 95.8C248.399 96.12 248.206 96.54 248.159 97.06H251.889C251.843 96.54 251.646 96.12 251.299 95.8C250.959 95.4733 250.533 95.31 250.019 95.31ZM255.708 94.7C256.395 94.7 256.921 94.8733 257.288 95.22C257.655 95.56 257.838 96.0667 257.838 96.74V100H257.158V99.18C256.998 99.4533 256.761 99.6667 256.448 99.82C256.141 99.9733 255.775 100.05 255.348 100.05C254.761 100.05 254.295 99.91 253.948 99.63C253.601 99.35 253.428 98.98 253.428 98.52C253.428 98.0733 253.588 97.7133 253.908 97.44C254.235 97.1667 254.751 97.03 255.458 97.03H257.128V96.71C257.128 96.2567 257.001 95.9133 256.748 95.68C256.495 95.44 256.125 95.32 255.638 95.32C255.305 95.32 254.985 95.3767 254.678 95.49C254.371 95.5967 254.108 95.7467 253.888 95.94L253.568 95.41C253.835 95.1833 254.155 95.01 254.528 94.89C254.901 94.7633 255.295 94.7 255.708 94.7ZM255.458 99.49C255.858 99.49 256.201 99.4 256.488 99.22C256.775 99.0333 256.988 98.7667 257.128 98.42V97.56H255.478C254.578 97.56 254.128 97.8733 254.128 98.5C254.128 98.8067 254.245 99.05 254.478 99.23C254.711 99.4033 255.038 99.49 255.458 99.49ZM260.446 95.77C260.613 95.4167 260.86 95.15 261.186 94.97C261.52 94.79 261.93 94.7 262.416 94.7V95.39L262.246 95.38C261.693 95.38 261.26 95.55 260.946 95.89C260.633 96.23 260.476 96.7067 260.476 97.32V100H259.766V94.74H260.446V95.77Z" fill="white"/>
<path d="M196.991 101.09C196.211 101.09 195.461 100.965 194.741 100.715C194.031 100.465 193.481 100.135 193.091 99.725L193.526 98.87C193.906 99.25 194.411 99.56 195.041 99.8C195.671 100.03 196.321 100.145 196.991 100.145C197.931 100.145 198.636 99.975 199.106 99.635C199.576 99.285 199.811 98.835 199.811 98.285C199.811 97.865 199.681 97.53 199.421 97.28C199.171 97.03 198.861 96.84 198.491 96.71C198.121 96.57 197.606 96.42 196.946 96.26C196.156 96.06 195.526 95.87 195.056 95.69C194.586 95.5 194.181 95.215 193.841 94.835C193.511 94.455 193.346 93.94 193.346 93.29C193.346 92.76 193.486 92.28 193.766 91.85C194.046 91.41 194.476 91.06 195.056 90.8C195.636 90.54 196.356 90.41 197.216 90.41C197.816 90.41 198.401 90.495 198.971 90.665C199.551 90.825 200.051 91.05 200.471 91.34L200.096 92.225C199.656 91.935 199.186 91.72 198.686 91.58C198.186 91.43 197.696 91.355 197.216 91.355C196.296 91.355 195.601 91.535 195.131 91.895C194.671 92.245 194.441 92.7 194.441 93.26C194.441 93.68 194.566 94.02 194.816 94.28C195.076 94.53 195.396 94.725 195.776 94.865C196.166 94.995 196.686 95.14 197.336 95.3C198.106 95.49 198.726 95.68 199.196 95.87C199.676 96.05 200.081 96.33 200.411 96.71C200.741 97.08 200.906 97.585 200.906 98.225C200.906 98.755 200.761 99.24 200.471 99.68C200.191 100.11 199.756 100.455 199.166 100.715C198.576 100.965 197.851 101.09 196.991 101.09Z" fill="white"/>
<path d="M159.618 100.04V101H152.193V90.5H159.393V91.46H153.303V95.195H158.733V96.14H153.303V100.04H159.618Z" fill="white"/>
<path d="M172.594 79C175.975 82.0067 177.773 81.925 180.842 79L184.284 80.619C183.924 86.2912 183.934 89.161 186.364 90.7381V113H167" stroke="#EC1C24" stroke-width="1.12583"/>
<path d="M180.77 79C177.389 82.0067 175.591 81.925 172.522 79L169.08 80.619C169.44 86.2912 169.43 89.161 167 90.7381V113H186.364" stroke="#EC1C24" stroke-width="1.12583"/>
<path d="M179.305 100.11L178.335 99.11C177.742 99.7433 176.962 100.06 175.995 100.06C175.542 100.06 175.135 99.9867 174.775 99.84C174.422 99.6867 174.145 99.4767 173.945 99.21C173.745 98.9367 173.645 98.6267 173.645 98.28C173.645 97.86 173.779 97.4833 174.045 97.15C174.312 96.8167 174.765 96.4667 175.405 96.1C175.072 95.7533 174.842 95.46 174.715 95.22C174.589 94.9733 174.525 94.7133 174.525 94.44C174.525 93.9933 174.685 93.6333 175.005 93.36C175.325 93.0867 175.755 92.95 176.295 92.95C176.795 92.95 177.192 93.0733 177.485 93.32C177.779 93.5667 177.925 93.9067 177.925 94.34C177.925 94.6867 177.809 95 177.575 95.28C177.342 95.5533 176.939 95.8567 176.365 96.19L178.285 98.17C178.499 97.79 178.655 97.34 178.755 96.82L179.335 97C179.209 97.6267 179.002 98.1633 178.715 98.61L179.715 99.64L179.305 100.11ZM176.295 93.48C175.949 93.48 175.675 93.5667 175.475 93.74C175.282 93.9133 175.185 94.1433 175.185 94.43C175.185 94.6367 175.239 94.8333 175.345 95.02C175.452 95.2067 175.662 95.46 175.975 95.78C176.482 95.4867 176.832 95.2367 177.025 95.03C177.219 94.8233 177.315 94.5967 177.315 94.35C177.315 94.0833 177.225 93.8733 177.045 93.72C176.865 93.56 176.615 93.48 176.295 93.48ZM176.035 99.47C176.809 99.47 177.435 99.2067 177.915 98.68L175.805 96.51C175.252 96.8233 174.869 97.1067 174.655 97.36C174.449 97.6133 174.345 97.8967 174.345 98.21C174.345 98.59 174.499 98.8967 174.805 99.13C175.119 99.3567 175.529 99.47 176.035 99.47Z" fill="#EC1C24"/>
</svg>
