<svg width="414" height="227" viewBox="0 0 414 227" fill="none" xmlns="http://www.w3.org/2000/svg">
<rect width="414" height="227" fill="#1B1920"/>
<path d="M254 57.3148L236.759 45H213.537H190.315L172.019 57.3148L213.537 100.593L254 57.3148Z" stroke="#EC1C24" stroke-width="3.51852"/>
<path d="M240.981 57.3148L223.741 45H200.519H177.296L159 57.3148L200.519 100.593L240.981 57.3148Z" stroke="#EC1C24" stroke-width="3.51852"/>
<path d="M209.843 45L227.083 57.3148L206.852 78.9537" stroke="#EC1C24" stroke-width="3.51852"/>
<path d="M146.624 130.72V132H136.724V118H146.324V119.28H138.204V124.26H145.444V125.52H138.204V130.72H146.624ZM157.048 132.165L155.593 130.665C154.703 131.615 153.533 132.09 152.083 132.09C151.403 132.09 150.793 131.98 150.253 131.76C149.723 131.53 149.308 131.215 149.008 130.815C148.708 130.405 148.558 129.94 148.558 129.42C148.558 128.79 148.758 128.225 149.158 127.725C149.558 127.225 150.238 126.7 151.198 126.15C150.698 125.63 150.353 125.19 150.163 124.83C149.973 124.46 149.878 124.07 149.878 123.66C149.878 122.99 150.118 122.45 150.598 122.04C151.078 121.63 151.723 121.425 152.533 121.425C153.283 121.425 153.878 121.61 154.318 121.98C154.758 122.35 154.978 122.86 154.978 123.51C154.978 124.03 154.803 124.5 154.453 124.92C154.103 125.33 153.498 125.785 152.638 126.285L155.518 129.255C155.838 128.685 156.073 128.01 156.223 127.23L157.093 127.5C156.903 128.44 156.593 129.245 156.163 129.915L157.663 131.46L157.048 132.165ZM152.533 122.22C152.013 122.22 151.603 122.35 151.303 122.61C151.013 122.87 150.868 123.215 150.868 123.645C150.868 123.955 150.948 124.25 151.108 124.53C151.268 124.81 151.583 125.19 152.053 125.67C152.813 125.23 153.338 124.855 153.628 124.545C153.918 124.235 154.063 123.895 154.063 123.525C154.063 123.125 153.928 122.81 153.658 122.58C153.388 122.34 153.013 122.22 152.533 122.22ZM152.143 131.205C153.303 131.205 154.243 130.81 154.963 130.02L151.798 126.765C150.968 127.235 150.393 127.66 150.073 128.04C149.763 128.42 149.608 128.845 149.608 129.315C149.608 129.885 149.838 130.345 150.298 130.695C150.768 131.035 151.383 131.205 152.143 131.205ZM163.997 132.12C162.957 132.12 161.957 131.953 160.997 131.62C160.05 131.287 159.317 130.847 158.797 130.3L159.377 129.16C159.884 129.667 160.557 130.08 161.397 130.4C162.237 130.707 163.104 130.86 163.997 130.86C165.25 130.86 166.19 130.633 166.817 130.18C167.444 129.713 167.757 129.113 167.757 128.38C167.757 127.82 167.584 127.373 167.237 127.04C166.904 126.707 166.49 126.453 165.997 126.28C165.504 126.093 164.817 125.893 163.937 125.68C162.884 125.413 162.044 125.16 161.417 124.92C160.79 124.667 160.25 124.287 159.797 123.78C159.357 123.273 159.137 122.587 159.137 121.72C159.137 121.013 159.324 120.373 159.697 119.8C160.07 119.213 160.644 118.747 161.417 118.4C162.19 118.053 163.15 117.88 164.297 117.88C165.097 117.88 165.877 117.993 166.637 118.22C167.41 118.433 168.077 118.733 168.637 119.12L168.137 120.3C167.55 119.913 166.924 119.627 166.257 119.44C165.59 119.24 164.937 119.14 164.297 119.14C163.07 119.14 162.144 119.38 161.517 119.86C160.904 120.327 160.597 120.933 160.597 121.68C160.597 122.24 160.764 122.693 161.097 123.04C161.444 123.373 161.87 123.633 162.377 123.82C162.897 123.993 163.59 124.187 164.457 124.4C165.484 124.653 166.31 124.907 166.937 125.16C167.577 125.4 168.117 125.773 168.557 126.28C168.997 126.773 169.217 127.447 169.217 128.3C169.217 129.007 169.024 129.653 168.637 130.24C168.264 130.813 167.684 131.273 166.897 131.62C166.11 131.953 165.144 132.12 163.997 132.12ZM181.536 132.12C180.496 132.12 179.496 131.953 178.536 131.62C177.589 131.287 176.856 130.847 176.336 130.3L176.916 129.16C177.423 129.667 178.096 130.08 178.936 130.4C179.776 130.707 180.643 130.86 181.536 130.86C182.789 130.86 183.729 130.633 184.356 130.18C184.983 129.713 185.296 129.113 185.296 128.38C185.296 127.82 185.123 127.373 184.776 127.04C184.443 126.707 184.029 126.453 183.536 126.28C183.043 126.093 182.356 125.893 181.476 125.68C180.423 125.413 179.583 125.16 178.956 124.92C178.329 124.667 177.789 124.287 177.336 123.78C176.896 123.273 176.676 122.587 176.676 121.72C176.676 121.013 176.863 120.373 177.236 119.8C177.609 119.213 178.183 118.747 178.956 118.4C179.729 118.053 180.689 117.88 181.836 117.88C182.636 117.88 183.416 117.993 184.176 118.22C184.949 118.433 185.616 118.733 186.176 119.12L185.676 120.3C185.089 119.913 184.463 119.627 183.796 119.44C183.129 119.24 182.476 119.14 181.836 119.14C180.609 119.14 179.683 119.38 179.056 119.86C178.443 120.327 178.136 120.933 178.136 121.68C178.136 122.24 178.303 122.693 178.636 123.04C178.983 123.373 179.409 123.633 179.916 123.82C180.436 123.993 181.129 124.187 181.996 124.4C183.023 124.653 183.849 124.907 184.476 125.16C185.116 125.4 185.656 125.773 186.096 126.28C186.536 126.773 186.756 127.447 186.756 128.3C186.756 129.007 186.563 129.653 186.176 130.24C185.803 130.813 185.223 131.273 184.436 131.62C183.649 131.953 182.683 132.12 181.536 132.12ZM195.221 131.36C194.954 131.6 194.621 131.787 194.221 131.92C193.834 132.04 193.427 132.1 193.001 132.1C192.014 132.1 191.254 131.833 190.721 131.3C190.187 130.767 189.921 130.013 189.921 129.04V122.68H188.041V121.48H189.921V119.18H191.341V121.48H194.541V122.68H191.341V128.96C191.341 129.587 191.494 130.067 191.801 130.4C192.121 130.72 192.574 130.88 193.161 130.88C193.454 130.88 193.734 130.833 194.001 130.74C194.281 130.647 194.521 130.513 194.721 130.34L195.221 131.36ZM199.166 123.54C199.499 122.833 199.992 122.3 200.646 121.94C201.312 121.58 202.132 121.4 203.106 121.4V122.78L202.766 122.76C201.659 122.76 200.792 123.1 200.166 123.78C199.539 124.46 199.226 125.413 199.226 126.64V132H197.806V121.48H199.166V123.54ZM214.739 127.18H205.939C206.019 128.273 206.439 129.16 207.199 129.84C207.959 130.507 208.919 130.84 210.079 130.84C210.732 130.84 211.332 130.727 211.879 130.5C212.426 130.26 212.899 129.913 213.299 129.46L214.099 130.38C213.632 130.94 213.046 131.367 212.339 131.66C211.646 131.953 210.879 132.1 210.039 132.1C208.959 132.1 207.999 131.873 207.159 131.42C206.332 130.953 205.686 130.313 205.219 129.5C204.752 128.687 204.519 127.767 204.519 126.74C204.519 125.713 204.739 124.793 205.179 123.98C205.632 123.167 206.246 122.533 207.019 122.08C207.806 121.627 208.686 121.4 209.659 121.4C210.632 121.4 211.506 121.627 212.279 122.08C213.052 122.533 213.659 123.167 214.099 123.98C214.539 124.78 214.759 125.7 214.759 126.74L214.739 127.18ZM209.659 122.62C208.646 122.62 207.792 122.947 207.099 123.6C206.419 124.24 206.032 125.08 205.939 126.12H213.399C213.306 125.08 212.912 124.24 212.219 123.6C211.539 122.947 210.686 122.62 209.659 122.62ZM226.809 127.18H218.009C218.089 128.273 218.509 129.16 219.269 129.84C220.029 130.507 220.989 130.84 222.149 130.84C222.803 130.84 223.403 130.727 223.949 130.5C224.496 130.26 224.969 129.913 225.369 129.46L226.169 130.38C225.703 130.94 225.116 131.367 224.409 131.66C223.716 131.953 222.949 132.1 222.109 132.1C221.029 132.1 220.069 131.873 219.229 131.42C218.403 130.953 217.756 130.313 217.289 129.5C216.823 128.687 216.589 127.767 216.589 126.74C216.589 125.713 216.809 124.793 217.249 123.98C217.703 123.167 218.316 122.533 219.089 122.08C219.876 121.627 220.756 121.4 221.729 121.4C222.703 121.4 223.576 121.627 224.349 122.08C225.123 122.533 225.729 123.167 226.169 123.98C226.609 124.78 226.829 125.7 226.829 126.74L226.809 127.18ZM221.729 122.62C220.716 122.62 219.863 122.947 219.169 123.6C218.489 124.24 218.103 125.08 218.009 126.12H225.469C225.376 125.08 224.983 124.24 224.289 123.6C223.609 122.947 222.756 122.62 221.729 122.62ZM235.26 131.36C234.993 131.6 234.66 131.787 234.26 131.92C233.873 132.04 233.466 132.1 233.04 132.1C232.053 132.1 231.293 131.833 230.76 131.3C230.226 130.767 229.96 130.013 229.96 129.04V122.68H228.08V121.48H229.96V119.18H231.38V121.48H234.58V122.68H231.38V128.96C231.38 129.587 231.533 130.067 231.84 130.4C232.16 130.72 232.613 130.88 233.2 130.88C233.493 130.88 233.773 130.833 234.04 130.74C234.32 130.647 234.56 130.513 234.76 130.34L235.26 131.36ZM253.089 121.48L249.109 132H247.769L244.449 123.38L241.129 132H239.789L235.829 121.48H237.189L240.489 130.42L243.869 121.48H245.089L248.449 130.42L251.789 121.48H253.089ZM264.095 127.18H255.295C255.375 128.273 255.795 129.16 256.555 129.84C257.315 130.507 258.275 130.84 259.435 130.84C260.088 130.84 260.688 130.727 261.235 130.5C261.781 130.26 262.255 129.913 262.655 129.46L263.455 130.38C262.988 130.94 262.401 131.367 261.695 131.66C261.001 131.953 260.235 132.1 259.395 132.1C258.315 132.1 257.355 131.873 256.515 131.42C255.688 130.953 255.041 130.313 254.575 129.5C254.108 128.687 253.875 127.767 253.875 126.74C253.875 125.713 254.095 124.793 254.535 123.98C254.988 123.167 255.601 122.533 256.375 122.08C257.161 121.627 258.041 121.4 259.015 121.4C259.988 121.4 260.861 121.627 261.635 122.08C262.408 122.533 263.015 123.167 263.455 123.98C263.895 124.78 264.115 125.7 264.115 126.74L264.095 127.18ZM259.015 122.62C258.001 122.62 257.148 122.947 256.455 123.6C255.775 124.24 255.388 125.08 255.295 126.12H262.755C262.661 125.08 262.268 124.24 261.575 123.6C260.895 122.947 260.041 122.62 259.015 122.62ZM270.392 121.4C271.765 121.4 272.819 121.747 273.552 122.44C274.285 123.12 274.652 124.133 274.652 125.48V132H273.292V130.36C272.972 130.907 272.499 131.333 271.872 131.64C271.259 131.947 270.525 132.1 269.672 132.1C268.499 132.1 267.565 131.82 266.872 131.26C266.179 130.7 265.832 129.96 265.832 129.04C265.832 128.147 266.152 127.427 266.792 126.88C267.445 126.333 268.479 126.06 269.892 126.06H273.232V125.42C273.232 124.513 272.979 123.827 272.472 123.36C271.965 122.88 271.225 122.64 270.252 122.64C269.585 122.64 268.945 122.753 268.332 122.98C267.719 123.193 267.192 123.493 266.752 123.88L266.112 122.82C266.645 122.367 267.285 122.02 268.032 121.78C268.779 121.527 269.565 121.4 270.392 121.4ZM269.892 130.98C270.692 130.98 271.379 130.8 271.952 130.44C272.525 130.067 272.952 129.533 273.232 128.84V127.12H269.932C268.132 127.12 267.232 127.747 267.232 129C267.232 129.613 267.465 130.1 267.932 130.46C268.399 130.807 269.052 130.98 269.892 130.98ZM279.869 123.54C280.202 122.833 280.695 122.3 281.349 121.94C282.015 121.58 282.835 121.4 283.809 121.4V122.78L283.469 122.76C282.362 122.76 281.495 123.1 280.869 123.78C280.242 124.46 279.929 125.413 279.929 126.64V132H278.509V121.48H279.869V123.54Z" fill="white"/>
</svg>
