<svg width="151" height="94" viewBox="0 0 151 94" fill="none" xmlns="http://www.w3.org/2000/svg">
<path d="M120 14.3148L102.759 2H79.5371H56.3149L38.0186 14.3148L79.5371 57.5926L120 14.3148Z" stroke="#EC1C24" stroke-width="3.51852"/>
<path d="M106.981 14.3148L89.7407 2H66.5185H43.2963L25 14.3148L66.5185 57.5926L106.981 14.3148Z" stroke="#EC1C24" stroke-width="3.51852"/>
<path d="M75.8425 2L93.0833 14.3148L72.8518 35.9537" stroke="#EC1C24" stroke-width="3.51852"/>
<path d="M12.6238 87.72V89H2.72385V75H12.3238V76.28H4.20385V81.26H11.4438V82.52H4.20385V87.72H12.6238ZM23.0478 89.165L21.5928 87.665C20.7028 88.615 19.5328 89.09 18.0828 89.09C17.4028 89.09 16.7928 88.98 16.2528 88.76C15.7228 88.53 15.3078 88.215 15.0078 87.815C14.7078 87.405 14.5578 86.94 14.5578 86.42C14.5578 85.79 14.7578 85.225 15.1578 84.725C15.5578 84.225 16.2378 83.7 17.1978 83.15C16.6978 82.63 16.3528 82.19 16.1628 81.83C15.9728 81.46 15.8778 81.07 15.8778 80.66C15.8778 79.99 16.1178 79.45 16.5978 79.04C17.0778 78.63 17.7228 78.425 18.5328 78.425C19.2828 78.425 19.8778 78.61 20.3178 78.98C20.7578 79.35 20.9778 79.86 20.9778 80.51C20.9778 81.03 20.8028 81.5 20.4528 81.92C20.1028 82.33 19.4978 82.785 18.6378 83.285L21.5178 86.255C21.8378 85.685 22.0728 85.01 22.2228 84.23L23.0928 84.5C22.9028 85.44 22.5928 86.245 22.1628 86.915L23.6628 88.46L23.0478 89.165ZM18.5328 79.22C18.0128 79.22 17.6028 79.35 17.3028 79.61C17.0128 79.87 16.8678 80.215 16.8678 80.645C16.8678 80.955 16.9478 81.25 17.1078 81.53C17.2678 81.81 17.5828 82.19 18.0528 82.67C18.8128 82.23 19.3378 81.855 19.6278 81.545C19.9178 81.235 20.0628 80.895 20.0628 80.525C20.0628 80.125 19.9278 79.81 19.6578 79.58C19.3878 79.34 19.0128 79.22 18.5328 79.22ZM18.1428 88.205C19.3028 88.205 20.2428 87.81 20.9628 87.02L17.7978 83.765C16.9678 84.235 16.3928 84.66 16.0728 85.04C15.7628 85.42 15.6078 85.845 15.6078 86.315C15.6078 86.885 15.8378 87.345 16.2978 87.695C16.7678 88.035 17.3828 88.205 18.1428 88.205ZM29.9969 89.12C28.9569 89.12 27.9569 88.9533 26.9969 88.62C26.0503 88.2867 25.3169 87.8467 24.7969 87.3L25.3769 86.16C25.8836 86.6667 26.5569 87.08 27.3969 87.4C28.2369 87.7067 29.1036 87.86 29.9969 87.86C31.2503 87.86 32.1903 87.6333 32.8169 87.18C33.4436 86.7133 33.7569 86.1133 33.7569 85.38C33.7569 84.82 33.5836 84.3733 33.2369 84.04C32.9036 83.7067 32.4903 83.4533 31.9969 83.28C31.5036 83.0933 30.8169 82.8933 29.9369 82.68C28.8836 82.4133 28.0436 82.16 27.4169 81.92C26.7903 81.6667 26.2503 81.2867 25.7969 80.78C25.3569 80.2733 25.1369 79.5867 25.1369 78.72C25.1369 78.0133 25.3236 77.3733 25.6969 76.8C26.0703 76.2133 26.6436 75.7467 27.4169 75.4C28.1903 75.0533 29.1503 74.88 30.2969 74.88C31.0969 74.88 31.8769 74.9933 32.6369 75.22C33.4103 75.4333 34.0769 75.7333 34.6369 76.12L34.1369 77.3C33.5503 76.9133 32.9236 76.6267 32.2569 76.44C31.5903 76.24 30.9369 76.14 30.2969 76.14C29.0703 76.14 28.1436 76.38 27.5169 76.86C26.9036 77.3267 26.5969 77.9333 26.5969 78.68C26.5969 79.24 26.7636 79.6933 27.0969 80.04C27.4436 80.3733 27.8703 80.6333 28.3769 80.82C28.8969 80.9933 29.5903 81.1867 30.4569 81.4C31.4836 81.6533 32.3103 81.9067 32.9369 82.16C33.5769 82.4 34.1169 82.7733 34.5569 83.28C34.9969 83.7733 35.2169 84.4467 35.2169 85.3C35.2169 86.0067 35.0236 86.6533 34.6369 87.24C34.2636 87.8133 33.6836 88.2733 32.8969 88.62C32.1103 88.9533 31.1436 89.12 29.9969 89.12ZM47.536 89.12C46.496 89.12 45.496 88.9533 44.536 88.62C43.5893 88.2867 42.856 87.8467 42.336 87.3L42.916 86.16C43.4227 86.6667 44.096 87.08 44.936 87.4C45.776 87.7067 46.6427 87.86 47.536 87.86C48.7893 87.86 49.7293 87.6333 50.356 87.18C50.9827 86.7133 51.296 86.1133 51.296 85.38C51.296 84.82 51.1227 84.3733 50.776 84.04C50.4427 83.7067 50.0293 83.4533 49.536 83.28C49.0427 83.0933 48.356 82.8933 47.476 82.68C46.4227 82.4133 45.5827 82.16 44.956 81.92C44.3293 81.6667 43.7893 81.2867 43.336 80.78C42.896 80.2733 42.676 79.5867 42.676 78.72C42.676 78.0133 42.8627 77.3733 43.236 76.8C43.6093 76.2133 44.1827 75.7467 44.956 75.4C45.7293 75.0533 46.6893 74.88 47.836 74.88C48.636 74.88 49.416 74.9933 50.176 75.22C50.9493 75.4333 51.616 75.7333 52.176 76.12L51.676 77.3C51.0893 76.9133 50.4627 76.6267 49.796 76.44C49.1293 76.24 48.476 76.14 47.836 76.14C46.6093 76.14 45.6827 76.38 45.056 76.86C44.4427 77.3267 44.136 77.9333 44.136 78.68C44.136 79.24 44.3027 79.6933 44.636 80.04C44.9827 80.3733 45.4093 80.6333 45.916 80.82C46.436 80.9933 47.1293 81.1867 47.996 81.4C49.0227 81.6533 49.8493 81.9067 50.476 82.16C51.116 82.4 51.656 82.7733 52.096 83.28C52.536 83.7733 52.756 84.4467 52.756 85.3C52.756 86.0067 52.5627 86.6533 52.176 87.24C51.8027 87.8133 51.2227 88.2733 50.436 88.62C49.6493 88.9533 48.6827 89.12 47.536 89.12ZM61.2207 88.36C60.954 88.6 60.6207 88.7867 60.2207 88.92C59.834 89.04 59.4274 89.1 59.0007 89.1C58.014 89.1 57.254 88.8333 56.7207 88.3C56.1874 87.7667 55.9207 87.0133 55.9207 86.04V79.68H54.0407V78.48H55.9207V76.18H57.3407V78.48H60.5407V79.68H57.3407V85.96C57.3407 86.5867 57.494 87.0667 57.8007 87.4C58.1207 87.72 58.574 87.88 59.1607 87.88C59.454 87.88 59.734 87.8333 60.0007 87.74C60.2807 87.6467 60.5207 87.5133 60.7207 87.34L61.2207 88.36ZM65.1657 80.54C65.499 79.8333 65.9924 79.3 66.6457 78.94C67.3124 78.58 68.1324 78.4 69.1057 78.4V79.78L68.7657 79.76C67.659 79.76 66.7924 80.1 66.1657 80.78C65.539 81.46 65.2257 82.4133 65.2257 83.64V89H63.8057V78.48H65.1657V80.54ZM80.7391 84.18H71.9391C72.0191 85.2733 72.4391 86.16 73.1991 86.84C73.9591 87.5067 74.9191 87.84 76.0791 87.84C76.7325 87.84 77.3325 87.7267 77.8791 87.5C78.4258 87.26 78.8991 86.9133 79.2991 86.46L80.0991 87.38C79.6325 87.94 79.0458 88.3667 78.3391 88.66C77.6458 88.9533 76.8791 89.1 76.0391 89.1C74.9591 89.1 73.9991 88.8733 73.1591 88.42C72.3325 87.9533 71.6858 87.3133 71.2191 86.5C70.7525 85.6867 70.5191 84.7667 70.5191 83.74C70.5191 82.7133 70.7391 81.7933 71.1791 80.98C71.6325 80.1667 72.2458 79.5333 73.0191 79.08C73.8058 78.6267 74.6858 78.4 75.6591 78.4C76.6325 78.4 77.5058 78.6267 78.2791 79.08C79.0525 79.5333 79.6591 80.1667 80.0991 80.98C80.5391 81.78 80.7591 82.7 80.7591 83.74L80.7391 84.18ZM75.6591 79.62C74.6458 79.62 73.7925 79.9467 73.0991 80.6C72.4191 81.24 72.0325 82.08 71.9391 83.12H79.3991C79.3058 82.08 78.9125 81.24 78.2191 80.6C77.5391 79.9467 76.6858 79.62 75.6591 79.62ZM92.8094 84.18H84.0094C84.0894 85.2733 84.5094 86.16 85.2694 86.84C86.0294 87.5067 86.9894 87.84 88.1494 87.84C88.8028 87.84 89.4028 87.7267 89.9494 87.5C90.4961 87.26 90.9694 86.9133 91.3694 86.46L92.1694 87.38C91.7028 87.94 91.1161 88.3667 90.4094 88.66C89.7161 88.9533 88.9494 89.1 88.1094 89.1C87.0294 89.1 86.0694 88.8733 85.2294 88.42C84.4028 87.9533 83.7561 87.3133 83.2894 86.5C82.8228 85.6867 82.5894 84.7667 82.5894 83.74C82.5894 82.7133 82.8094 81.7933 83.2494 80.98C83.7028 80.1667 84.3161 79.5333 85.0894 79.08C85.8761 78.6267 86.7561 78.4 87.7294 78.4C88.7028 78.4 89.5761 78.6267 90.3494 79.08C91.1228 79.5333 91.7294 80.1667 92.1694 80.98C92.6094 81.78 92.8294 82.7 92.8294 83.74L92.8094 84.18ZM87.7294 79.62C86.7161 79.62 85.8628 79.9467 85.1694 80.6C84.4894 81.24 84.1028 82.08 84.0094 83.12H91.4694C91.3761 82.08 90.9828 81.24 90.2894 80.6C89.6094 79.9467 88.7561 79.62 87.7294 79.62ZM101.26 88.36C100.993 88.6 100.66 88.7867 100.26 88.92C99.8731 89.04 99.4664 89.1 99.0397 89.1C98.0531 89.1 97.2931 88.8333 96.7597 88.3C96.2264 87.7667 95.9597 87.0133 95.9597 86.04V79.68H94.0797V78.48H95.9597V76.18H97.3797V78.48H100.58V79.68H97.3797V85.96C97.3797 86.5867 97.5331 87.0667 97.8397 87.4C98.1597 87.72 98.6131 87.88 99.1997 87.88C99.4931 87.88 99.7731 87.8333 100.04 87.74C100.32 87.6467 100.56 87.5133 100.76 87.34L101.26 88.36ZM119.089 78.48L115.109 89H113.769L110.449 80.38L107.129 89H105.789L101.829 78.48H103.189L106.489 87.42L109.869 78.48H111.089L114.449 87.42L117.789 78.48H119.089ZM130.095 84.18H121.295C121.375 85.2733 121.795 86.16 122.555 86.84C123.315 87.5067 124.275 87.84 125.435 87.84C126.088 87.84 126.688 87.7267 127.235 87.5C127.781 87.26 128.255 86.9133 128.655 86.46L129.455 87.38C128.988 87.94 128.401 88.3667 127.695 88.66C127.001 88.9533 126.235 89.1 125.395 89.1C124.315 89.1 123.355 88.8733 122.515 88.42C121.688 87.9533 121.041 87.3133 120.575 86.5C120.108 85.6867 119.875 84.7667 119.875 83.74C119.875 82.7133 120.095 81.7933 120.535 80.98C120.988 80.1667 121.601 79.5333 122.375 79.08C123.161 78.6267 124.041 78.4 125.015 78.4C125.988 78.4 126.861 78.6267 127.635 79.08C128.408 79.5333 129.015 80.1667 129.455 80.98C129.895 81.78 130.115 82.7 130.115 83.74L130.095 84.18ZM125.015 79.62C124.001 79.62 123.148 79.9467 122.455 80.6C121.775 81.24 121.388 82.08 121.295 83.12H128.755C128.661 82.08 128.268 81.24 127.575 80.6C126.895 79.9467 126.041 79.62 125.015 79.62ZM136.392 78.4C137.765 78.4 138.819 78.7467 139.552 79.44C140.285 80.12 140.652 81.1333 140.652 82.48V89H139.292V87.36C138.972 87.9067 138.499 88.3333 137.872 88.64C137.259 88.9467 136.525 89.1 135.672 89.1C134.499 89.1 133.565 88.82 132.872 88.26C132.179 87.7 131.832 86.96 131.832 86.04C131.832 85.1467 132.152 84.4267 132.792 83.88C133.445 83.3333 134.479 83.06 135.892 83.06H139.232V82.42C139.232 81.5133 138.979 80.8267 138.472 80.36C137.965 79.88 137.225 79.64 136.252 79.64C135.585 79.64 134.945 79.7533 134.332 79.98C133.719 80.1933 133.192 80.4933 132.752 80.88L132.112 79.82C132.645 79.3667 133.285 79.02 134.032 78.78C134.779 78.5267 135.565 78.4 136.392 78.4ZM135.892 87.98C136.692 87.98 137.379 87.8 137.952 87.44C138.525 87.0667 138.952 86.5333 139.232 85.84V84.12H135.932C134.132 84.12 133.232 84.7467 133.232 86C133.232 86.6133 133.465 87.1 133.932 87.46C134.399 87.8067 135.052 87.98 135.892 87.98ZM145.869 80.54C146.202 79.8333 146.695 79.3 147.349 78.94C148.015 78.58 148.835 78.4 149.809 78.4V79.78L149.469 79.76C148.362 79.76 147.495 80.1 146.869 80.78C146.242 81.46 145.929 82.4133 145.929 83.64V89H144.509V78.48H145.869V80.54Z" fill="white"/>
</svg>
